<?xml version="1.0" standalone="no"?>
<!DOCTYPE svg PUBLIC "-//W3C//DTD SVG 1.1//EN" "http://www.w3.org/Graphics/SVG/1.1/DTD/svg11.dtd" >
<svg xmlns="http://www.w3.org/2000/svg" xmlns:xlink="http://www.w3.org/1999/xlink" version="1.1">
<metadata>
Created by FontForge 20170731 at Tue Jun 11 19:21:32 2019
 By Aleksey,,,
Copyright (c) 2019 by TypeType. Designers Ivan Gladkikh, Pavel Emelyanov. Technical designers Marina Khodak, Nadezhda Polomoshnova, Kseniya Karataeva, Olexa Volochay, Nadyr Rakhimov. All rights reserved. |DCNT
</metadata>
<defs>
<font id="TTHoves-Light" horiz-adv-x="560" >
  <font-face 
    font-family="TT Hoves Light"
    font-weight="300"
    font-stretch="normal"
    units-per-em="1000"
    panose-1="2 0 5 3 2 0 0 2 0 4"
    ascent="700"
    descent="-300"
    x-height="500"
    cap-height="700"
    bbox="-500 -240 1438 970"
    underline-thickness="50"
    underline-position="-250"
    unicode-range="U+000D-FB04"
  />
<missing-glyph horiz-adv-x="0" 
 />
    <glyph glyph-name="f_f" unicode="ff" horiz-adv-x="545" 
d="M110 0v445h-80v55h80v95q0 39 24 62t66 23h85v-60h-80q-35 0 -35 -35v-85h175v95q0 39 24 62t66 23h85v-60h-80q-35 0 -35 -35v-85h115v-55h-115v-445h-60v445h-175v-445h-60z" />
    <glyph glyph-name="uniFB01" unicode="fi" horiz-adv-x="490" 
d="M110 0v445h-80v55h80v95q0 39 24 62t66 23h75v-60h-70q-35 0 -35 -35v-85h235v-500h-60v445h-175v-445h-60zM340 610v70h70v-70h-70z" />
    <glyph glyph-name="uniFB02" unicode="fl" horiz-adv-x="490" 
d="M110 0v445h-80v55h80v95q0 39 24 62t66 23h205v-680h-60v620h-140q-35 0 -35 -35v-85h105v-55h-105v-445h-60z" />
    <glyph glyph-name="f_f_i" unicode="ffi" horiz-adv-x="725" 
d="M110 0v445h-80v55h80v95q0 39 24 62t66 23h85v-60h-80q-35 0 -35 -35v-85h175v95q0 39 24 62t66 23h75v-60h-70q-35 0 -35 -35v-85h235v-500h-60v445h-175v-445h-60v445h-175v-445h-60zM575 610v70h70v-70h-70z" />
    <glyph glyph-name="f_f_l" unicode="ffl" horiz-adv-x="725" 
d="M110 0v445h-80v55h80v95q0 39 24 62t66 23h85v-60h-80q-35 0 -35 -35v-85h175v95q0 39 24 62t66 23h205v-680h-60v620h-140q-35 0 -35 -35v-85h105v-55h-105v-445h-60v445h-175v-445h-60z" />
    <glyph glyph-name="f_f_j" unicode="ffj" horiz-adv-x="725" 
d="M575 610v70h70v-70h-70zM110 0v445h-80v55h80v95q0 39 24 62t66 23h85v-60h-80q-35 0 -35 -35v-85h175v95q0 39 24 62t66 23h75v-60h-70q-35 0 -35 -35v-85h235v-615q0 -39 -24 -62t-66 -23h-85v60h80q35 0 35 35v550h-175v-445h-60v445h-175v-445h-60z" />
    <glyph glyph-name="f_j" unicode="fj" horiz-adv-x="490" 
d="M230 -200v60h80q35 0 35 35v550h-175v-445h-60v445h-80v55h80v95q0 39 24 62t66 23h75v-60h-70q-35 0 -35 -35v-85h235v-615q0 -39 -24 -62t-66 -23h-85zM340 610v70h70v-70h-70z" />
    <glyph glyph-name=".notdef" horiz-adv-x="0" 
 />
    <glyph glyph-name=".null" horiz-adv-x="0" 
 />
    <glyph glyph-name="nonmarkingreturn" horiz-adv-x="333" 
 />
    <glyph glyph-name="NULL" horiz-adv-x="0" 
 />
    <glyph glyph-name="NULL" horiz-adv-x="0" 
 />
    <glyph glyph-name="CR" unicode="&#xd;" horiz-adv-x="0" 
 />
    <glyph glyph-name="space" unicode=" " horiz-adv-x="225" 
 />
    <glyph glyph-name="exclam" unicode="!" horiz-adv-x="250" 
d="M100 155l-5 240v305h60v-305l-5 -240h-50zM90 0v70h70v-70h-70z" />
    <glyph glyph-name="quotedbl" unicode="&#x22;" horiz-adv-x="340" 
d="M210 500v200h60v-200h-60zM70 500v200h60v-200h-60z" />
    <glyph glyph-name="numbersign" unicode="#" horiz-adv-x="680" 
d="M120 0l41 190h-146l12 60h147l43 200h-147l13 60h147l40 190h60l-41 -190h166l40 190h60l-41 -190h151l-13 -60h-151l-42 -200h150l-12 -60h-151l-41 -190h-60l41 190h-166l-40 -190h-60zM233 250h166l42 200h-165z" />
    <glyph glyph-name="dollar" unicode="$" horiz-adv-x="625" 
d="M275 -110v102q-101 12 -160.5 72t-59.5 141h60q0 -63 55 -109t145 -46q93 0 141.5 37.5t48.5 97.5q0 104 -139 128l-111 19q-94 16 -139.5 60.5t-45.5 122.5t54.5 131.5t150.5 61.5v102h60v-101q104 -8 164.5 -68t60.5 -146h-60q0 66 -52.5 110.5t-142.5 44.5
q-84 0 -129.5 -38t-45.5 -97q0 -53 33 -83t102 -42l101 -18q105 -19 152 -63.5t47 -123.5q0 -83 -60 -136.5t-170 -57.5v-101h-60z" />
    <glyph glyph-name="percent" unicode="%" horiz-adv-x="760" 
d="M130 0l435 700h60l-435 -700h-60zM195 710q64 0 107 -43.5t43 -111.5t-43 -111.5t-107 -43.5t-107 43.5t-43 111.5t43 111.5t107 43.5zM195 455q42 0 68.5 27.5t26.5 72.5t-26.5 72.5t-68.5 27.5t-68.5 -27.5t-26.5 -72.5t26.5 -72.5t68.5 -27.5zM565 -10
q-64 0 -107 43.5t-43 111.5t43 111.5t107 43.5t107 -43.5t43 -111.5t-43 -111.5t-107 -43.5zM565 45q42 0 68.5 27.5t26.5 72.5t-26.5 72.5t-68.5 27.5t-68.5 -27.5t-26.5 -72.5t26.5 -72.5t68.5 -27.5z" />
    <glyph glyph-name="ampersand" unicode="&#x26;" horiz-adv-x="625" 
d="M151 331l46 36l-52 58q-31 35 -45.5 61t-14.5 64q0 69 48.5 114.5t126.5 45.5q74 0 124.5 -48t50.5 -117q0 -79 -90 -141l-65 -45l176 -189q14 16 24 42q25 56 25 118h60q0 -79 -34 -149q-15 -32 -34 -55l118 -126h-75l-76 81q-27 -29 -55 -46q-68 -45 -149 -45
q-96 0 -150.5 49t-54.5 126q0 53 24 91.5t72 74.5zM243 399l67 46q65 44 65 100q0 46 -31.5 75.5t-83.5 29.5t-83.5 -28.5t-31.5 -71.5q0 -28 11.5 -50t38.5 -50zM424 124l-188 202l-46 -36q-39 -30 -57 -57t-18 -68q0 -51 37.5 -83t107.5 -32q90 0 164 74z" />
    <glyph glyph-name="quotesingle" unicode="'" horiz-adv-x="200" 
d="M70 500v200h60v-200h-60z" />
    <glyph glyph-name="parenleft" unicode="(" horiz-adv-x="325" 
d="M295 -200h-65q-56 73 -100.5 196t-44.5 269t44.5 269t100.5 196h65q-59 -77 -104.5 -196t-45.5 -269t45.5 -269t104.5 -196z" />
    <glyph glyph-name="parenright" unicode=")" horiz-adv-x="325" 
d="M95 -200h-65q150 206 150 465t-150 465h65q57 -78 101 -199t44 -266t-44 -266t-101 -199z" />
    <glyph glyph-name="asterisk" unicode="*" horiz-adv-x="470" 
d="M100 375l90 122l-145 43l20 55l143 -50l-3 155h60l-3 -155l143 50l20 -55l-145 -43l90 -122l-45 -35l-90 125l-90 -125z" />
    <glyph glyph-name="plus" unicode="+" horiz-adv-x="540" 
d="M240 65v200h-185v55h185v200h60v-200h185v-55h-185v-200h-60z" />
    <glyph glyph-name="comma" unicode="," horiz-adv-x="210" 
d="M50 -80l25 150h65l-40 -150h-50z" />
    <glyph glyph-name="hyphen" unicode="-" horiz-adv-x="420" 
d="M50 260v55h320v-55h-320z" />
    <glyph glyph-name="period" unicode="." horiz-adv-x="210" 
d="M70 0v70h70v-70h-70z" />
    <glyph glyph-name="slash" unicode="/" horiz-adv-x="335" 
d="M0 -200l275 930h60l-275 -930h-60z" />
    <glyph glyph-name="zero" unicode="0" horiz-adv-x="650" 
d="M590 350q0 -169 -77 -264.5t-188 -95.5t-188 95.5t-77 264.5t77 264.5t188 95.5t188 -95.5t77 -264.5zM120 350q0 -143 60.5 -221.5t144.5 -78.5t144.5 78.5t60.5 221.5q0 141 -60.5 220.5t-144.5 79.5t-144.5 -79.5t-60.5 -220.5z" />
    <glyph glyph-name="one" unicode="1" horiz-adv-x="330" 
d="M180 0v560h-150v60h120q30 0 30 30v50h60v-700h-60z" />
    <glyph glyph-name="two" unicode="2" horiz-adv-x="540" 
d="M60 0v55l290 305q65 65 65 140q0 68 -41 109t-109 41q-65 0 -107.5 -45.5t-42.5 -119.5h-60q0 101 59.5 163t150.5 62q94 0 152 -58t58 -152q0 -43 -13.5 -78.5t-28 -54.5t-43.5 -50l-240 -252v-5h340v-60h-430z" />
    <glyph glyph-name="three" unicode="3" horiz-adv-x="555" 
d="M45 185h60q0 -58 44.5 -96.5t120.5 -38.5t120.5 38.5t44.5 96.5q0 62 -45.5 103.5t-119.5 41.5h-50v60h50q69 0 112 38t43 92t-43 92t-112 38t-112 -38t-43 -92h-60q0 81 59.5 135.5t155.5 54.5t155.5 -54.5t59.5 -135.5q0 -75 -58 -125q-23 -21 -57 -35v-5
q33 -10 62 -34q63 -55 63 -136q0 -85 -61 -140t-164 -55t-164 55t-61 140z" />
    <glyph glyph-name="four" unicode="4" horiz-adv-x="540" 
d="M30 165v50l275 485h110v-475h100v-60h-100v-165h-60v165h-325zM110 225h245v405h-20l-225 -400v-5z" />
    <glyph glyph-name="five" unicode="5" horiz-adv-x="565" 
d="M55 185h60q9 -58 54 -96.5t111 -38.5q75 0 125 50t50 125t-49 125t-121 50q-87 0 -145 -65h-70l40 365h365v-60h-315l-25 -235h5q63 55 150 55q95 0 160 -67t65 -168q0 -102 -66.5 -168.5t-168.5 -66.5q-89 0 -151 54t-74 141z" />
    <glyph glyph-name="six" unicode="6" 
d="M90 365l218 335h67q-30 -47 -90 -138t-90 -137h5q10 5 27 10q34 10 68 10q93 0 156.5 -64t63.5 -161q0 -99 -66.5 -164.5t-168.5 -65.5t-168.5 65.5t-66.5 164.5q0 75 45 145zM280 50q78 0 126.5 47.5t48.5 122.5t-48.5 122.5t-126.5 47.5t-126.5 -47.5t-48.5 -122.5
t48.5 -122.5t126.5 -47.5z" />
    <glyph glyph-name="seven" unicode="7" horiz-adv-x="490" 
d="M139 0l256 640h-365v60h430v-50l-260 -650h-61z" />
    <glyph glyph-name="eight" unicode="8" horiz-adv-x="570" 
d="M435 520q0 53 -42 91.5t-108 38.5t-108 -38.5t-42 -91.5t42 -91.5t108 -38.5t108 38.5t42 91.5zM120 190q0 -58 46 -99t119 -41t119 41t46 99t-46 99t-119 41t-119 -41t-46 -99zM180 360v5q-32 14 -53 34q-52 46 -52 121q0 80 59 135t151 55t151 -55t59 -135
q0 -74 -53 -121q-20 -19 -52 -34v-5q34 -13 60 -38q60 -52 60 -132q0 -84 -62.5 -142t-162.5 -58t-162.5 58t-62.5 142q0 80 60 132q26 25 60 38z" />
    <glyph glyph-name="nine" unicode="9" 
d="M252 0h-67q30 46 90 137.5t90 137.5h-5q-10 -5 -27 -10q-34 -10 -68 -10q-93 0 -156.5 64t-63.5 161q0 99 66.5 164.5t168.5 65.5t168.5 -65.5t66.5 -164.5q0 -75 -45 -145zM105 480q0 -75 48.5 -122.5t126.5 -47.5t126.5 47.5t48.5 122.5t-48.5 122.5t-126.5 47.5
t-126.5 -47.5t-48.5 -122.5z" />
    <glyph glyph-name="colon" unicode=":" horiz-adv-x="210" 
d="M70 0v70h70v-70h-70zM70 430v70h70v-70h-70z" />
    <glyph glyph-name="semicolon" unicode=";" horiz-adv-x="210" 
d="M70 430v70h70v-70h-70zM50 -80l25 150h65l-40 -150h-50z" />
    <glyph glyph-name="less" unicode="&#x3c;" horiz-adv-x="540" 
d="M55 263v54l420 183v-60l-350 -150l350 -150v-60z" />
    <glyph glyph-name="equal" unicode="=" horiz-adv-x="530" 
d="M80 340v55h370v-55h-370zM80 185v55h370v-55h-370z" />
    <glyph glyph-name="greater" unicode="&#x3e;" horiz-adv-x="540" 
d="M65 80v60l350 150l-350 150v60l420 -180v-60z" />
    <glyph glyph-name="question" unicode="?" horiz-adv-x="510" 
d="M215 160v60q0 55 22.5 87.5t77.5 60.5q46 24 68 57t22 85q0 61 -42.5 100.5t-112.5 39.5t-112.5 -38.5t-42.5 -96.5h-60q0 83 59.5 139t155.5 56q92 0 153.5 -58.5t61.5 -141.5q0 -126 -110 -185q-47 -26 -63.5 -48t-16.5 -57v-60h-60zM210 0v70h70v-70h-70z" />
    <glyph glyph-name="at" unicode="@" horiz-adv-x="925" 
d="M460 -30h205v-60h-205q-176 0 -285.5 107.5t-109.5 277.5q0 172 111.5 283.5t283.5 111.5q182 0 296 -109t114 -276q0 -112 -45 -168.5t-120 -56.5q-55 0 -84 35q-13 15 -21 35h-5q-16 -21 -36 -35q-44 -35 -114 -35q-87 0 -143.5 58.5t-56.5 151.5t56.5 151.5
t143.5 58.5q41 0 75 -15.5t48 -30.5t22 -29h5l10 65h50v-285q0 -65 50 -65q105 0 105 165q0 140 -97 232.5t-253 92.5q-146 0 -240.5 -94.5t-94.5 -240.5q0 -148 91 -236.5t244 -88.5zM450 140q64 0 104.5 41t40.5 109t-40.5 109t-104.5 41t-104.5 -41t-40.5 -109t40.5 -109
t104.5 -41z" />
    <glyph glyph-name="A" unicode="A" horiz-adv-x="630" 
d="M5 0l265 700h90l265 -700h-60l-72 190h-356l-72 -190h-60zM160 250h310l-145 385h-20z" />
    <glyph glyph-name="B" unicode="B" horiz-adv-x="635" 
d="M90 0v700h285q83 0 136.5 -54t53.5 -136q0 -72 -43 -121q-17 -20 -42 -34v-5q26 -12 47 -33q48 -48 48 -127q0 -82 -53.5 -136t-136.5 -54h-295zM150 60h235q57 0 93.5 36.5t36.5 93.5q0 60 -35 95t-95 35h-235v-260zM150 380h225q57 0 93.5 36.5t36.5 93.5t-36.5 93.5
t-93.5 36.5h-225v-260z" />
    <glyph glyph-name="C" unicode="C" horiz-adv-x="735" 
d="M625 230h65q-25 -94 -106 -167t-199 -73q-141 0 -235.5 100.5t-94.5 259.5t94.5 259.5t235.5 100.5q120 0 199.5 -71.5t105.5 -163.5h-65q-8 20 -18 39.5t-31 45.5t-45.5 44.5t-63 32t-82.5 13.5q-115 0 -192.5 -83.5t-77.5 -216.5t77.5 -216.5t192.5 -83.5q56 0 102 20
t73.5 51.5t42 57.5t22.5 51z" />
    <glyph glyph-name="D" unicode="D" horiz-adv-x="705" 
d="M150 60h165q124 0 199.5 78t75.5 212t-75.5 212t-199.5 78h-165v-580zM90 0v700h225q143 0 239 -99t96 -251t-96 -251t-239 -99h-225z" />
    <glyph glyph-name="E" unicode="E" horiz-adv-x="595" 
d="M90 0v700h440v-60h-380v-260h360v-60h-360v-260h380v-60h-440z" />
    <glyph glyph-name="F" unicode="F" horiz-adv-x="575" 
d="M90 0v700h430v-60h-370v-260h350v-60h-350v-320h-60z" />
    <glyph glyph-name="G" unicode="G" horiz-adv-x="770" 
d="M645 0l-10 115h-5q-23 -35 -59 -63q-80 -62 -186 -62q-141 0 -235.5 100.5t-94.5 259.5t94.5 259.5t235.5 100.5q65 0 121 -22.5t92.5 -58t59 -71t32.5 -68.5h-65q-14 35 -41 68.5t-80.5 62.5t-118.5 29q-115 0 -192.5 -83.5t-77.5 -216.5t77.5 -216.5t192.5 -83.5
q103 0 176.5 69t73.5 161v15h-230v60h290v-355h-50z" />
    <glyph glyph-name="H" unicode="H" horiz-adv-x="715" 
d="M90 0v700h60v-315h415v315h60v-700h-60v325h-415v-325h-60z" />
    <glyph glyph-name="I" unicode="I" horiz-adv-x="240" 
d="M90 0v700h60v-700h-60z" />
    <glyph glyph-name="J" unicode="J" horiz-adv-x="390" 
d="M15 0v60h170q60 0 60 55v585h60v-590q0 -110 -115 -110h-175z" />
    <glyph glyph-name="K" unicode="K" horiz-adv-x="565" 
d="M90 0v700h60v-330l315 330h80l-330 -345l350 -355h-80l-335 340v-340h-60z" />
    <glyph glyph-name="L" unicode="L" horiz-adv-x="535" 
d="M90 0v700h60v-640h360v-60h-420z" />
    <glyph glyph-name="M" unicode="M" horiz-adv-x="900" 
d="M90 0v700h115l235 -640h20l235 640h115v-700h-60v625h-20l-230 -625h-100l-230 625h-20v-625h-60z" />
    <glyph glyph-name="N" unicode="N" horiz-adv-x="715" 
d="M90 0v700h110l345 -630h20v630h60v-700h-110l-345 630h-20v-630h-60z" />
    <glyph glyph-name="O" unicode="O" horiz-adv-x="770" 
d="M385 710q141 0 235.5 -100.5t94.5 -259.5t-94.5 -259.5t-235.5 -100.5t-235.5 100.5t-94.5 259.5t94.5 259.5t235.5 100.5zM385 50q115 0 192.5 83.5t77.5 216.5t-77.5 216.5t-192.5 83.5t-192.5 -83.5t-77.5 -216.5t77.5 -216.5t192.5 -83.5z" />
    <glyph glyph-name="P" unicode="P" horiz-adv-x="640" 
d="M90 0v700h290q87 0 146 -61t59 -154t-57.5 -151.5t-147.5 -58.5h-230v-275h-60zM150 335h230q64 0 104.5 41t40.5 109q0 71 -40 113t-105 42h-230v-305z" />
    <glyph glyph-name="Q" unicode="Q" horiz-adv-x="770" 
d="M630 -10l-59 57q-82 -57 -186 -57q-141 0 -235.5 100.5t-94.5 259.5t94.5 259.5t235.5 100.5t235.5 -100.5t94.5 -259.5q0 -165 -102 -267l97 -93h-80zM350 260h80l139 -135q86 86 86 225q0 133 -77.5 216.5t-192.5 83.5t-192.5 -83.5t-77.5 -216.5t77.5 -216.5
t192.5 -83.5q79 0 141 40z" />
    <glyph glyph-name="R" unicode="R" horiz-adv-x="645" 
d="M90 0v700h290q90 0 147.5 -58.5t57.5 -151.5q0 -96 -58.5 -155.5t-146.5 -59.5h-70l290 -275h-80l-290 275h-80v-275h-60zM150 335h230q65 0 105 42t40 113q0 68 -40.5 109t-104.5 41h-230v-305z" />
    <glyph glyph-name="S" unicode="S" horiz-adv-x="625" 
d="M55 205h60q0 -63 55 -109t145 -46q93 0 141.5 37.5t48.5 97.5q0 104 -139 128l-111 19q-94 16 -139.5 60.5t-45.5 122.5q0 85 63 140t172 55q117 0 186 -61t69 -154h-60q0 66 -52.5 110.5t-142.5 44.5q-84 0 -129.5 -38t-45.5 -97q0 -53 33 -83t102 -42l101 -18
q105 -19 152 -63.5t47 -123.5q0 -86 -65.5 -140.5t-184.5 -54.5q-116 0 -188 63t-72 152z" />
    <glyph glyph-name="T" unicode="T" horiz-adv-x="600" 
d="M270 0v640h-240v60h540v-60h-240v-640h-60z" />
    <glyph glyph-name="U" unicode="U" horiz-adv-x="700" 
d="M80 275v425h60v-425q0 -101 59.5 -163t150.5 -62t150.5 62t59.5 163v425h60v-425q0 -127 -76 -206t-194 -79t-194 79t-76 206z" />
    <glyph glyph-name="V" unicode="V" horiz-adv-x="630" 
d="M265 0l-255 700h63l232 -640h20l232 640h63l-255 -700h-100z" />
    <glyph glyph-name="W" unicode="W" horiz-adv-x="950" 
d="M195 0l-175 700h63l159 -640h21l162 640h100l162 -640h21l159 640h63l-175 -700h-115l-155 615h-20l-155 -615h-115z" />
    <glyph glyph-name="X" unicode="X" horiz-adv-x="600" 
d="M10 0l243 360l-228 340h70l195 -290h20l195 290h70l-228 -340l243 -360h-70l-210 310h-20l-210 -310h-70z" />
    <glyph glyph-name="Y" unicode="Y" horiz-adv-x="590" 
d="M265 0v263l-260 437h67l213 -360h20l213 360h67l-260 -437v-263h-60z" />
    <glyph glyph-name="Z" unicode="Z" horiz-adv-x="585" 
d="M45 0v55l410 585h-405v60h485v-55l-410 -585h415v-60h-495z" />
    <glyph glyph-name="bracketleft" unicode="[" horiz-adv-x="325" 
d="M95 -200v930h195v-60h-135v-810h135v-60h-195z" />
    <glyph glyph-name="backslash" unicode="\" horiz-adv-x="335" 
d="M275 -200l-275 930h60l275 -930h-60z" />
    <glyph glyph-name="bracketright" unicode="]" horiz-adv-x="325" 
d="M35 -200v60h135v810h-135v60h195v-930h-195z" />
    <glyph glyph-name="asciicircum" unicode="^" horiz-adv-x="405" 
d="M65 430l110 270h55l110 -270h-55l-80 200h-5l-80 -200h-55z" />
    <glyph glyph-name="underscore" unicode="_" horiz-adv-x="350" 
d="M-20 -155v55h390v-55h-390z" />
    <glyph glyph-name="grave" unicode="`" horiz-adv-x="220" 
d="M135 600l-105 130h70l90 -130h-55z" />
    <glyph glyph-name="a" unicode="a" horiz-adv-x="535" 
d="M405 0l-10 70h-5q-15 -21 -41 -40q-56 -40 -124 -40q-77 0 -123.5 43t-46.5 112q0 71 50 113t145 42h145v20q0 130 -130 130q-59 0 -94.5 -26t-40.5 -69h-60q9 67 59 111t136 44q91 0 140.5 -49.5t49.5 -140.5v-320h-50zM395 220v25h-145q-66 0 -100.5 -28t-34.5 -72
q0 -43 29 -69t81 -26q79 0 124.5 45.5t45.5 124.5z" />
    <glyph glyph-name="b" unicode="b" horiz-adv-x="590" 
d="M315 50q74 0 122 54t48 146t-48 146t-122 54t-122 -54t-48 -146t48 -146t122 -54zM85 0v700h60v-280h5q20 32 64 61t106 29q96 0 160.5 -71.5t64.5 -188.5t-64.5 -188.5t-160.5 -71.5q-62 0 -106 29t-64 61h-5l-10 -80h-50z" />
    <glyph glyph-name="c" unicode="c" horiz-adv-x="540" 
d="M435 165h65q-19 -83 -77.5 -129t-142.5 -46q-104 0 -169.5 71t-65.5 189t65.5 189t169.5 71q83 0 142 -45.5t78 -124.5h-65q-11 40 -49.5 75t-105.5 35q-77 0 -126 -54t-49 -146t49 -146t126 -54q66 0 105 37t50 78z" />
    <glyph glyph-name="d" unicode="d" horiz-adv-x="590" 
d="M275 50q74 0 122 54t48 146t-48 146t-122 54t-122 -54t-48 -146t48 -146t122 -54zM455 0l-10 80h-5q-65 -90 -170 -90q-96 0 -160.5 71.5t-64.5 188.5t64.5 188.5t160.5 71.5q105 0 170 -90h5v280h60v-700h-50z" />
    <glyph glyph-name="e" unicode="e" horiz-adv-x="555" 
d="M105 280h345q-4 75 -51.5 122.5t-118.5 47.5q-72 0 -119.5 -45.5t-55.5 -124.5zM430 140h65q-22 -62 -74.5 -106t-140.5 -44q-104 0 -169.5 71t-65.5 189t65.5 189t169.5 71q99 0 164.5 -69.5t65.5 -180.5q0 -15 -2 -29q-1 -4 -1 -11h-402q8 -77 57 -123.5t118 -46.5
q55 0 93 27t57 63z" />
    <glyph glyph-name="f" unicode="f" horiz-adv-x="310" 
d="M110 0v440h-80v60h80v95q0 39 24 62t66 23h85v-60h-80q-35 0 -35 -35v-85h115v-60h-115v-440h-60z" />
    <glyph glyph-name="g" unicode="g" horiz-adv-x="585" 
d="M275 80q73 0 121.5 52t48.5 133t-48.5 133t-121.5 52t-121.5 -52t-48.5 -133t48.5 -133t121.5 -52zM70 -40h60q4 -48 44 -79t111 -31q74 0 117 40.5t43 109.5v110h-5q-65 -90 -170 -90q-95 0 -160 69t-65 176t65 176t160 69q105 0 170 -90h5l10 80h50v-500
q0 -94 -59.5 -152t-160.5 -58q-94 0 -151.5 49.5t-63.5 120.5z" />
    <glyph glyph-name="h" unicode="h" horiz-adv-x="585" 
d="M85 0v700h60v-265h5q15 22 36 37q50 38 119 38q87 0 143.5 -58.5t56.5 -151.5v-300h-60v300q0 68 -40.5 109t-104.5 41q-68 0 -111.5 -43t-43.5 -107v-300h-60z" />
    <glyph glyph-name="i" unicode="i" horiz-adv-x="230" 
d="M85 0v500h60v-500h-60zM80 615v70h70v-70h-70z" />
    <glyph glyph-name="j" unicode="j" horiz-adv-x="230" 
d="M-30 -200v60h80q35 0 35 35v605h60v-615q0 -39 -24 -62t-66 -23h-85zM80 615v70h70v-70h-70z" />
    <glyph glyph-name="k" unicode="k" horiz-adv-x="480" 
d="M85 0v700h60v-430l243 230h82l-260 -245l270 -255h-82l-253 240v-240h-60z" />
    <glyph glyph-name="l" unicode="l" horiz-adv-x="230" 
d="M85 0v700h60v-700h-60z" />
    <glyph glyph-name="m" unicode="m" horiz-adv-x="850" 
d="M80 0v500h50l10 -65h5q14 20 34 37q46 38 101 38q72 0 118 -48q20 -22 32 -47h5q13 25 37 47q54 48 123 48q76 0 125.5 -53.5t49.5 -141.5v-315h-60v315q0 63 -33 99t-87 36q-60 0 -97.5 -37.5t-37.5 -97.5v-315h-60v315q0 63 -33 99t-87 36q-56 0 -95.5 -39.5
t-39.5 -95.5v-315h-60z" />
    <glyph glyph-name="n" unicode="n" horiz-adv-x="580" 
d="M80 0v500h50l10 -65h5q15 22 36 37q50 38 119 38q87 0 143.5 -58.5t56.5 -151.5v-300h-60v300q0 68 -40.5 109t-104.5 41q-68 0 -111.5 -43t-43.5 -107v-300h-60z" />
    <glyph glyph-name="o" unicode="o" 
d="M280 -10q-99 0 -167 73t-68 187t68 187t167 73t167 -73t68 -187t-68 -187t-167 -73zM455 250q0 88 -51 144t-124 56t-124 -56t-51 -144t51 -144t124 -56t124 56t51 144z" />
    <glyph glyph-name="p" unicode="p" horiz-adv-x="585" 
d="M310 50q74 0 122 54t48 146t-48 146t-122 54t-122 -54t-48 -146t48 -146t122 -54zM80 -200v700h50l10 -80h5q20 32 64 61t106 29q96 0 160.5 -71.5t64.5 -188.5t-64.5 -188.5t-160.5 -71.5q-62 0 -106 29t-64 61h-5v-280h-60z" />
    <glyph glyph-name="q" unicode="q" horiz-adv-x="585" 
d="M275 50q74 0 122 54t48 146t-48 146t-122 54t-122 -54t-48 -146t48 -146t122 -54zM445 -200v280h-5q-65 -90 -170 -90q-96 0 -160.5 71.5t-64.5 188.5t64.5 188.5t160.5 71.5q105 0 170 -90h5l10 80h50v-700h-60z" />
    <glyph glyph-name="r" unicode="r" horiz-adv-x="340" 
d="M80 0v500h50l5 -50h5q34 50 100 50h90v-60h-85q-49 0 -77 -28.5t-28 -81.5v-330h-60z" />
    <glyph glyph-name="s" unicode="s" horiz-adv-x="470" 
d="M40 145h57q0 -40 38 -67.5t100 -27.5q64 0 97 24t33 61q0 61 -85 78l-100 20q-65 13 -97.5 45.5t-32.5 91.5t48.5 99.5t131.5 40.5q87 0 138.5 -44.5t51.5 -110.5h-60q0 40 -34.5 67.5t-95.5 27.5q-57 0 -88.5 -24t-31.5 -56q0 -64 80 -80l100 -20q72 -14 103.5 -46
t31.5 -89q0 -63 -50 -104t-140 -41q-87 0 -141 46t-54 109z" />
    <glyph glyph-name="t" unicode="t" horiz-adv-x="340" 
d="M110 85v355h-80v60h80v140h60v-140h125v-60h-125v-345q0 -35 35 -35h90v-60h-95q-42 0 -66 23t-24 62z" />
    <glyph glyph-name="u" unicode="u" horiz-adv-x="580" 
d="M80 200v300h60v-300q0 -68 40.5 -109t104.5 -41q68 0 111.5 43t43.5 107v300h60v-500h-50l-10 65h-5q-14 -22 -36 -38q-49 -37 -119 -37q-87 0 -143.5 58.5t-56.5 151.5z" />
    <glyph glyph-name="v" unicode="v" horiz-adv-x="480" 
d="M195 0l-185 500h60l160 -435h20l160 435h60l-185 -500h-90z" />
    <glyph glyph-name="w" unicode="w" horiz-adv-x="760" 
d="M155 0l-135 500h60l115 -435h20l115 435h100l115 -435h20l115 435h60l-135 -500h-100l-115 425h-20l-116 -425h-99z" />
    <glyph glyph-name="x" unicode="x" horiz-adv-x="460" 
d="M10 0l168 255l-163 245h70l135 -205h20l135 205h70l-163 -245l168 -255h-70l-140 215h-20l-140 -215h-70z" />
    <glyph glyph-name="y" unicode="y" horiz-adv-x="470" 
d="M60 -200v60h85q17 0 25.5 8t14.5 24l27 76l-202 532h60l160 -425h20l150 425h60l-225 -635q-24 -65 -90 -65h-85z" />
    <glyph glyph-name="z" unicode="z" horiz-adv-x="440" 
d="M35 0v50l285 390h-280v60h360v-50l-285 -390h290v-60h-370z" />
    <glyph glyph-name="braceleft" unicode="{" horiz-adv-x="320" 
d="M135 -100v270q0 27 -18.5 43.5t-51.5 16.5v70q33 0 51.5 16.5t18.5 43.5v270q0 100 105 100h45v-60h-40q-30 0 -40 -9.5t-10 -35.5v-265q0 -51 -40 -73q-18 -11 -40 -12v-20q23 -3 40 -13q40 -22 40 -72v-265q0 -26 10 -35.5t40 -9.5h40v-60h-45q-105 0 -105 100z" />
    <glyph glyph-name="bar" unicode="|" horiz-adv-x="300" 
d="M120 -200v930h60v-930h-60z" />
    <glyph glyph-name="braceright" unicode="}" horiz-adv-x="320" 
d="M35 -200v60h40q30 0 40 9.5t10 35.5v265q0 50 40 72q17 10 40 13v20q-22 1 -40 12q-40 22 -40 73v265q0 26 -10 35.5t-40 9.5h-40v60h45q105 0 105 -100v-270q0 -27 18.5 -43.5t51.5 -16.5v-70q-33 0 -51.5 -16.5t-18.5 -43.5v-270q0 -100 -105 -100h-45z" />
    <glyph glyph-name="asciitilde" unicode="~" horiz-adv-x="565" 
d="M110 200h-60q0 74 37 114.5t98 40.5q32 0 61 -15.5t46.5 -34.5t41 -34.5t46.5 -15.5q35 0 55 24t20 71h60q0 -74 -37 -114.5t-98 -40.5q-32 0 -61 15.5t-46.5 34.5t-41 34.5t-46.5 15.5q-35 0 -55 -24t-20 -71z" />
    <glyph glyph-name="nbspace" unicode="&#xa0;" horiz-adv-x="225" 
 />
    <glyph glyph-name="exclamdown" unicode="&#xa1;" horiz-adv-x="250" 
d="M95 -200v305l5 240h50l5 -240v-305h-60zM90 430v70h70v-70h-70z" />
    <glyph glyph-name="cent" unicode="&#xa2;" horiz-adv-x="540" 
d="M245 -110v103q-89 12 -144.5 80.5t-55.5 176.5q0 107 55.5 176t144.5 81v103h60v-101q74 -7 126 -51.5t69 -117.5h-65q-11 40 -49.5 75t-105.5 35q-77 0 -126 -54t-49 -146t49 -146t126 -54q66 0 105 37t50 78h65q-17 -77 -68.5 -122t-126.5 -52v-101h-60z" />
    <glyph glyph-name="sterling" unicode="&#xa3;" horiz-adv-x="595" 
d="M45 0v60h25q55 0 55 60v185h-80v60h80v140q0 90 58.5 147.5t151.5 57.5q92 0 151 -56t59 -139h-60q0 57 -42 96t-108 39q-68 0 -109 -40.5t-41 -104.5v-140h205v-60h-205v-185q0 -30 -13 -47q-5 -9 -12 -13h400v-60h-515z" />
    <glyph glyph-name="currency" unicode="&#xa4;" horiz-adv-x="570" 
d="M160 350q0 -52 36 -88.5t89 -36.5t89 36.5t36 88.5t-36 88.5t-89 36.5t-89 -36.5t-36 -88.5zM80 185l57 62q-8 9 -16 27q-16 38 -16 76t16 76q8 18 16 27l-57 62l45 40l55 -60q14 11 28 17q38 18 77 18t77 -18q14 -6 28 -17l55 60l45 -40l-57 -62q8 -9 16 -27
q16 -38 16 -76t-16 -76q-8 -18 -16 -27l57 -62l-45 -40l-55 60q-13 -11 -28 -18q-36 -17 -77 -17t-77 17q-15 7 -28 18l-55 -60z" />
    <glyph glyph-name="yen" unicode="&#xa5;" horiz-adv-x="570" 
d="M75 140v60h180v90h-180v60h132l-197 350h67l198 -350h20l198 350h67l-197 -350h132v-60h-180v-90h180v-60h-180v-140h-60v140h-180z" />
    <glyph glyph-name="brokenbar" unicode="&#xa6;" horiz-adv-x="300" 
d="M120 360v370h60v-370h-60zM120 -200v370h60v-370h-60z" />
    <glyph glyph-name="section" unicode="&#xa7;" horiz-adv-x="620" 
d="M80 35h60q0 -65 46.5 -105t128.5 -40q78 0 119 31t41 79q0 95 -120 118l-105 20q-180 35 -180 167q0 55 33 96q14 19 33 32q-12 9 -23 25q-23 33 -23 82q0 75 56.5 122.5t158.5 47.5q103 0 166.5 -58.5t63.5 -146.5h-60q0 62 -47 103.5t-123 41.5q-75 0 -115 -31t-40 -79
q0 -42 27.5 -67.5t87.5 -36.5l102 -19q96 -18 139.5 -58t43.5 -109q0 -52 -32 -98q-13 -18 -31 -35q13 -11 24 -29q24 -38 24 -88q0 -75 -57.5 -122.5t-162.5 -47.5q-106 0 -170.5 58.5t-64.5 146.5zM250 196l115 -21q23 -4 54 -16l21 -9q16 12 25 24q25 33 25 76t-29 69
t-94 40l-110 22q-33 6 -56 14l-13 6q-18 -11 -29 -24q-29 -31 -29 -72q0 -86 120 -109z" />
    <glyph glyph-name="dieresis" unicode="&#xa8;" horiz-adv-x="300" 
d="M30 615v70h70v-70h-70zM200 615v70h70v-70h-70z" />
    <glyph glyph-name="copyright" unicode="&#xa9;" horiz-adv-x="840" 
d="M530 290h55q-11 -45 -52 -87.5t-108 -42.5q-76 0 -125.5 52.5t-49.5 137.5t49.5 137.5t125.5 52.5q66 0 107 -41.5t53 -83.5h-55q-30 70 -105 70q-50 0 -85 -38t-35 -97t35 -97t85 -38q81 0 105 75zM720 350q0 132 -84.5 218.5t-215.5 86.5t-215.5 -86.5t-84.5 -218.5
t84.5 -218.5t215.5 -86.5t215.5 86.5t84.5 218.5zM420 -10q-153 0 -254 103t-101 257t101 257t254 103t254 -103t101 -257t-101 -257t-254 -103z" />
    <glyph glyph-name="ordfeminine" unicode="&#xaa;" horiz-adv-x="335" 
d="M255 395l-10 40h-5l-4 -4l-6 -6t-7 -6.5t-9 -7t-10 -6.5t-12 -6l-13.5 -4.5t-16 -3.5t-17.5 -1q-49 0 -79.5 27.5t-30.5 72.5q0 43 31 69t89 26h85v10q0 29 -19.5 47t-50.5 18q-55 0 -70 -45h-55q9 43 41 69t84 26q54 0 87 -31.5t33 -82.5v-201h-35zM240 530v5h-85
q-65 0 -65 -45q0 -23 16.5 -36.5t43.5 -13.5q42 0 66 24t24 66z" />
    <glyph glyph-name="guillemotleft" unicode="&#xab;" horiz-adv-x="495" 
d="M373 60l-138 190l138 190h67l-140 -190l140 -190h-67zM193 60l-138 190l138 190h67l-140 -190l140 -190h-67z" />
    <glyph glyph-name="logicalnot" unicode="&#xac;" horiz-adv-x="530" 
d="M75 310v55h375v-200h-60v145h-315z" />
    <glyph glyph-name="uni00AD" unicode="&#xad;" horiz-adv-x="420" 
d="M50 260v55h320v-55h-320z" />
    <glyph glyph-name="registered" unicode="&#xae;" horiz-adv-x="840" 
d="M280 165v375h160q59 0 97 -36t38 -89q0 -49 -33.5 -82.5t-86.5 -37.5l130 -130h-70l-130 130h-50v-130h-55zM335 350h105q80 0 80 65q0 31 -21.5 50.5t-58.5 19.5h-105v-135zM420 45q131 0 215.5 86.5t84.5 218.5t-84.5 218.5t-215.5 86.5t-215.5 -86.5t-84.5 -218.5
t84.5 -218.5t215.5 -86.5zM420 -10q-153 0 -254 103t-101 257t101 257t254 103t254 -103t101 -257t-101 -257t-254 -103z" />
    <glyph glyph-name="overscore" unicode="&#xaf;" horiz-adv-x="340" 
d="M30 625v50h280v-50h-280z" />
    <glyph glyph-name="degree" unicode="&#xb0;" horiz-adv-x="380" 
d="M190 450q-57 0 -93.5 36.5t-36.5 93.5t36.5 93.5t93.5 36.5t93.5 -36.5t36.5 -93.5t-36.5 -93.5t-93.5 -36.5zM190 655q-34 0 -54.5 -20.5t-20.5 -54.5t20.5 -54.5t54.5 -20.5t54.5 20.5t20.5 54.5t-20.5 54.5t-54.5 20.5z" />
    <glyph glyph-name="plusminus" unicode="&#xb1;" horiz-adv-x="540" 
d="M60 0v55h420v-55h-420zM240 140v190h-185v55h185v195h60v-195h185v-55h-185v-190h-60z" />
    <glyph glyph-name="uni00B2" unicode="&#xb2;" horiz-adv-x="335" 
d="M55 440v45l140 145q35 35 35 65q0 26 -17 43t-43 17q-30 0 -47.5 -17.5t-17.5 -47.5h-55q0 49 33.5 82t86.5 33t84 -30.5t31 -79.5q0 -47 -48 -95l-102 -105v-5h155v-50h-235z" />
    <glyph glyph-name="uni00B3" unicode="&#xb3;" horiz-adv-x="335" 
d="M45 540h55q0 -24 18 -39.5t47 -15.5t47 15.5t18 39.5q0 60 -70 60h-30v50h30q29 0 47 15.5t18 39.5q0 20 -16 35t-44 15t-44 -15t-16 -35h-55q0 43 31.5 71.5t83.5 28.5t83.5 -28.5t31.5 -71.5q0 -23 -16 -45t-39 -30v-5q60 -21 60 -85q0 -45 -34 -75t-86 -30
q-56 0 -88 29.5t-32 75.5z" />
    <glyph glyph-name="acute" unicode="&#xb4;" horiz-adv-x="220" 
d="M30 600l90 130h70l-105 -130h-55z" />
    <glyph glyph-name="uni00B5" unicode="&#xb5;" horiz-adv-x="580" 
d="M80 -200v700h60v-300q0 -68 40.5 -109t104.5 -41q68 0 111.5 43t43.5 107v300h60v-500h-50l-10 65h-5q-14 -21 -35 -38q-47 -37 -110 -37q-72 0 -116 35q-19 14 -34 35v-260h-60z" />
    <glyph glyph-name="paragraph" unicode="&#xb6;" horiz-adv-x="515" 
d="M215 -100v465q-65 0 -112.5 49.5t-47.5 120.5t46 118t114 47h210v-800h-60v740h-90v-740h-60z" />
    <glyph glyph-name="middot" unicode="&#xb7;" horiz-adv-x="225" 
d="M77 230v70h70v-70h-70z" />
    <glyph glyph-name="cedilla" unicode="&#xb8;" horiz-adv-x="195" 
d="M30 -200v45h40q45 0 45 35t-45 35h-25v35l20 45h50l-20 -45q30 -4 50 -24t20 -46q0 -35 -24.5 -57.5t-65.5 -22.5h-45z" />
    <glyph glyph-name="uni00B9" unicode="&#xb9;" horiz-adv-x="255" 
d="M125 440v260h-90v50h60q30 0 30 30v20h55v-360h-55z" />
    <glyph glyph-name="ordmasculine" unicode="&#xba;" horiz-adv-x="360" 
d="M180 440q40 0 65 29t25 81t-25 81t-65 29t-65 -29t-25 -81t25 -81t65 -29zM40 550q0 74 39.5 117t100.5 43t100.5 -43t39.5 -117t-39.5 -117t-100.5 -43t-100.5 43t-39.5 117z" />
    <glyph glyph-name="guillemotright" unicode="&#xbb;" horiz-adv-x="495" 
d="M235 60l140 190l-140 190h67l138 -190l-138 -190h-67zM55 60l140 190l-140 190h67l138 -190l-138 -190h-67z" />
    <glyph glyph-name="onequarter" unicode="&#xbc;" horiz-adv-x="660" 
d="M60 0l435 700h60l-435 -700h-60zM130 340v260h-90v50h60q30 0 30 30v20h55v-360h-55zM345 80v40l140 240h85v-230h50v-50h-50v-80h-55v80h-170zM410 130h105v170h-10l-95 -165v-5z" />
    <glyph glyph-name="onehalf" unicode="&#xbd;" horiz-adv-x="680" 
d="M60 0l435 700h60l-435 -700h-60zM130 340v260h-90v50h60q30 0 30 30v20h55v-360h-55zM395 0v45l140 145q35 35 35 65q0 26 -17 43t-43 17q-30 0 -47.5 -17.5t-17.5 -47.5h-55q0 49 33.5 82t86.5 33t84 -30.5t31 -79.5q0 -47 -48 -95l-102 -105v-5h155v-50h-235z" />
    <glyph glyph-name="threequarters" unicode="&#xbe;" horiz-adv-x="725" 
d="M125 0l435 700h60l-435 -700h-60zM40 440h55q0 -24 18 -39.5t47 -15.5t47 15.5t18 39.5q0 60 -70 60h-30v50h30q29 0 47 15.5t18 39.5q0 20 -16 35t-44 15t-44 -15t-16 -35h-55q0 43 31.5 71.5t83.5 28.5t83.5 -28.5t31.5 -71.5q0 -23 -16 -45t-39 -30v-5q60 -21 60 -85
q0 -45 -34 -75t-86 -30q-56 0 -88 29.5t-32 75.5zM410 80v40l140 240h85v-230h50v-50h-50v-80h-55v80h-170zM475 130h105v170h-10l-95 -165v-5z" />
    <glyph glyph-name="questiondown" unicode="&#xbf;" horiz-adv-x="510" 
d="M415 -15h60q0 -84 -59.5 -139.5t-155.5 -55.5q-92 0 -153.5 58.5t-61.5 141.5q0 126 110 185q47 26 63.5 48t16.5 57v60h60v-60q0 -55 -22.5 -87.5t-77.5 -60.5q-46 -24 -68 -57t-22 -85q0 -61 42.5 -100.5t112.5 -39.5t112.5 38.5t42.5 96.5zM230 430v70h70v-70h-70z
" />
    <glyph glyph-name="Agrave" unicode="&#xc0;" horiz-adv-x="630" 
d="M5 0l265 700h90l265 -700h-60l-72 190h-356l-72 -190h-60zM160 250h310l-145 385h-20zM285 775l-105 130h70l90 -130h-55z" />
    <glyph glyph-name="Aacute" unicode="&#xc1;" horiz-adv-x="630" 
d="M5 0l265 700h90l265 -700h-60l-72 190h-356l-72 -190h-60zM160 250h310l-145 385h-20zM290 775l90 130h70l-105 -130h-55z" />
    <glyph glyph-name="Acircumflex" unicode="&#xc2;" horiz-adv-x="630" 
d="M5 0l265 700h90l265 -700h-60l-72 190h-356l-72 -190h-60zM160 250h310l-145 385h-20zM170 775l113 130h64l113 -130h-65l-80 93l-80 -93h-65z" />
    <glyph glyph-name="Atilde" unicode="&#xc3;" horiz-adv-x="630" 
d="M5 0l265 700h90l265 -700h-60l-72 190h-356l-72 -190h-60zM160 250h310l-145 385h-20zM215 790h-50q0 44 25.5 72t64.5 28q30 0 68.5 -25t56.5 -25q16 0 28 14t12 36h50q0 -44 -25.5 -72t-64.5 -28q-30 0 -68.5 25t-56.5 25q-16 0 -28 -14t-12 -36z" />
    <glyph glyph-name="Adieresis" unicode="&#xc4;" horiz-adv-x="630" 
d="M5 0l265 700h90l265 -700h-60l-72 190h-356l-72 -190h-60zM160 250h310l-145 385h-20zM195 810v70h70v-70h-70zM365 810v70h70v-70h-70z" />
    <glyph glyph-name="Aring" unicode="&#xc5;" horiz-adv-x="630" 
d="M5 0l265 700h90l265 -700h-60l-72 190h-356l-72 -190h-60zM160 250h310l-145 385h-20zM225 855q0 38 26 64t64 26t64 -26t26 -64t-26 -64t-64 -26t-64 26t-26 64zM315 810q22 0 33.5 12.5t11.5 32.5t-11.5 32.5t-33.5 12.5t-33.5 -12.5t-11.5 -32.5t11.5 -32.5
t33.5 -12.5z" />
    <glyph glyph-name="AE" unicode="&#xc6;" horiz-adv-x="925" 
d="M-15 0l305 700h570v-60h-385v-260h365v-60h-365v-260h385v-60h-445v190h-285l-83 -190h-62zM156 250h259v390h-89z" />
    <glyph glyph-name="Ccedilla" unicode="&#xc7;" horiz-adv-x="735" 
d="M320 -200v45h40q45 0 45 35t-45 35h-25v35l18 42q-129 12 -213.5 110t-84.5 248q0 159 94.5 259.5t235.5 100.5q120 0 199.5 -71.5t105.5 -163.5h-65q-8 20 -18 39.5t-31 45.5t-45.5 44.5t-63 32t-82.5 13.5q-115 0 -192.5 -83.5t-77.5 -216.5t77.5 -216.5t192.5 -83.5
q56 0 102 20t73.5 51.5t42 57.5t22.5 51h65q-25 -90 -101 -161.5t-186 -77.5l-18 -41q30 -4 50 -24t20 -46q0 -35 -24.5 -57.5t-65.5 -22.5h-45z" />
    <glyph glyph-name="Egrave" unicode="&#xc8;" horiz-adv-x="595" 
d="M90 0v700h440v-60h-380v-260h360v-60h-360v-260h380v-60h-440zM280 775l-105 130h70l90 -130h-55z" />
    <glyph glyph-name="Eacute" unicode="&#xc9;" horiz-adv-x="595" 
d="M90 0v700h440v-60h-380v-260h360v-60h-360v-260h380v-60h-440zM285 775l90 130h70l-105 -130h-55z" />
    <glyph glyph-name="Ecircumflex" unicode="&#xca;" horiz-adv-x="595" 
d="M90 0v700h440v-60h-380v-260h360v-60h-360v-260h380v-60h-440zM165 775l113 130h64l113 -130h-65l-80 93l-80 -93h-65z" />
    <glyph glyph-name="Edieresis" unicode="&#xcb;" horiz-adv-x="595" 
d="M90 0v700h440v-60h-380v-260h360v-60h-360v-260h380v-60h-440zM190 810v70h70v-70h-70zM360 810v70h70v-70h-70z" />
    <glyph glyph-name="Igrave" unicode="&#xcc;" horiz-adv-x="240" 
d="M90 0v700h60v-700h-60zM90 775l-105 130h70l90 -130h-55z" />
    <glyph glyph-name="Iacute" unicode="&#xcd;" horiz-adv-x="240" 
d="M90 0v700h60v-700h-60zM95 775l90 130h70l-105 -130h-55z" />
    <glyph glyph-name="Icircumflex" unicode="&#xce;" horiz-adv-x="240" 
d="M90 0v700h60v-700h-60zM-25 775l113 130h64l113 -130h-65l-80 93l-80 -93h-65z" />
    <glyph glyph-name="Idieresis" unicode="&#xcf;" horiz-adv-x="240" 
d="M90 0v700h60v-700h-60zM0 810v70h70v-70h-70zM170 810v70h70v-70h-70z" />
    <glyph glyph-name="Eth" unicode="&#xd0;" horiz-adv-x="730" 
d="M115 0v325h-95v55h95v320h225q143 0 239 -99t96 -251t-96 -251t-239 -99h-225zM175 60h165q124 0 199.5 78t75.5 212t-75.5 212t-199.5 78h-165v-260h195v-55h-195v-265z" />
    <glyph glyph-name="Ntilde" unicode="&#xd1;" horiz-adv-x="715" 
d="M90 0v700h110l345 -630h20v630h60v-700h-110l-345 630h-20v-630h-60zM255 790h-50q0 44 25.5 72t64.5 28q30 0 68.5 -25t56.5 -25q16 0 28 14t12 36h50q0 -44 -25.5 -72t-64.5 -28q-30 0 -68.5 25t-56.5 25q-16 0 -28 -14t-12 -36z" />
    <glyph glyph-name="Ograve" unicode="&#xd2;" horiz-adv-x="770" 
d="M385 710q141 0 235.5 -100.5t94.5 -259.5t-94.5 -259.5t-235.5 -100.5t-235.5 100.5t-94.5 259.5t94.5 259.5t235.5 100.5zM385 50q115 0 192.5 83.5t77.5 216.5t-77.5 216.5t-192.5 83.5t-192.5 -83.5t-77.5 -216.5t77.5 -216.5t192.5 -83.5zM355 775l-105 130h70
l90 -130h-55z" />
    <glyph glyph-name="Oacute" unicode="&#xd3;" horiz-adv-x="770" 
d="M385 710q141 0 235.5 -100.5t94.5 -259.5t-94.5 -259.5t-235.5 -100.5t-235.5 100.5t-94.5 259.5t94.5 259.5t235.5 100.5zM385 50q115 0 192.5 83.5t77.5 216.5t-77.5 216.5t-192.5 83.5t-192.5 -83.5t-77.5 -216.5t77.5 -216.5t192.5 -83.5zM360 775l90 130h70
l-105 -130h-55z" />
    <glyph glyph-name="Ocircumflex" unicode="&#xd4;" horiz-adv-x="770" 
d="M385 710q141 0 235.5 -100.5t94.5 -259.5t-94.5 -259.5t-235.5 -100.5t-235.5 100.5t-94.5 259.5t94.5 259.5t235.5 100.5zM385 50q115 0 192.5 83.5t77.5 216.5t-77.5 216.5t-192.5 83.5t-192.5 -83.5t-77.5 -216.5t77.5 -216.5t192.5 -83.5zM240 775l113 130h64
l113 -130h-65l-80 93l-80 -93h-65z" />
    <glyph glyph-name="Otilde" unicode="&#xd5;" horiz-adv-x="770" 
d="M385 710q141 0 235.5 -100.5t94.5 -259.5t-94.5 -259.5t-235.5 -100.5t-235.5 100.5t-94.5 259.5t94.5 259.5t235.5 100.5zM385 50q115 0 192.5 83.5t77.5 216.5t-77.5 216.5t-192.5 83.5t-192.5 -83.5t-77.5 -216.5t77.5 -216.5t192.5 -83.5zM285 790h-50q0 44 25.5 72
t64.5 28q30 0 68.5 -25t56.5 -25q16 0 28 14t12 36h50q0 -44 -25.5 -72t-64.5 -28q-30 0 -68.5 25t-56.5 25q-16 0 -28 -14t-12 -36z" />
    <glyph glyph-name="Odieresis" unicode="&#xd6;" horiz-adv-x="770" 
d="M385 710q141 0 235.5 -100.5t94.5 -259.5t-94.5 -259.5t-235.5 -100.5t-235.5 100.5t-94.5 259.5t94.5 259.5t235.5 100.5zM385 50q115 0 192.5 83.5t77.5 216.5t-77.5 216.5t-192.5 83.5t-192.5 -83.5t-77.5 -216.5t77.5 -216.5t192.5 -83.5zM265 810v70h70v-70h-70z
M435 810v70h70v-70h-70z" />
    <glyph glyph-name="multiply" unicode="&#xd7;" horiz-adv-x="530" 
d="M80 150l145 145l-145 145l40 40l145 -145l145 145l40 -40l-145 -145l145 -145l-40 -40l-145 145l-145 -145z" />
    <glyph glyph-name="Oslash" unicode="&#xd8;" horiz-adv-x="770" 
d="M150 -35l45 85q-66 49 -103 126t-37 174q0 159 94.5 259.5t235.5 100.5q77 0 140 -31l30 56h65l-45 -86q140 -104 140 -299q0 -159 -94.5 -259.5t-235.5 -100.5q-75 0 -141 31l-29 -56h-65zM546 595l-274 -521q51 -24 113 -24q115 0 192.5 83.5t77.5 216.5
q0 160 -109 245zM223 105l274 520q-51 25 -112 25q-115 0 -192.5 -83.5t-77.5 -216.5q0 -161 108 -245z" />
    <glyph glyph-name="Ugrave" unicode="&#xd9;" horiz-adv-x="700" 
d="M80 275v425h60v-425q0 -101 59.5 -163t150.5 -62t150.5 62t59.5 163v425h60v-425q0 -127 -76 -206t-194 -79t-194 79t-76 206zM320 775l-105 130h70l90 -130h-55z" />
    <glyph glyph-name="Uacute" unicode="&#xda;" horiz-adv-x="700" 
d="M80 275v425h60v-425q0 -101 59.5 -163t150.5 -62t150.5 62t59.5 163v425h60v-425q0 -127 -76 -206t-194 -79t-194 79t-76 206zM325 775l90 130h70l-105 -130h-55z" />
    <glyph glyph-name="Ucircumflex" unicode="&#xdb;" horiz-adv-x="700" 
d="M80 275v425h60v-425q0 -101 59.5 -163t150.5 -62t150.5 62t59.5 163v425h60v-425q0 -127 -76 -206t-194 -79t-194 79t-76 206zM205 775l113 130h64l113 -130h-65l-80 93l-80 -93h-65z" />
    <glyph glyph-name="Udieresis" unicode="&#xdc;" horiz-adv-x="700" 
d="M80 275v425h60v-425q0 -101 59.5 -163t150.5 -62t150.5 62t59.5 163v425h60v-425q0 -127 -76 -206t-194 -79t-194 79t-76 206zM230 810v70h70v-70h-70zM400 810v70h70v-70h-70z" />
    <glyph glyph-name="Yacute" unicode="&#xdd;" horiz-adv-x="590" 
d="M265 0v263l-260 437h67l213 -360h20l213 360h67l-260 -437v-263h-60zM270 775l90 130h70l-105 -130h-55z" />
    <glyph glyph-name="Thorn" unicode="&#xde;" horiz-adv-x="695" 
d="M150 220h300q60 0 97.5 36.5t37.5 93.5t-37.5 93.5t-97.5 36.5h-300v-260zM90 0v700h60v-160h300q86 0 140.5 -53.5t54.5 -136.5t-54.5 -136.5t-140.5 -53.5h-300v-160h-60z" />
    <glyph glyph-name="germandbls" unicode="&#xdf;" horiz-adv-x="555" 
d="M80 0v515q0 87 55 141t145 54q93 0 149 -53t56 -137q0 -76 -50 -124q-23 -22 -50 -33v-5q36 -11 62 -31q63 -49 63 -132q0 -85 -62 -140t-168 -55h-30v60h30q84 0 127 36.5t43 98.5q0 59 -42 94.5t-123 35.5h-35v60h30q66 0 105.5 37t39.5 98q0 58 -39 94t-106 36
q-63 0 -101.5 -37.5t-38.5 -97.5v-515h-60z" />
    <glyph glyph-name="agrave" unicode="&#xe0;" horiz-adv-x="535" 
d="M405 0l-10 70h-5q-15 -21 -41 -40q-56 -40 -124 -40q-77 0 -123.5 43t-46.5 112q0 71 50 113t145 42h145v20q0 130 -130 130q-59 0 -94.5 -26t-40.5 -69h-60q9 67 59 111t136 44q91 0 140.5 -49.5t49.5 -140.5v-320h-50zM395 220v25h-145q-66 0 -100.5 -28t-34.5 -72
q0 -43 29 -69t81 -26q79 0 124.5 45.5t45.5 124.5zM240 585l-105 130h70l90 -130h-55z" />
    <glyph glyph-name="aacute" unicode="&#xe1;" horiz-adv-x="535" 
d="M405 0l-10 70h-5q-15 -21 -41 -40q-56 -40 -124 -40q-77 0 -123.5 43t-46.5 112q0 71 50 113t145 42h145v20q0 130 -130 130q-59 0 -94.5 -26t-40.5 -69h-60q9 67 59 111t136 44q91 0 140.5 -49.5t49.5 -140.5v-320h-50zM395 220v25h-145q-66 0 -100.5 -28t-34.5 -72
q0 -43 29 -69t81 -26q79 0 124.5 45.5t45.5 124.5zM240 585l90 130h70l-105 -130h-55z" />
    <glyph glyph-name="acircumflex" unicode="&#xe2;" horiz-adv-x="535" 
d="M405 0l-10 70h-5q-15 -21 -41 -40q-56 -40 -124 -40q-77 0 -123.5 43t-46.5 112q0 71 50 113t145 42h145v20q0 130 -130 130q-59 0 -94.5 -26t-40.5 -69h-60q9 67 59 111t136 44q91 0 140.5 -49.5t49.5 -140.5v-320h-50zM395 220v25h-145q-66 0 -100.5 -28t-34.5 -72
q0 -43 29 -69t81 -26q79 0 124.5 45.5t45.5 124.5zM120 585l113 130h64l113 -130h-65l-80 93l-80 -93h-65z" />
    <glyph glyph-name="atilde" unicode="&#xe3;" horiz-adv-x="535" 
d="M405 0l-10 70h-5q-15 -21 -41 -40q-56 -40 -124 -40q-77 0 -123.5 43t-46.5 112q0 71 50 113t145 42h145v20q0 130 -130 130q-59 0 -94.5 -26t-40.5 -69h-60q9 67 59 111t136 44q91 0 140.5 -49.5t49.5 -140.5v-320h-50zM395 220v25h-145q-66 0 -100.5 -28t-34.5 -72
q0 -43 29 -69t81 -26q79 0 124.5 45.5t45.5 124.5zM165 600h-50q0 44 25.5 72t64.5 28q30 0 68.5 -25t56.5 -25q16 0 28 14t12 36h50q0 -44 -25.5 -72t-64.5 -28q-30 0 -68.5 25t-56.5 25q-16 0 -28 -14t-12 -36z" />
    <glyph glyph-name="adieresis" unicode="&#xe4;" horiz-adv-x="535" 
d="M405 0l-10 70h-5q-15 -21 -41 -40q-56 -40 -124 -40q-77 0 -123.5 43t-46.5 112q0 71 50 113t145 42h145v20q0 130 -130 130q-59 0 -94.5 -26t-40.5 -69h-60q9 67 59 111t136 44q91 0 140.5 -49.5t49.5 -140.5v-320h-50zM395 220v25h-145q-66 0 -100.5 -28t-34.5 -72
q0 -43 29 -69t81 -26q79 0 124.5 45.5t45.5 124.5zM145 615v70h70v-70h-70zM315 615v70h70v-70h-70z" />
    <glyph glyph-name="aring" unicode="&#xe5;" horiz-adv-x="535" 
d="M405 0l-10 70h-5q-15 -21 -41 -40q-56 -40 -124 -40q-77 0 -123.5 43t-46.5 112q0 71 50 113t145 42h145v20q0 130 -130 130q-59 0 -94.5 -26t-40.5 -69h-60q9 67 59 111t136 44q91 0 140.5 -49.5t49.5 -140.5v-320h-50zM395 220v25h-145q-66 0 -100.5 -28t-34.5 -72
q0 -43 29 -69t81 -26q79 0 124.5 45.5t45.5 124.5zM175 660q0 38 26 64t64 26t64 -26t26 -64t-26 -64t-64 -26t-64 26t-26 64zM265 615q22 0 33.5 12.5t11.5 32.5t-11.5 32.5t-33.5 12.5t-33.5 -12.5t-11.5 -32.5t11.5 -32.5t33.5 -12.5z" />
    <glyph glyph-name="ae" unicode="&#xe6;" horiz-adv-x="895" 
d="M130 355h-60q9 67 59 111t136 44q120 0 170 -110q65 110 195 110q92 0 156 -70t64 -180q0 -11 -2 -25q-1 -3 -1 -10h-392q12 -81 58.5 -128t111.5 -47q98 0 145 90h65q-54 -150 -210 -150q-91 0 -154 65q-28 28 -46 65q-15 -35 -44 -65q-61 -65 -156 -65q-76 0 -123 41.5
t-47 103.5q0 70 48.5 110t146.5 40h145v35q0 130 -130 130q-57 0 -94 -26.5t-41 -68.5zM395 220v5h-145q-69 0 -102 -24.5t-33 -65.5q0 -36 29.5 -60.5t80.5 -24.5q79 0 124.5 45.5t45.5 124.5zM456 285h334q-6 73 -53 119t-112 46q-64 0 -113.5 -47.5t-55.5 -117.5z" />
    <glyph glyph-name="ccedilla" unicode="&#xe7;" horiz-adv-x="540" 
d="M220 -200v45h40q45 0 45 35t-45 35h-25v35l18 41q-92 8 -150 78.5t-58 180.5q0 118 65.5 189t169.5 71q83 0 142 -45.5t78 -124.5h-65q-11 40 -49.5 75t-105.5 35q-77 0 -126 -54t-49 -146t49 -146t126 -54q66 0 105 37t50 78h65q-17 -77 -69 -122t-128 -52l-18 -41
q30 -4 50 -24t20 -46q0 -35 -24.5 -57.5t-65.5 -22.5h-45z" />
    <glyph glyph-name="egrave" unicode="&#xe8;" horiz-adv-x="555" 
d="M105 280h345q-4 75 -51.5 122.5t-118.5 47.5q-72 0 -119.5 -45.5t-55.5 -124.5zM430 140h65q-22 -62 -74.5 -106t-140.5 -44q-104 0 -169.5 71t-65.5 189t65.5 189t169.5 71q99 0 164.5 -69.5t65.5 -180.5q0 -15 -2 -29q-1 -4 -1 -11h-402q8 -77 57 -123.5t118 -46.5
q55 0 93 27t57 63zM250 585l-105 130h70l90 -130h-55z" />
    <glyph glyph-name="eacute" unicode="&#xe9;" horiz-adv-x="555" 
d="M105 280h345q-4 75 -51.5 122.5t-118.5 47.5q-72 0 -119.5 -45.5t-55.5 -124.5zM430 140h65q-22 -62 -74.5 -106t-140.5 -44q-104 0 -169.5 71t-65.5 189t65.5 189t169.5 71q99 0 164.5 -69.5t65.5 -180.5q0 -15 -2 -29q-1 -4 -1 -11h-402q8 -77 57 -123.5t118 -46.5
q55 0 93 27t57 63zM250 585l90 130h70l-105 -130h-55z" />
    <glyph glyph-name="ecircumflex" unicode="&#xea;" horiz-adv-x="555" 
d="M105 280h345q-4 75 -51.5 122.5t-118.5 47.5q-72 0 -119.5 -45.5t-55.5 -124.5zM430 140h65q-22 -62 -74.5 -106t-140.5 -44q-104 0 -169.5 71t-65.5 189t65.5 189t169.5 71q99 0 164.5 -69.5t65.5 -180.5q0 -15 -2 -29q-1 -4 -1 -11h-402q8 -77 57 -123.5t118 -46.5
q55 0 93 27t57 63zM135 585l113 130h64l113 -130h-65l-80 93l-80 -93h-65z" />
    <glyph glyph-name="edieresis" unicode="&#xeb;" horiz-adv-x="555" 
d="M105 280h345q-4 75 -51.5 122.5t-118.5 47.5q-72 0 -119.5 -45.5t-55.5 -124.5zM430 140h65q-22 -62 -74.5 -106t-140.5 -44q-104 0 -169.5 71t-65.5 189t65.5 189t169.5 71q99 0 164.5 -69.5t65.5 -180.5q0 -15 -2 -29q-1 -4 -1 -11h-402q8 -77 57 -123.5t118 -46.5
q55 0 93 27t57 63zM160 615v70h70v-70h-70zM330 615v70h70v-70h-70z" />
    <glyph glyph-name="igrave" unicode="&#xec;" horiz-adv-x="220" 
d="M80 0v500h60v-500h-60zM80 585l-105 130h70l90 -130h-55z" />
    <glyph glyph-name="iacute" unicode="&#xed;" horiz-adv-x="220" 
d="M80 0v500h60v-500h-60zM85 585l90 130h70l-105 -130h-55z" />
    <glyph glyph-name="icircumflex" unicode="&#xee;" horiz-adv-x="220" 
d="M80 0v500h60v-500h-60zM-35 585l113 130h64l113 -130h-65l-80 93l-80 -93h-65z" />
    <glyph glyph-name="idieresis" unicode="&#xef;" horiz-adv-x="220" 
d="M80 0v500h60v-500h-60zM-10 615v70h70v-70h-70zM160 615v70h70v-70h-70z" />
    <glyph glyph-name="eth" unicode="&#xf0;" horiz-adv-x="545" 
d="M270 50q72 0 118.5 48.5t46.5 126.5t-46.5 126.5t-118.5 48.5t-118.5 -48.5t-46.5 -126.5t46.5 -126.5t118.5 -48.5zM167 505l-25 44l109 58q-18 15 -77 57l-34 21l50 30q15 -9 37 -24q36 -24 76 -59l117 63l25 -45l-104 -54q154 -158 154 -356q0 -114 -63 -182t-162 -68
q-98 0 -161.5 65.5t-63.5 169.5t63.5 169.5t161.5 65.5q33 0 62.5 -12t38.5 -19t29 -24h5q-34 83 -115 166z" />
    <glyph glyph-name="ntilde" unicode="&#xf1;" horiz-adv-x="580" 
d="M80 0v500h50l10 -65h5q15 22 36 37q50 38 119 38q87 0 143.5 -58.5t56.5 -151.5v-300h-60v300q0 68 -40.5 109t-104.5 41q-68 0 -111.5 -43t-43.5 -107v-300h-60zM195 600h-50q0 44 25.5 72t64.5 28q30 0 68.5 -25t56.5 -25q16 0 28 14t12 36h50q0 -44 -25.5 -72
t-64.5 -28q-30 0 -68.5 25t-56.5 25q-16 0 -28 -14t-12 -36z" />
    <glyph glyph-name="ograve" unicode="&#xf2;" 
d="M280 -10q-99 0 -167 73t-68 187t68 187t167 73t167 -73t68 -187t-68 -187t-167 -73zM455 250q0 88 -51 144t-124 56t-124 -56t-51 -144t51 -144t124 -56t124 56t51 144zM255 585l-105 130h70l90 -130h-55z" />
    <glyph glyph-name="oacute" unicode="&#xf3;" 
d="M280 -10q-99 0 -167 73t-68 187t68 187t167 73t167 -73t68 -187t-68 -187t-167 -73zM455 250q0 88 -51 144t-124 56t-124 -56t-51 -144t51 -144t124 -56t124 56t51 144zM250 585l90 130h70l-105 -130h-55z" />
    <glyph glyph-name="ocircumflex" unicode="&#xf4;" 
d="M280 -10q-99 0 -167 73t-68 187t68 187t167 73t167 -73t68 -187t-68 -187t-167 -73zM455 250q0 88 -51 144t-124 56t-124 -56t-51 -144t51 -144t124 -56t124 56t51 144zM135 585l113 130h64l113 -130h-65l-80 93l-80 -93h-65z" />
    <glyph glyph-name="otilde" unicode="&#xf5;" 
d="M280 -10q-99 0 -167 73t-68 187t68 187t167 73t167 -73t68 -187t-68 -187t-167 -73zM455 250q0 88 -51 144t-124 56t-124 -56t-51 -144t51 -144t124 -56t124 56t51 144zM180 600h-50q0 44 25.5 72t64.5 28q30 0 68.5 -25t56.5 -25q16 0 28 14t12 36h50q0 -44 -25.5 -72
t-64.5 -28q-30 0 -68.5 25t-56.5 25q-16 0 -28 -14t-12 -36z" />
    <glyph glyph-name="odieresis" unicode="&#xf6;" 
d="M280 -10q-99 0 -167 73t-68 187t68 187t167 73t167 -73t68 -187t-68 -187t-167 -73zM455 250q0 88 -51 144t-124 56t-124 -56t-51 -144t51 -144t124 -56t124 56t51 144zM160 615v70h70v-70h-70zM330 615v70h70v-70h-70z" />
    <glyph glyph-name="divide" unicode="&#xf7;" horiz-adv-x="530" 
d="M65 265v55h400v-55h-400zM265 175q17 0 27.5 -10.5t10.5 -26.5q0 -17 -10.5 -27.5t-27.5 -10.5t-27.5 10.5t-10.5 27.5q0 16 10.5 26.5t27.5 10.5zM227 448q0 16 10.5 26.5t27.5 10.5t27.5 -10.5t10.5 -26.5q0 -17 -10.5 -27.5t-27.5 -10.5t-27.5 10.5t-10.5 27.5z" />
    <glyph glyph-name="oslash" unicode="&#xf8;" 
d="M95 -35l40 76q-90 72 -90 209q0 114 68 187t167 73q52 0 95 -21l25 46h65l-41 -76q91 -76 91 -209q0 -114 -68 -187t-167 -73q-50 0 -96 20l-24 -45h-65zM394 403l-181 -339q33 -14 67 -14q73 0 124 56t51 144q0 95 -61 153zM165 96l182 340q-34 14 -67 14
q-73 0 -124 -56t-51 -144q0 -97 60 -154z" />
    <glyph glyph-name="ugrave" unicode="&#xf9;" horiz-adv-x="580" 
d="M80 200v300h60v-300q0 -68 40.5 -109t104.5 -41q68 0 111.5 43t43.5 107v300h60v-500h-50l-10 65h-5q-14 -22 -36 -38q-49 -37 -119 -37q-87 0 -143.5 58.5t-56.5 151.5zM265 585l-105 130h70l90 -130h-55z" />
    <glyph glyph-name="uacute" unicode="&#xfa;" horiz-adv-x="580" 
d="M80 200v300h60v-300q0 -68 40.5 -109t104.5 -41q68 0 111.5 43t43.5 107v300h60v-500h-50l-10 65h-5q-14 -22 -36 -38q-49 -37 -119 -37q-87 0 -143.5 58.5t-56.5 151.5zM260 585l90 130h70l-105 -130h-55z" />
    <glyph glyph-name="ucircumflex" unicode="&#xfb;" horiz-adv-x="580" 
d="M80 200v300h60v-300q0 -68 40.5 -109t104.5 -41q68 0 111.5 43t43.5 107v300h60v-500h-50l-10 65h-5q-14 -22 -36 -38q-49 -37 -119 -37q-87 0 -143.5 58.5t-56.5 151.5zM145 585l113 130h64l113 -130h-65l-80 93l-80 -93h-65z" />
    <glyph glyph-name="udieresis" unicode="&#xfc;" horiz-adv-x="580" 
d="M80 200v300h60v-300q0 -68 40.5 -109t104.5 -41q68 0 111.5 43t43.5 107v300h60v-500h-50l-10 65h-5q-14 -22 -36 -38q-49 -37 -119 -37q-87 0 -143.5 58.5t-56.5 151.5zM170 615v70h70v-70h-70zM340 615v70h70v-70h-70z" />
    <glyph glyph-name="yacute" unicode="&#xfd;" horiz-adv-x="470" 
d="M60 -200v60h85q17 0 25.5 8t14.5 24l27 76l-202 532h60l160 -425h20l150 425h60l-225 -635q-24 -65 -90 -65h-85zM210 585l90 130h70l-105 -130h-55z" />
    <glyph glyph-name="thorn" unicode="&#xfe;" horiz-adv-x="585" 
d="M310 50q74 0 122 54t48 146t-48 146t-122 54t-122 -54t-48 -146t48 -146t122 -54zM80 -200v900h60v-280h5q20 32 64 61t106 29q96 0 160.5 -71.5t64.5 -188.5t-64.5 -188.5t-160.5 -71.5q-62 0 -106 29t-64 61h-5v-280h-60z" />
    <glyph glyph-name="ydieresis" unicode="&#xff;" horiz-adv-x="470" 
d="M60 -200v60h85q17 0 25.5 8t14.5 24l27 76l-202 532h60l160 -425h20l150 425h60l-225 -635q-24 -65 -90 -65h-85zM120 615v70h70v-70h-70zM290 615v70h70v-70h-70z" />
    <glyph glyph-name="Amacron" unicode="&#x100;" horiz-adv-x="630" 
d="M5 0l265 700h90l265 -700h-60l-72 190h-356l-72 -190h-60zM160 250h310l-145 385h-20zM175 815v50h280v-50h-280z" />
    <glyph glyph-name="amacron" unicode="&#x101;" horiz-adv-x="535" 
d="M405 0l-10 70h-5q-15 -21 -41 -40q-56 -40 -124 -40q-77 0 -123.5 43t-46.5 112q0 71 50 113t145 42h145v20q0 130 -130 130q-59 0 -94.5 -26t-40.5 -69h-60q9 67 59 111t136 44q91 0 140.5 -49.5t49.5 -140.5v-320h-50zM395 220v25h-145q-66 0 -100.5 -28t-34.5 -72
q0 -43 29 -69t81 -26q79 0 124.5 45.5t45.5 124.5zM125 625v50h280v-50h-280z" />
    <glyph glyph-name="Abreve" unicode="&#x102;" horiz-adv-x="630" 
d="M5 0l265 700h90l265 -700h-60l-72 190h-356l-72 -190h-60zM160 250h310l-145 385h-20zM180 900h55q4 -33 25 -51.5t55 -18.5t55 18.5t25 51.5h55q-4 -56 -40.5 -88t-94.5 -32t-94.5 32t-40.5 88z" />
    <glyph glyph-name="abreve" unicode="&#x103;" horiz-adv-x="535" 
d="M405 0l-10 70h-5q-15 -21 -41 -40q-56 -40 -124 -40q-77 0 -123.5 43t-46.5 112q0 71 50 113t145 42h145v20q0 130 -130 130q-59 0 -94.5 -26t-40.5 -69h-60q9 67 59 111t136 44q91 0 140.5 -49.5t49.5 -140.5v-320h-50zM395 220v25h-145q-66 0 -100.5 -28t-34.5 -72
q0 -43 29 -69t81 -26q79 0 124.5 45.5t45.5 124.5zM130 710h55q4 -33 25 -51.5t55 -18.5t55 18.5t25 51.5h55q-4 -56 -40.5 -88t-94.5 -32t-94.5 32t-40.5 88z" />
    <glyph glyph-name="Aogonek" unicode="&#x104;" horiz-adv-x="630" 
d="M5 0l265 700h90l265 -700h-5q-60 -30 -60 -75q0 -35 45 -35h15v-50h-20q-41 0 -65.5 22.5t-24.5 57.5q0 28 16.5 49.5t38.5 30.5l-72 190h-356l-72 -190h-60zM160 250h310l-145 385h-20z" />
    <glyph glyph-name="aogonek" unicode="&#x105;" horiz-adv-x="535" 
d="M455 -160h-20q-41 0 -65.5 22.5t-24.5 57.5q0 28 20 52t40 28l-10 70h-5q-15 -21 -41 -40q-56 -40 -124 -40q-77 0 -123.5 43t-46.5 112q0 71 50 113t145 42h145v20q0 130 -130 130q-59 0 -94.5 -26t-40.5 -69h-60q9 67 59 111t136 44q91 0 140.5 -49.5t49.5 -140.5v-320
q-60 -30 -60 -75q0 -35 45 -35h15v-50zM395 220v25h-145q-66 0 -100.5 -28t-34.5 -72q0 -43 29 -69t81 -26q79 0 124.5 45.5t45.5 124.5z" />
    <glyph glyph-name="Cacute" unicode="&#x106;" horiz-adv-x="735" 
d="M625 230h65q-25 -94 -106 -167t-199 -73q-141 0 -235.5 100.5t-94.5 259.5t94.5 259.5t235.5 100.5q120 0 199.5 -71.5t105.5 -163.5h-65q-8 20 -18 39.5t-31 45.5t-45.5 44.5t-63 32t-82.5 13.5q-115 0 -192.5 -83.5t-77.5 -216.5t77.5 -216.5t192.5 -83.5q56 0 102 20
t73.5 51.5t42 57.5t22.5 51zM350 775l90 130h70l-105 -130h-55z" />
    <glyph glyph-name="cacute" unicode="&#x107;" horiz-adv-x="540" 
d="M435 165h65q-19 -83 -77.5 -129t-142.5 -46q-104 0 -169.5 71t-65.5 189t65.5 189t169.5 71q83 0 142 -45.5t78 -124.5h-65q-11 40 -49.5 75t-105.5 35q-77 0 -126 -54t-49 -146t49 -146t126 -54q66 0 105 37t50 78zM255 585l90 130h70l-105 -130h-55z" />
    <glyph glyph-name="Ccircumflex" unicode="&#x108;" horiz-adv-x="735" 
d="M625 230h65q-25 -94 -106 -167t-199 -73q-141 0 -235.5 100.5t-94.5 259.5t94.5 259.5t235.5 100.5q120 0 199.5 -71.5t105.5 -163.5h-65q-8 20 -18 39.5t-31 45.5t-45.5 44.5t-63 32t-82.5 13.5q-115 0 -192.5 -83.5t-77.5 -216.5t77.5 -216.5t192.5 -83.5q56 0 102 20
t73.5 51.5t42 57.5t22.5 51zM230 775l113 130h64l113 -130h-65l-80 93l-80 -93h-65z" />
    <glyph glyph-name="ccircumflex" unicode="&#x109;" horiz-adv-x="540" 
d="M435 165h65q-19 -83 -77.5 -129t-142.5 -46q-104 0 -169.5 71t-65.5 189t65.5 189t169.5 71q83 0 142 -45.5t78 -124.5h-65q-11 40 -49.5 75t-105.5 35q-77 0 -126 -54t-49 -146t49 -146t126 -54q66 0 105 37t50 78zM135 585l113 130h64l113 -130h-65l-80 93l-80 -93h-65
z" />
    <glyph glyph-name="Cdotaccent" unicode="&#x10a;" horiz-adv-x="735" 
d="M625 230h65q-25 -94 -106 -167t-199 -73q-141 0 -235.5 100.5t-94.5 259.5t94.5 259.5t235.5 100.5q120 0 199.5 -71.5t105.5 -163.5h-65q-8 20 -18 39.5t-31 45.5t-45.5 44.5t-63 32t-82.5 13.5q-115 0 -192.5 -83.5t-77.5 -216.5t77.5 -216.5t192.5 -83.5q56 0 102 20
t73.5 51.5t42 57.5t22.5 51zM345 810v70h70v-70h-70z" />
    <glyph glyph-name="cdotaccent" unicode="&#x10b;" horiz-adv-x="540" 
d="M435 165h65q-19 -83 -77.5 -129t-142.5 -46q-104 0 -169.5 71t-65.5 189t65.5 189t169.5 71q83 0 142 -45.5t78 -124.5h-65q-11 40 -49.5 75t-105.5 35q-77 0 -126 -54t-49 -146t49 -146t126 -54q66 0 105 37t50 78zM245 615v70h70v-70h-70z" />
    <glyph glyph-name="Ccaron" unicode="&#x10c;" horiz-adv-x="735" 
d="M625 230h65q-25 -94 -106 -167t-199 -73q-141 0 -235.5 100.5t-94.5 259.5t94.5 259.5t235.5 100.5q120 0 199.5 -71.5t105.5 -163.5h-65q-8 20 -18 39.5t-31 45.5t-45.5 44.5t-63 32t-82.5 13.5q-115 0 -192.5 -83.5t-77.5 -216.5t77.5 -216.5t192.5 -83.5q56 0 102 20
t73.5 51.5t42 57.5t22.5 51zM343 775l-113 130h65l80 -93l80 93h65l-113 -130h-64z" />
    <glyph glyph-name="ccaron" unicode="&#x10d;" horiz-adv-x="540" 
d="M435 165h65q-19 -83 -77.5 -129t-142.5 -46q-104 0 -169.5 71t-65.5 189t65.5 189t169.5 71q83 0 142 -45.5t78 -124.5h-65q-11 40 -49.5 75t-105.5 35q-77 0 -126 -54t-49 -146t49 -146t126 -54q66 0 105 37t50 78zM248 585l-113 130h65l80 -93l80 93h65l-113 -130h-64z
" />
    <glyph glyph-name="Dcaron" unicode="&#x10e;" horiz-adv-x="705" 
d="M150 60h165q124 0 199.5 78t75.5 212t-75.5 212t-199.5 78h-165v-580zM90 0v700h225q143 0 239 -99t96 -251t-96 -251t-239 -99h-225zM313 775l-113 130h65l80 -93l80 93h65l-113 -130h-64z" />
    <glyph glyph-name="dcaron" unicode="&#x10f;" horiz-adv-x="630" 
d="M275 50q74 0 122 54t48 146t-48 146t-122 54t-122 -54t-48 -146t48 -146t122 -54zM455 0l-10 80h-5q-65 -90 -170 -90q-96 0 -160.5 71.5t-64.5 188.5t64.5 188.5t160.5 71.5q105 0 170 -90h5v280h60v-700h-50zM570 550l35 150h65l-55 -150h-45z" />
    <glyph glyph-name="Dcroat" unicode="&#x110;" horiz-adv-x="730" 
d="M115 0v325h-95v55h95v320h225q143 0 239 -99t96 -251t-96 -251t-239 -99h-225zM175 60h165q124 0 199.5 78t75.5 212t-75.5 212t-199.5 78h-165v-260h195v-55h-195v-265z" />
    <glyph glyph-name="dslash" unicode="&#x111;" horiz-adv-x="580" 
d="M445 0l-10 75h-5q-62 -85 -165 -85q-94 0 -157 65.5t-63 169.5t63 169.5t157 65.5q103 0 165 -85h5v180h-170v60h170v85h60v-85h85v-60h-85v-555h-50zM270 50q72 0 118.5 48.5t46.5 126.5t-46.5 126.5t-118.5 48.5t-118.5 -48.5t-46.5 -126.5t46.5 -126.5t118.5 -48.5z
" />
    <glyph glyph-name="Emacron" unicode="&#x112;" horiz-adv-x="595" 
d="M90 0v700h440v-60h-380v-260h360v-60h-360v-260h380v-60h-440zM170 815v50h280v-50h-280z" />
    <glyph glyph-name="emacron" unicode="&#x113;" horiz-adv-x="555" 
d="M105 280h345q-4 75 -51.5 122.5t-118.5 47.5q-72 0 -119.5 -45.5t-55.5 -124.5zM430 140h65q-22 -62 -74.5 -106t-140.5 -44q-104 0 -169.5 71t-65.5 189t65.5 189t169.5 71q99 0 164.5 -69.5t65.5 -180.5q0 -15 -2 -29q-1 -4 -1 -11h-402q8 -77 57 -123.5t118 -46.5
q55 0 93 27t57 63zM140 625v50h280v-50h-280z" />
    <glyph glyph-name="Ebreve" unicode="&#x114;" horiz-adv-x="595" 
d="M90 0v700h440v-60h-380v-260h360v-60h-360v-260h380v-60h-440zM175 905h55q4 -33 25 -51.5t55 -18.5t55 18.5t25 51.5h55q-4 -56 -40.5 -88t-94.5 -32t-94.5 32t-40.5 88z" />
    <glyph glyph-name="ebreve" unicode="&#x115;" horiz-adv-x="555" 
d="M105 280h345q-4 75 -51.5 122.5t-118.5 47.5q-72 0 -119.5 -45.5t-55.5 -124.5zM430 140h65q-22 -62 -74.5 -106t-140.5 -44q-104 0 -169.5 71t-65.5 189t65.5 189t169.5 71q99 0 164.5 -69.5t65.5 -180.5q0 -15 -2 -29q-1 -4 -1 -11h-402q8 -77 57 -123.5t118 -46.5
q55 0 93 27t57 63zM145 710h55q4 -33 25 -51.5t55 -18.5t55 18.5t25 51.5h55q-4 -56 -40.5 -88t-94.5 -32t-94.5 32t-40.5 88z" />
    <glyph glyph-name="Edotaccent" unicode="&#x116;" horiz-adv-x="595" 
d="M90 0v700h440v-60h-380v-260h360v-60h-360v-260h380v-60h-440zM275 810v70h70v-70h-70z" />
    <glyph glyph-name="edotaccent" unicode="&#x117;" horiz-adv-x="555" 
d="M105 280h345q-4 75 -51.5 122.5t-118.5 47.5q-72 0 -119.5 -45.5t-55.5 -124.5zM430 140h65q-22 -62 -74.5 -106t-140.5 -44q-104 0 -169.5 71t-65.5 189t65.5 189t169.5 71q99 0 164.5 -69.5t65.5 -180.5q0 -15 -2 -29q-1 -4 -1 -11h-402q8 -77 57 -123.5t118 -46.5
q55 0 93 27t57 63zM245 615v70h70v-70h-70z" />
    <glyph glyph-name="Eogonek" unicode="&#x118;" horiz-adv-x="595" 
d="M90 0v700h440v-60h-380v-260h360v-60h-360v-260h380v-60q-60 -30 -60 -75q0 -35 45 -35h15v-50h-20q-41 0 -65.5 22.5t-24.5 57.5q0 28 16.5 49.5t38.5 30.5h-385z" />
    <glyph glyph-name="eogonek" unicode="&#x119;" horiz-adv-x="555" 
d="M335 -160h-20q-41 0 -65.5 22.5t-24.5 57.5q0 42 38 71q-97 6 -157.5 76t-60.5 183q0 118 65.5 189t169.5 71q99 0 164.5 -69.5t65.5 -180.5q0 -15 -2 -29q-1 -4 -1 -11h-402q8 -77 57 -123.5t118 -46.5q55 0 93 27t57 63h65q-19 -52 -62 -94t-111 -53q-47 -26 -47 -68
q0 -35 45 -35h15v-50zM105 280h345q-4 75 -51.5 122.5t-118.5 47.5q-72 0 -119.5 -45.5t-55.5 -124.5z" />
    <glyph glyph-name="Ecaron" unicode="&#x11a;" horiz-adv-x="595" 
d="M90 0v700h440v-60h-380v-260h360v-60h-360v-260h380v-60h-440zM278 775l-113 130h65l80 -93l80 93h65l-113 -130h-64z" />
    <glyph glyph-name="ecaron" unicode="&#x11b;" horiz-adv-x="555" 
d="M105 280h345q-4 75 -51.5 122.5t-118.5 47.5q-72 0 -119.5 -45.5t-55.5 -124.5zM430 140h65q-22 -62 -74.5 -106t-140.5 -44q-104 0 -169.5 71t-65.5 189t65.5 189t169.5 71q99 0 164.5 -69.5t65.5 -180.5q0 -15 -2 -29q-1 -4 -1 -11h-402q8 -77 57 -123.5t118 -46.5
q55 0 93 27t57 63zM248 585l-113 130h65l80 -93l80 93h65l-113 -130h-64z" />
    <glyph glyph-name="Gcircumflex" unicode="&#x11c;" horiz-adv-x="770" 
d="M645 0l-10 115h-5q-23 -35 -59 -63q-80 -62 -186 -62q-141 0 -235.5 100.5t-94.5 259.5t94.5 259.5t235.5 100.5q65 0 121 -22.5t92.5 -58t59 -71t32.5 -68.5h-65q-14 35 -41 68.5t-80.5 62.5t-118.5 29q-115 0 -192.5 -83.5t-77.5 -216.5t77.5 -216.5t192.5 -83.5
q103 0 176.5 69t73.5 161v15h-230v60h290v-355h-50zM235 775l113 130h64l113 -130h-65l-80 93l-80 -93h-65z" />
    <glyph glyph-name="gcircumflex" unicode="&#x11d;" horiz-adv-x="585" 
d="M275 80q73 0 121.5 52t48.5 133t-48.5 133t-121.5 52t-121.5 -52t-48.5 -133t48.5 -133t121.5 -52zM70 -40h60q4 -48 44 -79t111 -31q74 0 117 40.5t43 109.5v110h-5q-65 -90 -170 -90q-95 0 -160 69t-65 176t65 176t160 69q105 0 170 -90h5l10 80h50v-500
q0 -94 -59.5 -152t-160.5 -58q-94 0 -151.5 49.5t-63.5 120.5zM145 585l113 130h64l113 -130h-65l-80 93l-80 -93h-65z" />
    <glyph glyph-name="Gbreve" unicode="&#x11e;" horiz-adv-x="770" 
d="M645 0l-10 115h-5q-23 -35 -59 -63q-80 -62 -186 -62q-141 0 -235.5 100.5t-94.5 259.5t94.5 259.5t235.5 100.5q65 0 121 -22.5t92.5 -58t59 -71t32.5 -68.5h-65q-14 35 -41 68.5t-80.5 62.5t-118.5 29q-115 0 -192.5 -83.5t-77.5 -216.5t77.5 -216.5t192.5 -83.5
q103 0 176.5 69t73.5 161v15h-230v60h290v-355h-50zM245 905h55q4 -33 25 -51.5t55 -18.5t55 18.5t25 51.5h55q-4 -56 -40.5 -88t-94.5 -32t-94.5 32t-40.5 88z" />
    <glyph glyph-name="gbreve" unicode="&#x11f;" horiz-adv-x="585" 
d="M275 80q73 0 121.5 52t48.5 133t-48.5 133t-121.5 52t-121.5 -52t-48.5 -133t48.5 -133t121.5 -52zM70 -40h60q4 -48 44 -79t111 -31q74 0 117 40.5t43 109.5v110h-5q-65 -90 -170 -90q-95 0 -160 69t-65 176t65 176t160 69q105 0 170 -90h5l10 80h50v-500
q0 -94 -59.5 -152t-160.5 -58q-94 0 -151.5 49.5t-63.5 120.5zM155 710h55q4 -33 25 -51.5t55 -18.5t55 18.5t25 51.5h55q-4 -56 -40.5 -88t-94.5 -32t-94.5 32t-40.5 88z" />
    <glyph glyph-name="Gdotaccent" unicode="&#x120;" horiz-adv-x="770" 
d="M645 0l-10 115h-5q-23 -35 -59 -63q-80 -62 -186 -62q-141 0 -235.5 100.5t-94.5 259.5t94.5 259.5t235.5 100.5q65 0 121 -22.5t92.5 -58t59 -71t32.5 -68.5h-65q-14 35 -41 68.5t-80.5 62.5t-118.5 29q-115 0 -192.5 -83.5t-77.5 -216.5t77.5 -216.5t192.5 -83.5
q103 0 176.5 69t73.5 161v15h-230v60h290v-355h-50zM350 810v70h70v-70h-70z" />
    <glyph glyph-name="gdotaccent" unicode="&#x121;" horiz-adv-x="585" 
d="M275 80q73 0 121.5 52t48.5 133t-48.5 133t-121.5 52t-121.5 -52t-48.5 -133t48.5 -133t121.5 -52zM70 -40h60q4 -48 44 -79t111 -31q74 0 117 40.5t43 109.5v110h-5q-65 -90 -170 -90q-95 0 -160 69t-65 176t65 176t160 69q105 0 170 -90h5l10 80h50v-500
q0 -94 -59.5 -152t-160.5 -58q-94 0 -151.5 49.5t-63.5 120.5zM255 615v70h70v-70h-70z" />
    <glyph glyph-name="Gcommaaccent" unicode="&#x122;" horiz-adv-x="770" 
d="M645 0l-10 115h-5q-23 -35 -59 -63q-80 -62 -186 -62q-141 0 -235.5 100.5t-94.5 259.5t94.5 259.5t235.5 100.5q65 0 121 -22.5t92.5 -58t59 -71t32.5 -68.5h-65q-14 35 -41 68.5t-80.5 62.5t-118.5 29q-115 0 -192.5 -83.5t-77.5 -216.5t77.5 -216.5t192.5 -83.5
q103 0 176.5 69t73.5 161v15h-230v60h290v-355h-50zM320 -230l30 150h70l-55 -150h-45z" />
    <glyph glyph-name="gcommaaccent" unicode="&#x123;" horiz-adv-x="585" 
d="M250 585l55 150h45l-30 -150h-70zM275 80q73 0 121.5 52t48.5 133t-48.5 133t-121.5 52t-121.5 -52t-48.5 -133t48.5 -133t121.5 -52zM70 -40h60q4 -48 44 -79t111 -31q74 0 117 40.5t43 109.5v110h-5q-65 -90 -170 -90q-95 0 -160 69t-65 176t65 176t160 69
q105 0 170 -90h5l10 80h50v-500q0 -94 -59.5 -152t-160.5 -58q-94 0 -151.5 49.5t-63.5 120.5z" />
    <glyph glyph-name="Hcircumflex" unicode="&#x124;" horiz-adv-x="715" 
d="M90 0v700h60v-315h415v315h60v-700h-60v325h-415v-325h-60zM215 775l113 130h64l113 -130h-65l-80 93l-80 -93h-65z" />
    <glyph glyph-name="hcircumflex" unicode="&#x125;" horiz-adv-x="585" 
d="M85 0v700h60v-265h5q15 22 36 37q50 38 119 38q87 0 143.5 -58.5t56.5 -151.5v-300h-60v300q0 68 -40.5 109t-104.5 41q-68 0 -111.5 -43t-43.5 -107v-300h-60zM160 775l113 130h64l113 -130h-65l-80 93l-80 -93h-65z" />
    <glyph glyph-name="Hbar" unicode="&#x126;" horiz-adv-x="750" 
d="M105 0v510h-85v60h85v130h60v-130h420v130h60v-130h85v-60h-85v-510h-60v325h-420v-325h-60zM165 385h420v125h-420v-125z" />
    <glyph glyph-name="hbar" unicode="&#x127;" horiz-adv-x="580" 
d="M85 0v560h-85v55h85v85h60v-85h170v-55h-170v-185h5q15 22 36 37q50 38 119 38q87 0 143.5 -58.5t56.5 -151.5v-240h-60v240q0 68 -40.5 109t-104.5 41q-68 0 -111.5 -43t-43.5 -107v-240h-60z" />
    <glyph glyph-name="Imacron" unicode="&#x12a;" horiz-adv-x="240" 
d="M90 0v700h60v-700h-60zM-20 815v50h280v-50h-280z" />
    <glyph glyph-name="imacron" unicode="&#x12b;" horiz-adv-x="220" 
d="M80 0v500h60v-500h-60zM-30 625v50h280v-50h-280z" />
    <glyph glyph-name="Ibreve" unicode="&#x12c;" horiz-adv-x="240" 
d="M90 0v700h60v-700h-60zM-15 905h55q4 -33 25 -51.5t55 -18.5t55 18.5t25 51.5h55q-4 -56 -40.5 -88t-94.5 -32t-94.5 32t-40.5 88z" />
    <glyph glyph-name="ibreve" unicode="&#x12d;" horiz-adv-x="220" 
d="M80 0v500h60v-500h-60zM-25 710h55q4 -33 25 -51.5t55 -18.5t55 18.5t25 51.5h55q-4 -56 -40.5 -88t-94.5 -32t-94.5 32t-40.5 88z" />
    <glyph glyph-name="Iogonek" unicode="&#x12e;" horiz-adv-x="240" 
d="M145 -160h-20q-41 0 -65.5 22.5t-24.5 57.5q0 28 16.5 49.5t38.5 30.5v700h60v-700h-5q-60 -30 -60 -75q0 -35 45 -35h15v-50z" />
    <glyph glyph-name="iogonek" unicode="&#x12f;" horiz-adv-x="220" 
d="M75 615v70h70v-70h-70zM135 -160h-20q-41 0 -65.5 22.5t-24.5 57.5q0 28 16.5 49.5t38.5 30.5v500h60v-500h-5q-60 -30 -60 -75q0 -35 45 -35h15v-50z" />
    <glyph glyph-name="Idot" unicode="&#x130;" horiz-adv-x="240" 
d="M90 0v700h60v-700h-60zM85 810v70h70v-70h-70z" />
    <glyph glyph-name="dotlessi" unicode="&#x131;" horiz-adv-x="220" 
d="M80 0v500h60v-500h-60z" />
    <glyph glyph-name="uni0132" unicode="&#x132;" horiz-adv-x="580" 
d="M90 0v700h60v-700h-60zM205 0v60h170q60 0 60 55v585h60v-590q0 -110 -115 -110h-175z" />
    <glyph glyph-name="uni0133" unicode="&#x133;" horiz-adv-x="425" 
d="M80 0v500h60v-500h-60zM75 615v70h70v-70h-70zM170 -200v60h80q35 0 35 35v605h60v-615q0 -39 -24 -62t-66 -23h-85zM280 615v70h70v-70h-70z" />
    <glyph glyph-name="Jcircumflex" unicode="&#x134;" horiz-adv-x="390" 
d="M15 0v60h170q60 0 60 55v585h60v-590q0 -110 -115 -110h-175zM130 775l113 130h64l113 -130h-65l-80 93l-80 -93h-65z" />
    <glyph glyph-name="jcircumflex" unicode="&#x135;" horiz-adv-x="220" 
d="M-35 -200v60h80q35 0 35 35v605h60v-615q0 -39 -24 -62t-66 -23h-85zM-35 585l113 130h64l113 -130h-65l-80 93l-80 -93h-65z" />
    <glyph glyph-name="Kcommaaccent" unicode="&#x136;" horiz-adv-x="565" 
d="M90 0v700h60v-330l315 330h80l-330 -345l350 -355h-80l-335 340v-340h-60zM240 -230l30 150h70l-55 -150h-45z" />
    <glyph glyph-name="kcommaaccent" unicode="&#x137;" horiz-adv-x="480" 
d="M85 0v700h60v-430l243 230h82l-260 -245l270 -255h-82l-253 240v-240h-60zM195 -230l30 150h70l-55 -150h-45z" />
    <glyph glyph-name="Lacute" unicode="&#x139;" horiz-adv-x="535" 
d="M90 0v700h60v-640h360v-60h-420zM95 775l90 130h70l-105 -130h-55z" />
    <glyph glyph-name="lacute" unicode="&#x13a;" horiz-adv-x="230" 
d="M85 0v700h60v-700h-60zM90 775l90 130h70l-105 -130h-55z" />
    <glyph glyph-name="Lcommaaccent" unicode="&#x13b;" horiz-adv-x="535" 
d="M90 0v700h60v-640h360v-60h-420zM230 -230l30 150h70l-55 -150h-45z" />
    <glyph glyph-name="lcommaaccent" unicode="&#x13c;" horiz-adv-x="230" 
d="M85 0v700h60v-700h-60zM50 -230l30 150h70l-55 -150h-45z" />
    <glyph glyph-name="Lcaron" unicode="&#x13d;" horiz-adv-x="535" 
d="M90 0v700h60v-640h360v-60h-420zM230 550l35 150h65l-55 -150h-45z" />
    <glyph glyph-name="lcaron" unicode="&#x13e;" horiz-adv-x="270" 
d="M85 0v700h60v-700h-60zM210 550l35 150h65l-55 -150h-45z" />
    <glyph glyph-name="Ldot" unicode="&#x13f;" horiz-adv-x="535" 
d="M345 345v70h70v-70h-70zM90 0v700h60v-640h360v-60h-420z" />
    <glyph glyph-name="ldot" unicode="&#x140;" horiz-adv-x="345" 
d="M250 325v70h70v-70h-70zM85 0v700h60v-700h-60z" />
    <glyph glyph-name="Lslash" unicode="&#x141;" horiz-adv-x="555" 
d="M110 0v302l-85 -32v60l85 32v338h60v-315l170 65v-60l-170 -65v-265h360v-60h-420z" />
    <glyph glyph-name="lslash" unicode="&#x142;" horiz-adv-x="265" 
d="M100 0v312l-80 -32v55l80 32v333h60v-309l85 34v-55l-85 -34v-336h-60z" />
    <glyph glyph-name="Nacute" unicode="&#x143;" horiz-adv-x="715" 
d="M90 0v700h110l345 -630h20v630h60v-700h-110l-345 630h-20v-630h-60zM330 775l90 130h70l-105 -130h-55z" />
    <glyph glyph-name="nacute" unicode="&#x144;" horiz-adv-x="580" 
d="M80 0v500h50l10 -65h5q15 22 36 37q50 38 119 38q87 0 143.5 -58.5t56.5 -151.5v-300h-60v300q0 68 -40.5 109t-104.5 41q-68 0 -111.5 -43t-43.5 -107v-300h-60zM270 585l90 130h70l-105 -130h-55z" />
    <glyph glyph-name="Ncommaaccent" unicode="&#x145;" horiz-adv-x="715" 
d="M90 0v700h110l345 -630h20v630h60v-700h-110l-345 630h-20v-630h-60zM290 -230l30 150h70l-55 -150h-45z" />
    <glyph glyph-name="ncommaaccent" unicode="&#x146;" horiz-adv-x="580" 
d="M80 0v500h50l10 -65h5q15 22 36 37q50 38 119 38q87 0 143.5 -58.5t56.5 -151.5v-300h-60v300q0 68 -40.5 109t-104.5 41q-68 0 -111.5 -43t-43.5 -107v-300h-60zM226 -230l30 150h70l-55 -150h-45z" />
    <glyph glyph-name="Ncaron" unicode="&#x147;" horiz-adv-x="715" 
d="M90 0v700h110l345 -630h20v630h60v-700h-110l-345 630h-20v-630h-60zM328 775l-113 130h65l80 -93l80 93h65l-113 -130h-64z" />
    <glyph glyph-name="ncaron" unicode="&#x148;" horiz-adv-x="580" 
d="M80 0v500h50l10 -65h5q15 22 36 37q50 38 119 38q87 0 143.5 -58.5t56.5 -151.5v-300h-60v300q0 68 -40.5 109t-104.5 41q-68 0 -111.5 -43t-43.5 -107v-300h-60zM263 585l-113 130h65l80 -93l80 93h65l-113 -130h-64z" />
    <glyph glyph-name="napostrophe" unicode="&#x149;" horiz-adv-x="595" 
d="M95 0v500h50l10 -65h5q15 22 36 37q50 38 119 38q87 0 143.5 -58.5t56.5 -151.5v-300h-60v300q0 68 -40.5 109t-104.5 41q-68 0 -111.5 -43t-43.5 -107v-300h-60zM30 570l35 150h65l-55 -150h-45z" />
    <glyph glyph-name="Eng" unicode="&#x14a;" horiz-adv-x="715" 
d="M90 0v700h115l340 -640h20v640h60v-790q0 -50 -29 -80t-81 -30h-95v60h85q60 0 60 60v80h-55l-340 640h-20v-640h-60z" />
    <glyph glyph-name="eng" unicode="&#x14b;" horiz-adv-x="580" 
d="M80 0v500h50l10 -65h5q15 22 36 37q50 38 119 38q87 0 143.5 -58.5t56.5 -151.5v-395q0 -49 -28 -77t-77 -28h-85v60h80q23 0 36.5 13.5t13.5 36.5v390q0 68 -40.5 109t-104.5 41q-68 0 -111.5 -43t-43.5 -107v-300h-60z" />
    <glyph glyph-name="Omacron" unicode="&#x14c;" horiz-adv-x="770" 
d="M385 710q141 0 235.5 -100.5t94.5 -259.5t-94.5 -259.5t-235.5 -100.5t-235.5 100.5t-94.5 259.5t94.5 259.5t235.5 100.5zM385 50q115 0 192.5 83.5t77.5 216.5t-77.5 216.5t-192.5 83.5t-192.5 -83.5t-77.5 -216.5t77.5 -216.5t192.5 -83.5zM245 815v50h280v-50h-280z
" />
    <glyph glyph-name="omacron" unicode="&#x14d;" 
d="M280 -10q-99 0 -167 73t-68 187t68 187t167 73t167 -73t68 -187t-68 -187t-167 -73zM455 250q0 88 -51 144t-124 56t-124 -56t-51 -144t51 -144t124 -56t124 56t51 144zM140 625v50h280v-50h-280z" />
    <glyph glyph-name="Obreve" unicode="&#x14e;" horiz-adv-x="770" 
d="M385 710q141 0 235.5 -100.5t94.5 -259.5t-94.5 -259.5t-235.5 -100.5t-235.5 100.5t-94.5 259.5t94.5 259.5t235.5 100.5zM385 50q115 0 192.5 83.5t77.5 216.5t-77.5 216.5t-192.5 83.5t-192.5 -83.5t-77.5 -216.5t77.5 -216.5t192.5 -83.5zM250 905h55q4 -33 25 -51.5
t55 -18.5t55 18.5t25 51.5h55q-4 -56 -40.5 -88t-94.5 -32t-94.5 32t-40.5 88z" />
    <glyph glyph-name="obreve" unicode="&#x14f;" 
d="M280 -10q-99 0 -167 73t-68 187t68 187t167 73t167 -73t68 -187t-68 -187t-167 -73zM455 250q0 88 -51 144t-124 56t-124 -56t-51 -144t51 -144t124 -56t124 56t51 144zM145 710h55q4 -33 25 -51.5t55 -18.5t55 18.5t25 51.5h55q-4 -56 -40.5 -88t-94.5 -32t-94.5 32
t-40.5 88z" />
    <glyph glyph-name="Ohungarumlaut" unicode="&#x150;" horiz-adv-x="770" 
d="M385 710q141 0 235.5 -100.5t94.5 -259.5t-94.5 -259.5t-235.5 -100.5t-235.5 100.5t-94.5 259.5t94.5 259.5t235.5 100.5zM385 50q115 0 192.5 83.5t77.5 216.5t-77.5 216.5t-192.5 83.5t-192.5 -83.5t-77.5 -216.5t77.5 -216.5t192.5 -83.5zM285 775l90 130h70
l-105 -130h-55zM430 775l90 130h70l-105 -130h-55z" />
    <glyph glyph-name="ohungarumlaut" unicode="&#x151;" 
d="M280 -10q-99 0 -167 73t-68 187t68 187t167 73t167 -73t68 -187t-68 -187t-167 -73zM455 250q0 88 -51 144t-124 56t-124 -56t-51 -144t51 -144t124 -56t124 56t51 144zM180 585l90 130h70l-105 -130h-55zM325 585l90 130h70l-105 -130h-55z" />
    <glyph glyph-name="OE" unicode="&#x152;" horiz-adv-x="1120" 
d="M615 0v135h-5q-90 -145 -245 -145q-132 0 -221 99.5t-89 260.5t89 260.5t221 99.5q155 0 245 -145h5v135h440v-60h-380v-260h360v-60h-360v-260h380v-60h-440zM365 50q108 0 179 80.5t71 219.5t-71 219.5t-179 80.5t-179 -80.5t-71 -219.5t71 -219.5t179 -80.5z" />
    <glyph glyph-name="oe" unicode="&#x153;" horiz-adv-x="935" 
d="M270 50q70 0 117.5 54.5t47.5 145.5t-47.5 145.5t-117.5 54.5t-117.5 -54.5t-47.5 -145.5t47.5 -145.5t117.5 -54.5zM500 280h330q-6 77 -52.5 123.5t-112.5 46.5t-112.5 -46.5t-52.5 -123.5zM810 140h65q-54 -150 -210 -150q-71 0 -125 40.5t-75 89.5q-22 -50 -73 -90
t-122 -40q-96 0 -160.5 71.5t-64.5 188.5t64.5 188.5t160.5 71.5q71 0 122 -40t73 -90q22 52 73.5 91t131.5 39q92 0 156 -70t64 -180q0 -14 -2 -28l-2 -12h-390q10 -77 57 -123.5t112 -46.5q98 0 145 90z" />
    <glyph glyph-name="Racute" unicode="&#x154;" horiz-adv-x="645" 
d="M90 0v700h290q90 0 147.5 -58.5t57.5 -151.5q0 -96 -58.5 -155.5t-146.5 -59.5h-70l290 -275h-80l-290 275h-80v-275h-60zM150 335h230q65 0 105 42t40 113q0 68 -40.5 109t-104.5 41h-230v-305zM300 775l90 130h70l-105 -130h-55z" />
    <glyph glyph-name="racute" unicode="&#x155;" horiz-adv-x="340" 
d="M80 0v500h50l5 -50h5q34 50 100 50h90v-60h-85q-49 0 -77 -28.5t-28 -81.5v-330h-60zM180 585l90 130h70l-105 -130h-55z" />
    <glyph glyph-name="Rcommaaccent" unicode="&#x156;" horiz-adv-x="645" 
d="M90 0v700h290q90 0 147.5 -58.5t57.5 -151.5q0 -96 -58.5 -155.5t-146.5 -59.5h-70l290 -275h-80l-290 275h-80v-275h-60zM150 335h230q65 0 105 42t40 113q0 68 -40.5 109t-104.5 41h-230v-305zM260 -230l30 150h70l-55 -150h-45z" />
    <glyph glyph-name="rcommaaccent" unicode="&#x157;" horiz-adv-x="340" 
d="M80 0v500h50l5 -50h5q34 50 100 50h90v-60h-85q-49 0 -77 -28.5t-28 -81.5v-330h-60zM45 -230l30 150h70l-55 -150h-45z" />
    <glyph glyph-name="Rcaron" unicode="&#x158;" horiz-adv-x="645" 
d="M90 0v700h290q90 0 147.5 -58.5t57.5 -151.5q0 -96 -58.5 -155.5t-146.5 -59.5h-70l290 -275h-80l-290 275h-80v-275h-60zM150 335h230q65 0 105 42t40 113q0 68 -40.5 109t-104.5 41h-230v-305zM293 775l-113 130h65l80 -93l80 93h65l-113 -130h-64z" />
    <glyph glyph-name="rcaron" unicode="&#x159;" horiz-adv-x="340" 
d="M80 0v500h50l5 -50h5q34 50 100 50h90v-60h-85q-49 0 -77 -28.5t-28 -81.5v-330h-60zM178 585l-113 130h65l80 -93l80 93h65l-113 -130h-64z" />
    <glyph glyph-name="Sacute" unicode="&#x15a;" horiz-adv-x="625" 
d="M55 205h60q0 -63 55 -109t145 -46q93 0 141.5 37.5t48.5 97.5q0 104 -139 128l-111 19q-94 16 -139.5 60.5t-45.5 122.5q0 85 63 140t172 55q117 0 186 -61t69 -154h-60q0 66 -52.5 110.5t-142.5 44.5q-84 0 -129.5 -38t-45.5 -97q0 -53 33 -83t102 -42l101 -18
q105 -19 152 -63.5t47 -123.5q0 -86 -65.5 -140.5t-184.5 -54.5q-116 0 -188 63t-72 152zM285 775l90 130h70l-105 -130h-55z" />
    <glyph glyph-name="sacute" unicode="&#x15b;" horiz-adv-x="470" 
d="M40 145h57q0 -40 38 -67.5t100 -27.5q64 0 97 24t33 61q0 61 -85 78l-100 20q-65 13 -97.5 45.5t-32.5 91.5t48.5 99.5t131.5 40.5q87 0 138.5 -44.5t51.5 -110.5h-60q0 40 -34.5 67.5t-95.5 27.5q-57 0 -88.5 -24t-31.5 -56q0 -64 80 -80l100 -20q72 -14 103.5 -46
t31.5 -89q0 -63 -50 -104t-140 -41q-87 0 -141 46t-54 109zM205 585l90 130h70l-105 -130h-55z" />
    <glyph glyph-name="Scircumflex" unicode="&#x15c;" horiz-adv-x="625" 
d="M55 205h60q0 -63 55 -109t145 -46q93 0 141.5 37.5t48.5 97.5q0 104 -139 128l-111 19q-94 16 -139.5 60.5t-45.5 122.5q0 85 63 140t172 55q117 0 186 -61t69 -154h-60q0 66 -52.5 110.5t-142.5 44.5q-84 0 -129.5 -38t-45.5 -97q0 -53 33 -83t102 -42l101 -18
q105 -19 152 -63.5t47 -123.5q0 -86 -65.5 -140.5t-184.5 -54.5q-116 0 -188 63t-72 152zM165 775l113 130h64l113 -130h-65l-80 93l-80 -93h-65z" />
    <glyph glyph-name="scircumflex" unicode="&#x15d;" horiz-adv-x="470" 
d="M40 145h57q0 -40 38 -67.5t100 -27.5q64 0 97 24t33 61q0 61 -85 78l-100 20q-65 13 -97.5 45.5t-32.5 91.5t48.5 99.5t131.5 40.5q87 0 138.5 -44.5t51.5 -110.5h-60q0 40 -34.5 67.5t-95.5 27.5q-57 0 -88.5 -24t-31.5 -56q0 -64 80 -80l100 -20q72 -14 103.5 -46
t31.5 -89q0 -63 -50 -104t-140 -41q-87 0 -141 46t-54 109zM90 585l113 130h64l113 -130h-65l-80 93l-80 -93h-65z" />
    <glyph glyph-name="Scedilla" unicode="&#x15e;" horiz-adv-x="625" 
d="M250 -200v45h40q45 0 45 35t-45 35h-25v35l18 41q-102 8 -165 69.5t-63 144.5h60q0 -63 55 -109t145 -46q93 0 141.5 37.5t48.5 97.5q0 104 -139 128l-111 19q-94 16 -139.5 60.5t-45.5 122.5q0 85 63 140t172 55q117 0 186 -61t69 -154h-60q0 66 -52.5 110.5
t-142.5 44.5q-84 0 -129.5 -38t-45.5 -97q0 -53 33 -83t102 -42l101 -18q105 -19 152 -63.5t47 -123.5q0 -83 -60.5 -137t-171.5 -58l-18 -40q30 -4 50 -24t20 -46q0 -35 -24.5 -57.5t-65.5 -22.5h-45z" />
    <glyph glyph-name="scedilla" unicode="&#x15f;" horiz-adv-x="470" 
d="M178 -200v45h40q45 0 45 35t-45 35h-25v35l18 41q-76 6 -123.5 51t-47.5 103h57q0 -40 38 -67.5t100 -27.5q64 0 97 24t33 61q0 61 -85 78l-100 20q-65 13 -97.5 45.5t-32.5 91.5t48.5 99.5t131.5 40.5q87 0 138.5 -44.5t51.5 -110.5h-60q0 40 -34.5 67.5t-95.5 27.5
q-57 0 -88.5 -24t-31.5 -56q0 -64 80 -80l100 -20q72 -14 103.5 -46t31.5 -89q0 -58 -42.5 -97.5t-121.5 -46.5l-18 -41q30 -4 50 -24t20 -46q0 -35 -24.5 -57.5t-65.5 -22.5h-45z" />
    <glyph glyph-name="Scaron" unicode="&#x160;" horiz-adv-x="625" 
d="M55 205h60q0 -63 55 -109t145 -46q93 0 141.5 37.5t48.5 97.5q0 104 -139 128l-111 19q-94 16 -139.5 60.5t-45.5 122.5q0 85 63 140t172 55q117 0 186 -61t69 -154h-60q0 66 -52.5 110.5t-142.5 44.5q-84 0 -129.5 -38t-45.5 -97q0 -53 33 -83t102 -42l101 -18
q105 -19 152 -63.5t47 -123.5q0 -86 -65.5 -140.5t-184.5 -54.5q-116 0 -188 63t-72 152zM278 775l-113 130h65l80 -93l80 93h65l-113 -130h-64z" />
    <glyph glyph-name="scaron" unicode="&#x161;" horiz-adv-x="470" 
d="M40 145h57q0 -40 38 -67.5t100 -27.5q64 0 97 24t33 61q0 61 -85 78l-100 20q-65 13 -97.5 45.5t-32.5 91.5t48.5 99.5t131.5 40.5q87 0 138.5 -44.5t51.5 -110.5h-60q0 40 -34.5 67.5t-95.5 27.5q-57 0 -88.5 -24t-31.5 -56q0 -64 80 -80l100 -20q72 -14 103.5 -46
t31.5 -89q0 -63 -50 -104t-140 -41q-87 0 -141 46t-54 109zM203 585l-113 130h65l80 -93l80 93h65l-113 -130h-64z" />
    <glyph glyph-name="uni0162" unicode="&#x162;" horiz-adv-x="600" 
d="M240 -200v45h40q45 0 45 35t-45 35h-25v35l25 50h-10v640h-240v60h540v-60h-240v-640l-25 -50q30 -4 50 -24t20 -46q0 -35 -24.5 -57.5t-65.5 -22.5h-45z" />
    <glyph glyph-name="uni0163" unicode="&#x163;" horiz-adv-x="340" 
d="M140 -200v45h40q45 0 45 35t-45 35h-25v35l23 52q-32 6 -50 28t-18 55v355h-80v60h80v140h60v-140h125v-60h-125v-345q0 -35 35 -35h90v-60h-68l-22 -50q30 -4 50 -24t20 -46q0 -35 -24.5 -57.5t-65.5 -22.5h-45z" />
    <glyph glyph-name="Tcaron" unicode="&#x164;" horiz-adv-x="600" 
d="M270 0v640h-240v60h540v-60h-240v-640h-60zM268 775l-113 130h65l80 -93l80 93h65l-113 -130h-64z" />
    <glyph glyph-name="tcaron" unicode="&#x165;" horiz-adv-x="355" 
d="M110 85v355h-80v60h80v140h60v-140h125v-60h-125v-345q0 -35 35 -35h90v-60h-95q-42 0 -66 23t-24 62zM295 550l35 150h65l-55 -150h-45z" />
    <glyph glyph-name="Tbar" unicode="&#x166;" horiz-adv-x="600" 
d="M270 0v430h-165v60h165v150h-240v60h540v-60h-240v-150h165v-60h-165v-430h-60z" />
    <glyph glyph-name="tbar" unicode="&#x167;" horiz-adv-x="340" 
d="M110 85v165h-80v60h80v130h-80v60h80v140h60v-140h125v-60h-125v-130h125v-60h-125v-155q0 -35 35 -35h90v-60h-95q-42 0 -66 23t-24 62z" />
    <glyph glyph-name="Umacron" unicode="&#x16a;" horiz-adv-x="700" 
d="M80 275v425h60v-425q0 -101 59.5 -163t150.5 -62t150.5 62t59.5 163v425h60v-425q0 -127 -76 -206t-194 -79t-194 79t-76 206zM210 815v50h280v-50h-280z" />
    <glyph glyph-name="umacron" unicode="&#x16b;" horiz-adv-x="580" 
d="M80 200v300h60v-300q0 -68 40.5 -109t104.5 -41q68 0 111.5 43t43.5 107v300h60v-500h-50l-10 65h-5q-14 -22 -36 -38q-49 -37 -119 -37q-87 0 -143.5 58.5t-56.5 151.5zM150 625v50h280v-50h-280z" />
    <glyph glyph-name="Ubreve" unicode="&#x16c;" horiz-adv-x="700" 
d="M80 275v425h60v-425q0 -101 59.5 -163t150.5 -62t150.5 62t59.5 163v425h60v-425q0 -127 -76 -206t-194 -79t-194 79t-76 206zM215 905h55q4 -33 25 -51.5t55 -18.5t55 18.5t25 51.5h55q-4 -56 -40.5 -88t-94.5 -32t-94.5 32t-40.5 88z" />
    <glyph glyph-name="ubreve" unicode="&#x16d;" horiz-adv-x="580" 
d="M80 200v300h60v-300q0 -68 40.5 -109t104.5 -41q68 0 111.5 43t43.5 107v300h60v-500h-50l-10 65h-5q-14 -22 -36 -38q-49 -37 -119 -37q-87 0 -143.5 58.5t-56.5 151.5zM155 710h55q4 -33 25 -51.5t55 -18.5t55 18.5t25 51.5h55q-4 -56 -40.5 -88t-94.5 -32t-94.5 32
t-40.5 88z" />
    <glyph glyph-name="Uring" unicode="&#x16e;" horiz-adv-x="700" 
d="M80 275v425h60v-425q0 -101 59.5 -163t150.5 -62t150.5 62t59.5 163v425h60v-425q0 -127 -76 -206t-194 -79t-194 79t-76 206zM260 850q0 38 26 64t64 26t64 -26t26 -64t-26 -64t-64 -26t-64 26t-26 64zM350 805q22 0 33.5 12.5t11.5 32.5t-11.5 32.5t-33.5 12.5
t-33.5 -12.5t-11.5 -32.5t11.5 -32.5t33.5 -12.5z" />
    <glyph glyph-name="uring" unicode="&#x16f;" horiz-adv-x="580" 
d="M80 200v300h60v-300q0 -68 40.5 -109t104.5 -41q68 0 111.5 43t43.5 107v300h60v-500h-50l-10 65h-5q-14 -22 -36 -38q-49 -37 -119 -37q-87 0 -143.5 58.5t-56.5 151.5zM200 660q0 38 26 64t64 26t64 -26t26 -64t-26 -64t-64 -26t-64 26t-26 64zM290 615q22 0 33.5 12.5
t11.5 32.5t-11.5 32.5t-33.5 12.5t-33.5 -12.5t-11.5 -32.5t11.5 -32.5t33.5 -12.5z" />
    <glyph glyph-name="Uhungarumlaut" unicode="&#x170;" horiz-adv-x="700" 
d="M80 275v425h60v-425q0 -101 59.5 -163t150.5 -62t150.5 62t59.5 163v425h60v-425q0 -127 -76 -206t-194 -79t-194 79t-76 206zM250 775l90 130h70l-105 -130h-55zM395 775l90 130h70l-105 -130h-55z" />
    <glyph glyph-name="uhungarumlaut" unicode="&#x171;" horiz-adv-x="580" 
d="M80 200v300h60v-300q0 -68 40.5 -109t104.5 -41q68 0 111.5 43t43.5 107v300h60v-500h-50l-10 65h-5q-14 -22 -36 -38q-49 -37 -119 -37q-87 0 -143.5 58.5t-56.5 151.5zM190 585l90 130h70l-105 -130h-55zM335 585l90 130h70l-105 -130h-55z" />
    <glyph glyph-name="Uogonek" unicode="&#x172;" horiz-adv-x="700" 
d="M410 -160h-20q-41 0 -65.5 22.5t-24.5 57.5q0 42 37 70q-112 4 -184.5 83t-72.5 202v425h60v-425q0 -101 59.5 -163t150.5 -62t150.5 62t59.5 163v425h60v-425q0 -113 -62 -189.5t-161 -92.5q-47 -26 -47 -68q0 -35 45 -35h15v-50z" />
    <glyph glyph-name="uogonek" unicode="&#x173;" horiz-adv-x="580" 
d="M80 200v300h60v-300q0 -68 40.5 -109t104.5 -41q68 0 111.5 43t43.5 107v300h60v-500q-60 -30 -60 -75q0 -35 45 -35h15v-50h-20q-41 0 -65.5 22.5t-24.5 57.5q0 28 20 52t40 28l-10 65h-5q-14 -22 -36 -38q-49 -37 -119 -37q-87 0 -143.5 58.5t-56.5 151.5z" />
    <glyph glyph-name="Wcircumflex" unicode="&#x174;" horiz-adv-x="950" 
d="M195 0l-175 700h63l159 -640h21l162 640h100l162 -640h21l159 640h63l-175 -700h-115l-155 615h-20l-155 -615h-115zM330 775l113 130h64l113 -130h-65l-80 93l-80 -93h-65z" />
    <glyph glyph-name="wcircumflex" unicode="&#x175;" horiz-adv-x="760" 
d="M155 0l-135 500h60l115 -435h20l115 435h100l115 -435h20l115 435h60l-135 -500h-100l-115 425h-20l-116 -425h-99zM235 585l113 130h64l113 -130h-65l-80 93l-80 -93h-65z" />
    <glyph glyph-name="Ycircumflex" unicode="&#x176;" horiz-adv-x="590" 
d="M265 0v263l-260 437h67l213 -360h20l213 360h67l-260 -437v-263h-60zM150 775l113 130h64l113 -130h-65l-80 93l-80 -93h-65z" />
    <glyph glyph-name="ycircumflex" unicode="&#x177;" horiz-adv-x="470" 
d="M60 -200v60h85q17 0 25.5 8t14.5 24l27 76l-202 532h60l160 -425h20l150 425h60l-225 -635q-24 -65 -90 -65h-85zM95 585l113 130h64l113 -130h-65l-80 93l-80 -93h-65z" />
    <glyph glyph-name="Ydieresis" unicode="&#x178;" horiz-adv-x="590" 
d="M265 0v263l-260 437h67l213 -360h20l213 360h67l-260 -437v-263h-60zM175 810v70h70v-70h-70zM345 810v70h70v-70h-70z" />
    <glyph glyph-name="Zacute" unicode="&#x179;" horiz-adv-x="585" 
d="M45 0v55l410 585h-405v60h485v-55l-410 -585h415v-60h-495zM265 775l90 130h70l-105 -130h-55z" />
    <glyph glyph-name="zacute" unicode="&#x17a;" horiz-adv-x="440" 
d="M35 0v50l285 390h-280v60h360v-50l-285 -390h290v-60h-370zM195 585l90 130h70l-105 -130h-55z" />
    <glyph glyph-name="Zdotaccent" unicode="&#x17b;" horiz-adv-x="585" 
d="M45 0v55l410 585h-405v60h485v-55l-410 -585h415v-60h-495zM255 810v70h70v-70h-70z" />
    <glyph glyph-name="zdotaccent" unicode="&#x17c;" horiz-adv-x="440" 
d="M35 0v50l285 390h-280v60h360v-50l-285 -390h290v-60h-370zM185 615v70h70v-70h-70z" />
    <glyph glyph-name="Zcaron" unicode="&#x17d;" horiz-adv-x="585" 
d="M45 0v55l410 585h-405v60h485v-55l-410 -585h415v-60h-495zM258 775l-113 130h65l80 -93l80 93h65l-113 -130h-64z" />
    <glyph glyph-name="zcaron" unicode="&#x17e;" horiz-adv-x="440" 
d="M35 0v50l285 390h-280v60h360v-50l-285 -390h290v-60h-370zM188 585l-113 130h65l80 -93l80 93h65l-113 -130h-64z" />
    <glyph glyph-name="uni018F" unicode="&#x18f;" horiz-adv-x="760" 
d="M645 320h-530q4 -120 79.5 -195t180.5 -75q107 0 183.5 74.5t86.5 195.5zM55 330v50h590q-10 118 -84.5 194t-185.5 76q-79 0 -144.5 -43t-97.5 -117h-65q36 101 119 160.5t188 59.5q141 0 235.5 -100.5t94.5 -259.5t-94.5 -259.5t-235.5 -100.5q-136 0 -228 97t-92 243z
" />
    <glyph glyph-name="florin" unicode="&#x192;" horiz-adv-x="375" 
d="M-65 -200l13 60h62q42 0 50 40l99 455h-99l13 60h97l38 175q19 90 112 90h75l-13 -60h-62q-44 0 -51 -40l-36 -165h106l-13 -60h-106l-100 -465q-19 -90 -110 -90h-75z" />
    <glyph glyph-name="Aringacute" unicode="&#x1fa;" horiz-adv-x="630" 
d="M308 920l27 50h60l-43 -58q53 -26 53 -82q0 -38 -26 -64t-64 -26t-64 26t-26 64q0 35 24 61t59 29zM315 785q22 0 33.5 12.5t11.5 32.5t-11.5 32.5t-33.5 12.5t-33.5 -12.5t-11.5 -32.5t11.5 -32.5t33.5 -12.5zM5 0l265 700h90l265 -700h-60l-72 190h-356l-72 -190h-60z
M160 250h310l-145 385h-20z" />
    <glyph glyph-name="aringacute" unicode="&#x1fb;" horiz-adv-x="535" 
d="M258 730l27 50h60l-43 -58q53 -26 53 -82q0 -38 -26 -64t-64 -26t-64 26t-26 64q0 35 24 61t59 29zM265 595q22 0 33.5 12.5t11.5 32.5t-11.5 32.5t-33.5 12.5t-33.5 -12.5t-11.5 -32.5t11.5 -32.5t33.5 -12.5zM405 0l-10 70h-5q-15 -21 -41 -40q-56 -40 -124 -40
q-77 0 -123.5 43t-46.5 112q0 71 50 113t145 42h145v20q0 130 -130 130q-59 0 -94.5 -26t-40.5 -69h-60q9 67 59 111t136 44q91 0 140.5 -49.5t49.5 -140.5v-320h-50zM395 220v25h-145q-66 0 -100.5 -28t-34.5 -72q0 -43 29 -69t81 -26q79 0 124.5 45.5t45.5 124.5z" />
    <glyph glyph-name="AEacute" unicode="&#x1fc;" horiz-adv-x="925" 
d="M-15 0l305 700h570v-60h-385v-260h365v-60h-365v-260h385v-60h-445v190h-285l-83 -190h-62zM156 250h259v390h-89zM430 775l90 130h70l-105 -130h-55z" />
    <glyph glyph-name="aeacute" unicode="&#x1fd;" horiz-adv-x="895" 
d="M130 355h-60q9 67 59 111t136 44q120 0 170 -110q65 110 195 110q92 0 156 -70t64 -180q0 -11 -2 -25q-1 -3 -1 -10h-392q12 -81 58.5 -128t111.5 -47q98 0 145 90h65q-54 -150 -210 -150q-91 0 -154 65q-28 28 -46 65q-15 -35 -44 -65q-61 -65 -156 -65q-76 0 -123 41.5
t-47 103.5q0 70 48.5 110t146.5 40h145v35q0 130 -130 130q-57 0 -94 -26.5t-41 -68.5zM395 220v5h-145q-69 0 -102 -24.5t-33 -65.5q0 -36 29.5 -60.5t80.5 -24.5q79 0 124.5 45.5t45.5 124.5zM456 285h334q-6 73 -53 119t-112 46q-64 0 -113.5 -47.5t-55.5 -117.5z
M425 585l90 130h70l-105 -130h-55z" />
    <glyph glyph-name="Oslashacute" unicode="&#x1fe;" horiz-adv-x="770" 
d="M150 -35l45 85q-66 49 -103 126t-37 174q0 159 94.5 259.5t235.5 100.5q77 0 140 -31l30 56h65l-45 -86q140 -104 140 -299q0 -159 -94.5 -259.5t-235.5 -100.5q-75 0 -141 31l-29 -56h-65zM546 595l-274 -521q51 -24 113 -24q115 0 192.5 83.5t77.5 216.5
q0 160 -109 245zM223 105l274 520q-51 25 -112 25q-115 0 -192.5 -83.5t-77.5 -216.5q0 -161 108 -245zM360 775l90 130h70l-105 -130h-55z" />
    <glyph glyph-name="oslashacute" unicode="&#x1ff;" 
d="M95 -35l40 76q-90 72 -90 209q0 114 68 187t167 73q52 0 95 -21l25 46h65l-41 -76q91 -76 91 -209q0 -114 -68 -187t-167 -73q-50 0 -96 20l-24 -45h-65zM394 403l-181 -339q33 -14 67 -14q73 0 124 56t51 144q0 95 -61 153zM165 96l182 340q-34 14 -67 14
q-73 0 -124 -56t-51 -144q0 -97 60 -154zM250 585l90 130h70l-105 -130h-55z" />
    <glyph glyph-name="Scommaaccent" unicode="&#x218;" horiz-adv-x="625" 
d="M55 205h60q0 -63 55 -109t145 -46q93 0 141.5 37.5t48.5 97.5q0 104 -139 128l-111 19q-94 16 -139.5 60.5t-45.5 122.5q0 85 63 140t172 55q117 0 186 -61t69 -154h-60q0 66 -52.5 110.5t-142.5 44.5q-84 0 -129.5 -38t-45.5 -97q0 -53 33 -83t102 -42l101 -18
q105 -19 152 -63.5t47 -123.5q0 -86 -65.5 -140.5t-184.5 -54.5q-116 0 -188 63t-72 152zM245 -230l30 150h70l-55 -150h-45z" />
    <glyph glyph-name="scommaaccent" unicode="&#x219;" horiz-adv-x="470" 
d="M40 145h57q0 -40 38 -67.5t100 -27.5q64 0 97 24t33 61q0 61 -85 78l-100 20q-65 13 -97.5 45.5t-32.5 91.5t48.5 99.5t131.5 40.5q87 0 138.5 -44.5t51.5 -110.5h-60q0 40 -34.5 67.5t-95.5 27.5q-57 0 -88.5 -24t-31.5 -56q0 -64 80 -80l100 -20q72 -14 103.5 -46
t31.5 -89q0 -63 -50 -104t-140 -41q-87 0 -141 46t-54 109zM170 -230l30 150h70l-55 -150h-45z" />
    <glyph glyph-name="uni021A" unicode="&#x21a;" horiz-adv-x="600" 
d="M270 0v640h-240v60h540v-60h-240v-640h-60zM235 -230l30 150h70l-55 -150h-45z" />
    <glyph glyph-name="uni021B" unicode="&#x21b;" horiz-adv-x="340" 
d="M110 85v355h-80v60h80v140h60v-140h125v-60h-125v-345q0 -35 35 -35h90v-60h-95q-42 0 -66 23t-24 62zM135 -230l30 150h70l-55 -150h-45z" />
    <glyph glyph-name="uni0232" unicode="&#x232;" horiz-adv-x="590" 
d="M265 0v263l-260 437h67l213 -360h20l213 360h67l-260 -437v-263h-60zM155 815v50h280v-50h-280z" />
    <glyph glyph-name="uni0233" unicode="&#x233;" horiz-adv-x="470" 
d="M60 -200v60h85q17 0 25.5 8t14.5 24l27 76l-202 532h60l160 -425h20l150 425h60l-225 -635q-24 -65 -90 -65h-85zM100 625v50h280v-50h-280z" />
    <glyph glyph-name="uni0244" unicode="&#x244;" horiz-adv-x="750" 
d="M105 275v155h-90v60h90v210h60v-210h420v210h60v-210h90v-60h-90v-155q0 -127 -76.5 -206t-193.5 -79t-193.5 79t-76.5 206zM165 430v-155q0 -101 59.5 -163t150.5 -62t150.5 62t59.5 163v155h-420z" />
    <glyph glyph-name="uni0259" unicode="&#x259;" horiz-adv-x="555" 
d="M48 280h402q-8 77 -57 123.5t-118 46.5q-54 0 -93.5 -27.5t-56.5 -62.5h-65q22 62 74.5 106t140.5 44q104 0 169.5 -71t65.5 -189t-65.5 -189t-169.5 -71q-99 0 -164.5 69.5t-65.5 180.5q0 22 1 29zM450 220h-345q4 -75 51.5 -122.5t118.5 -47.5q72 0 119.5 45.5
t55.5 124.5z" />
    <glyph glyph-name="uni0289" unicode="&#x289;" horiz-adv-x="595" 
d="M85 200v125h-70v60h70v115h60v-115h300v115h60v-115h75v-60h-75v-325h-50l-10 65h-5q-14 -22 -36 -38q-49 -37 -119 -37q-87 0 -143.5 58.5t-56.5 151.5zM145 325v-125q0 -68 40.5 -109t104.5 -41q68 0 111.5 43t43.5 107v125h-300z" />
    <glyph glyph-name="uni02BC" unicode="&#x2bc;" horiz-adv-x="160" 
d="M30 550l35 150h65l-55 -150h-45z" />
    <glyph glyph-name="circumflex" unicode="&#x2c6;" horiz-adv-x="350" 
d="M30 600l113 130h64l113 -130h-65l-80 93l-80 -93h-65z" />
    <glyph glyph-name="caron" unicode="&#x2c7;" horiz-adv-x="350" 
d="M143 600l-113 130h65l80 -93l80 93h65l-113 -130h-64z" />
    <glyph glyph-name="breve" unicode="&#x2d8;" horiz-adv-x="330" 
d="M30 710h55q4 -33 25 -51.5t55 -18.5t55 18.5t25 51.5h55q-4 -56 -40.5 -88t-94.5 -32t-94.5 32t-40.5 88z" />
    <glyph glyph-name="dotaccent" unicode="&#x2d9;" horiz-adv-x="130" 
d="M30 615v70h70v-70h-70z" />
    <glyph glyph-name="ring" unicode="&#x2da;" horiz-adv-x="240" 
d="M30 680q0 38 26 64t64 26t64 -26t26 -64t-26 -64t-64 -26t-64 26t-26 64zM120 635q22 0 33.5 12.5t11.5 32.5t-11.5 32.5t-33.5 12.5t-33.5 -12.5t-11.5 -32.5t11.5 -32.5t33.5 -12.5z" />
    <glyph glyph-name="ogonek" unicode="&#x2db;" horiz-adv-x="170" 
d="M140 -160h-20q-41 0 -65.5 22.5t-24.5 57.5q0 28 16.5 49.5t38.5 30.5v10h55v-10q-60 -30 -60 -75q0 -35 45 -35h15v-50z" />
    <glyph glyph-name="tilde" unicode="&#x2dc;" horiz-adv-x="365" 
d="M80 600h-50q0 44 25.5 72t64.5 28q30 0 68.5 -25t56.5 -25q16 0 28 14t12 36h50q0 -44 -25.5 -72t-64.5 -28q-30 0 -68.5 25t-56.5 25q-16 0 -28 -14t-12 -36z" />
    <glyph glyph-name="hungarumlaut" unicode="&#x2dd;" horiz-adv-x="365" 
d="M30 600l90 130h70l-105 -130h-55zM175 600l90 130h70l-105 -130h-55z" />
    <glyph glyph-name="acutecomb" unicode="&#x301;" horiz-adv-x="0" 
d="M-380 800l90 130h70l-105 -130h-55z" />
    <glyph glyph-name="uni0302" unicode="&#x302;" horiz-adv-x="0" 
d="M-500 795l113 130h64l113 -130h-65l-80 93l-80 -93h-65z" />
    <glyph glyph-name="uni0304" unicode="&#x304;" horiz-adv-x="0" 
d="M-500 825v50h280v-50h-280z" />
    <glyph glyph-name="uni0306" unicode="&#x306;" horiz-adv-x="0" 
d="M-490 910h55q4 -33 25 -51.5t55 -18.5t55 18.5t25 51.5h55q-4 -56 -40.5 -88t-94.5 -32t-94.5 32t-40.5 88z" />
    <glyph glyph-name="uni0307" unicode="&#x307;" horiz-adv-x="0" 
d="M-385 815v70h70v-70h-70z" />
    <glyph glyph-name="uni0308" unicode="&#x308;" horiz-adv-x="0" 
d="M-475 815v70h70v-70h-70zM-305 815v70h70v-70h-70z" />
    <glyph glyph-name="uni030A" unicode="&#x30a;" horiz-adv-x="0" 
d="M-445 880q0 38 26 64t64 26t64 -26t26 -64t-26 -64t-64 -26t-64 26t-26 64zM-355 835q22 0 33.5 12.5t11.5 32.5t-11.5 32.5t-33.5 12.5t-33.5 -12.5t-11.5 -32.5t11.5 -32.5t33.5 -12.5z" />
    <glyph glyph-name="uni030C" unicode="&#x30c;" horiz-adv-x="0" 
d="M-387 795l-113 130h65l80 -93l80 93h65l-113 -130h-64z" />
    <glyph glyph-name="uni0326" unicode="&#x326;" horiz-adv-x="160" 
d="M30 -240l30 150h70l-55 -150h-45z" />
    <glyph glyph-name="uni0400" unicode="&#x400;" horiz-adv-x="595" 
d="M90 0v700h440v-60h-380v-260h360v-60h-360v-260h380v-60h-440zM280 775l-105 130h70l90 -130h-55z" />
    <glyph glyph-name="uni0401" unicode="&#x401;" horiz-adv-x="595" 
d="M90 0v700h440v-60h-380v-260h360v-60h-360v-260h380v-60h-440zM190 810v70h70v-70h-70zM360 810v70h70v-70h-70z" />
    <glyph glyph-name="uni0402" unicode="&#x402;" horiz-adv-x="700" 
d="M190 0v640h-190v60h440v-60h-190v-245q59 50 165 50q100 0 165 -63t65 -157q0 -98 -65.5 -161.5t-169.5 -63.5h-45v60h45q78 0 126.5 46.5t48.5 118.5q0 68 -48 114t-122 46q-59 0 -101.5 -16t-63.5 -34v-335h-60z" />
    <glyph glyph-name="uni0403" unicode="&#x403;" horiz-adv-x="540" 
d="M90 0v700h430v-60h-370v-640h-60zM275 775l90 130h70l-105 -130h-55z" />
    <glyph glyph-name="uni0404" unicode="&#x404;" horiz-adv-x="740" 
d="M116 380h359v-60h-359q10 -120 85.5 -195t183.5 -75q56 0 102.5 20t75 51.5t44 56.5t23.5 47h65q-7 -27 -20.5 -55.5t-40 -61.5t-59.5 -58.5t-83 -42.5t-107 -17q-141 0 -235.5 100.5t-94.5 259.5t94.5 259.5t235.5 100.5q69 0 127 -24t94.5 -61.5t58 -74t30.5 -70.5h-65
q-8 22 -23.5 46.5t-44 54.5t-75 49.5t-102.5 19.5q-108 0 -183.5 -75t-85.5 -195z" />
    <glyph glyph-name="uni0405" unicode="&#x405;" horiz-adv-x="625" 
d="M55 205h60q0 -63 55 -109t145 -46q93 0 141.5 37.5t48.5 97.5q0 104 -139 128l-111 19q-94 16 -139.5 60.5t-45.5 122.5q0 85 63 140t172 55q117 0 186 -61t69 -154h-60q0 66 -52.5 110.5t-142.5 44.5q-84 0 -129.5 -38t-45.5 -97q0 -53 33 -83t102 -42l101 -18
q105 -19 152 -63.5t47 -123.5q0 -86 -65.5 -140.5t-184.5 -54.5q-116 0 -188 63t-72 152z" />
    <glyph glyph-name="uni0406" unicode="&#x406;" horiz-adv-x="240" 
d="M90 0v700h60v-700h-60z" />
    <glyph glyph-name="uni0407" unicode="&#x407;" horiz-adv-x="240" 
d="M90 0v700h60v-700h-60zM0 810v70h70v-70h-70zM170 810v70h70v-70h-70z" />
    <glyph glyph-name="uni0408" unicode="&#x408;" horiz-adv-x="390" 
d="M15 0v60h170q60 0 60 55v585h60v-590q0 -110 -115 -110h-175z" />
    <glyph glyph-name="uni0409" unicode="&#x409;" horiz-adv-x="1020" 
d="M0 -5v60h30q39 0 62.5 23t27.5 67l47 555h398v-290h205q87 0 143.5 -58.5t56.5 -151.5q0 -86 -57 -143t-143 -57h-265v640h-283l-42 -495q-14 -150 -150 -150h-30zM565 60h205q64 0 102 38t38 102q0 71 -37.5 110.5t-102.5 39.5h-205v-290z" />
    <glyph glyph-name="uni040A" unicode="&#x40a;" horiz-adv-x="1040" 
d="M90 0v700h60v-305h375v305h60v-305h210q86 0 140.5 -54.5t54.5 -140.5q0 -90 -54 -145t-141 -55h-270v335h-375v-335h-60zM585 60h210q57 0 96 40t39 100t-37.5 97.5t-97.5 37.5h-210v-275z" />
    <glyph glyph-name="uni040B" unicode="&#x40b;" horiz-adv-x="715" 
d="M190 0v640h-190v60h440v-60h-190v-245q59 50 165 50q98 0 159 -61t61 -159v-225h-60v225q0 75 -42.5 117.5t-117.5 42.5q-59 0 -101.5 -16t-63.5 -34v-335h-60z" />
    <glyph glyph-name="uni040C" unicode="&#x40c;" horiz-adv-x="565" 
d="M90 0v700h60v-330l315 330h80l-330 -345l350 -355h-80l-335 340v-340h-60zM280 775l90 130h70l-105 -130h-55z" />
    <glyph glyph-name="uni040D" unicode="&#x40d;" horiz-adv-x="715" 
d="M90 0v700h60v-635h20l345 635h110v-700h-60v635h-20l-345 -635h-110zM330 775l-105 130h70l90 -130h-55z" />
    <glyph glyph-name="uni040E" unicode="&#x40e;" horiz-adv-x="600" 
d="M100 0v60h90q39 0 55 34l29 64l-259 542h65l215 -450h21l204 450h65l-290 -640q-15 -31 -38.5 -45.5t-66.5 -14.5h-90zM170 905h55q4 -33 25 -51.5t55 -18.5t55 18.5t25 51.5h55q-4 -56 -40.5 -88t-94.5 -32t-94.5 32t-40.5 88z" />
    <glyph glyph-name="uni040F" unicode="&#x40f;" horiz-adv-x="700" 
d="M90 0v700h60v-640h400v640h60v-700h-230v-140h-60v140h-230z" />
    <glyph glyph-name="uni0410" unicode="&#x410;" horiz-adv-x="630" 
d="M5 0l265 700h90l265 -700h-60l-72 190h-356l-72 -190h-60zM160 250h310l-145 385h-20z" />
    <glyph glyph-name="uni0411" unicode="&#x411;" horiz-adv-x="640" 
d="M90 0v700h460v-60h-400v-240h240q87 0 141 -55t54 -145t-54 -145t-141 -55h-300zM150 60h240q60 0 97.5 38.5t37.5 101.5t-37.5 101.5t-97.5 38.5h-240v-280z" />
    <glyph glyph-name="uni0412" unicode="&#x412;" horiz-adv-x="635" 
d="M90 0v700h285q83 0 136.5 -54t53.5 -136q0 -72 -43 -121q-17 -20 -42 -34v-5q26 -12 47 -33q48 -48 48 -127q0 -82 -53.5 -136t-136.5 -54h-295zM150 60h235q57 0 93.5 36.5t36.5 93.5q0 60 -35 95t-95 35h-235v-260zM150 380h225q57 0 93.5 36.5t36.5 93.5t-36.5 93.5
t-93.5 36.5h-225v-260z" />
    <glyph glyph-name="uni0413" unicode="&#x413;" horiz-adv-x="540" 
d="M90 0v700h430v-60h-370v-640h-60z" />
    <glyph glyph-name="uni0414" unicode="&#x414;" horiz-adv-x="675" 
d="M0 -140v200h5q47 0 69 22t26 68l48 550h417v-640h80v-200h-60v140h-525v-140h-60zM125 60h380v580h-302l-43 -490q-5 -49 -20 -73q-8 -12 -15 -17z" />
    <glyph glyph-name="uni0415" unicode="&#x415;" horiz-adv-x="595" 
d="M90 0v700h440v-60h-380v-260h360v-60h-360v-260h380v-60h-440z" />
    <glyph glyph-name="uni0416" unicode="&#x416;" horiz-adv-x="800" 
d="M5 0l299 355l-279 345h75l270 -335v335h60v-335l270 335h75l-279 -345l299 -355h-75l-290 345v-345h-60v345l-290 -345h-75z" />
    <glyph glyph-name="uni0417" unicode="&#x417;" horiz-adv-x="605" 
d="M45 190h60q0 -59 50 -99.5t140 -40.5q86 0 138 42t52 98q0 54 -44 92t-116 38h-80v60h80q62 0 103.5 38.5t41.5 91.5q0 58 -48 99t-127 41t-127 -41t-48 -99h-60q0 84 65 142t170 58t170 -58t65 -142q0 -74 -55 -123q-27 -22 -55 -32v-5q35 -12 62 -33q63 -49 63 -127
q0 -85 -67 -142.5t-183 -57.5t-183 57.5t-67 142.5z" />
    <glyph glyph-name="uni0418" unicode="&#x418;" horiz-adv-x="715" 
d="M90 0v700h60v-635h20l345 635h110v-700h-60v635h-20l-345 -635h-110z" />
    <glyph glyph-name="uni0419" unicode="&#x419;" horiz-adv-x="715" 
d="M90 0v700h60v-635h20l345 635h110v-700h-60v635h-20l-345 -635h-110zM225 905h55q4 -33 25 -51.5t55 -18.5t55 18.5t25 51.5h55q-4 -56 -40.5 -88t-94.5 -32t-94.5 32t-40.5 88z" />
    <glyph glyph-name="uni041A" unicode="&#x41a;" horiz-adv-x="565" 
d="M90 0v700h60v-330l315 330h80l-330 -345l350 -355h-80l-335 340v-340h-60z" />
    <glyph glyph-name="uni041B" unicode="&#x41b;" horiz-adv-x="675" 
d="M0 -5v60h30q39 0 62.5 23t27.5 67l47 555h418v-700h-60v640h-303l-42 -495q-14 -150 -150 -150h-30z" />
    <glyph glyph-name="uni041C" unicode="&#x41c;" horiz-adv-x="900" 
d="M90 0v700h115l235 -640h20l235 640h115v-700h-60v625h-20l-230 -625h-100l-230 625h-20v-625h-60z" />
    <glyph glyph-name="uni041D" unicode="&#x41d;" horiz-adv-x="715" 
d="M90 0v700h60v-315h415v315h60v-700h-60v325h-415v-325h-60z" />
    <glyph glyph-name="uni041E" unicode="&#x41e;" horiz-adv-x="770" 
d="M385 710q141 0 235.5 -100.5t94.5 -259.5t-94.5 -259.5t-235.5 -100.5t-235.5 100.5t-94.5 259.5t94.5 259.5t235.5 100.5zM385 50q115 0 192.5 83.5t77.5 216.5t-77.5 216.5t-192.5 83.5t-192.5 -83.5t-77.5 -216.5t77.5 -216.5t192.5 -83.5z" />
    <glyph glyph-name="uni041F" unicode="&#x41f;" horiz-adv-x="715" 
d="M90 0v700h535v-700h-60v640h-415v-640h-60z" />
    <glyph glyph-name="uni0420" unicode="&#x420;" horiz-adv-x="640" 
d="M90 0v700h290q87 0 146 -61t59 -154t-57.5 -151.5t-147.5 -58.5h-230v-275h-60zM150 335h230q64 0 104.5 41t40.5 109q0 71 -40 113t-105 42h-230v-305z" />
    <glyph glyph-name="uni0421" unicode="&#x421;" horiz-adv-x="735" 
d="M625 230h65q-25 -94 -106 -167t-199 -73q-141 0 -235.5 100.5t-94.5 259.5t94.5 259.5t235.5 100.5q120 0 199.5 -71.5t105.5 -163.5h-65q-8 20 -18 39.5t-31 45.5t-45.5 44.5t-63 32t-82.5 13.5q-115 0 -192.5 -83.5t-77.5 -216.5t77.5 -216.5t192.5 -83.5q56 0 102 20
t73.5 51.5t42 57.5t22.5 51z" />
    <glyph glyph-name="uni0422" unicode="&#x422;" horiz-adv-x="600" 
d="M270 0v640h-240v60h540v-60h-240v-640h-60z" />
    <glyph glyph-name="uni0423" unicode="&#x423;" horiz-adv-x="600" 
d="M100 0v60h90q39 0 55 34l29 64l-259 542h65l215 -450h21l204 450h65l-290 -640q-15 -31 -38.5 -45.5t-66.5 -14.5h-90z" />
    <glyph glyph-name="uni0424" unicode="&#x424;" horiz-adv-x="810" 
d="M375 -20v110h-15q-147 0 -228.5 73.5t-81.5 196.5t81.5 196.5t228.5 73.5h15v90h60v-90h15q147 0 228.5 -73.5t81.5 -196.5t-81.5 -196.5t-228.5 -73.5h-15v-110h-60zM435 570v-420h15q120 0 185 57t65 153t-65 153t-185 57h-15zM375 150v420h-15q-120 0 -185 -57
t-65 -153t65 -153t185 -57h15z" />
    <glyph glyph-name="uni0425" unicode="&#x425;" horiz-adv-x="600" 
d="M10 0l243 360l-228 340h70l195 -290h20l195 290h70l-228 -340l243 -360h-70l-210 310h-20l-210 -310h-70z" />
    <glyph glyph-name="uni0426" unicode="&#x426;" horiz-adv-x="720" 
d="M90 0v700h60v-640h400v640h60v-640h80v-200h-60v140h-540z" />
    <glyph glyph-name="uni0427" unicode="&#x427;" horiz-adv-x="675" 
d="M525 0v310q-32 -22 -61 -35q-72 -35 -154 -35q-235 0 -235 245v215h60v-215q0 -98 42 -141.5t133 -43.5q86 0 158 37q34 17 57 37v326h60v-700h-60z" />
    <glyph glyph-name="uni0428" unicode="&#x428;" horiz-adv-x="960" 
d="M90 0v700h60v-640h300v640h60v-640h300v640h60v-700h-780z" />
    <glyph glyph-name="uni0429" unicode="&#x429;" horiz-adv-x="980" 
d="M90 0v700h60v-640h300v640h60v-640h300v640h60v-640h80v-200h-60v140h-800z" />
    <glyph glyph-name="uni042A" unicode="&#x42a;" horiz-adv-x="695" 
d="M170 0v640h-160v60h220v-265h210q88 0 146.5 -61.5t58.5 -158.5q0 -93 -59 -154t-146 -61h-270zM230 60h210q65 0 105 42t40 113q0 74 -40 117t-105 43h-210v-315z" />
    <glyph glyph-name="uni042B" unicode="&#x42b;" horiz-adv-x="795" 
d="M645 0v700h60v-700h-60zM90 0v700h60v-265h200q88 0 146.5 -61.5t58.5 -158.5q0 -93 -59 -154t-146 -61h-260zM150 60h200q65 0 105 42t40 113q0 74 -40 117t-105 43h-200v-315z" />
    <glyph glyph-name="uni042C" unicode="&#x42c;" horiz-adv-x="625" 
d="M90 0v700h60v-265h220q88 0 146.5 -61.5t58.5 -158.5q0 -93 -59 -154t-146 -61h-280zM150 60h220q65 0 105 42t40 113q0 74 -40 117t-105 43h-220v-315z" />
    <glyph glyph-name="uni042D" unicode="&#x42d;" horiz-adv-x="740" 
d="M45 225h65q8 -22 23.5 -47t44 -56.5t75 -51.5t102.5 -20q108 0 183.5 75t85.5 195h-359v60h359q-10 120 -85.5 195t-183.5 75q-56 0 -102.5 -19.5t-75 -49.5t-44 -54.5t-23.5 -46.5h-65q6 26 20.5 55t41 60.5t60.5 56.5t83 41.5t105 16.5q141 0 235.5 -100.5t94.5 -259.5
t-94.5 -259.5t-235.5 -100.5q-57 0 -106.5 17t-83 42.5t-60 58.5t-40.5 62t-20 55z" />
    <glyph glyph-name="uni042E" unicode="&#x42e;" horiz-adv-x="945" 
d="M90 0v700h60v-320h121q8 152 94.5 241t214.5 89q135 0 222.5 -97.5t87.5 -262.5t-87.5 -262.5t-222.5 -97.5q-128 0 -214.5 89t-94.5 241h-121v-320h-60zM580 50q108 0 179 80.5t71 219.5t-71 219.5t-179 80.5t-179 -80.5t-71 -219.5t71 -219.5t179 -80.5z" />
    <glyph glyph-name="uni042F" unicode="&#x42f;" horiz-adv-x="645" 
d="M45 0l275 275h-55q-87 0 -146 61t-59 154t57.5 151.5t147.5 58.5h290v-700h-60v275h-95l-275 -275h-80zM265 335h230v305h-230q-64 0 -104.5 -41t-40.5 -109q0 -71 40 -113t105 -42z" />
    <glyph glyph-name="uni0430" unicode="&#x430;" horiz-adv-x="535" 
d="M405 0l-10 70h-5q-15 -21 -41 -40q-56 -40 -124 -40q-77 0 -123.5 43t-46.5 112q0 71 50 113t145 42h145v20q0 130 -130 130q-59 0 -94.5 -26t-40.5 -69h-60q9 67 59 111t136 44q91 0 140.5 -49.5t49.5 -140.5v-320h-50zM395 220v25h-145q-66 0 -100.5 -28t-34.5 -72
q0 -43 29 -69t81 -26q79 0 124.5 45.5t45.5 124.5z" />
    <glyph glyph-name="uni0431" unicode="&#x431;" horiz-adv-x="555" 
d="M50 240v25q0 136 32 216.5t103 118.5q27 14 58 23.5t50 13t69 10.5q36 5 49.5 22t13.5 56h55q0 -62 -26 -92.5t-79 -39.5q-40 -5 -61 -8.5t-49.5 -12t-53.5 -22.5q-86 -48 -101 -180h5q59 90 170 90q98 0 161.5 -65.5t63.5 -169.5q0 -105 -64 -170t-166 -65
q-103 0 -166.5 67.5t-63.5 182.5zM450 225q0 78 -47.5 126.5t-122.5 48.5t-122.5 -48.5t-47.5 -126.5t47.5 -126.5t122.5 -48.5t122.5 48.5t47.5 126.5z" />
    <glyph glyph-name="uni0432" unicode="&#x432;" horiz-adv-x="525" 
d="M80 0v500h255q60 0 97.5 -37.5t37.5 -97.5q0 -51 -30 -85q-13 -16 -30 -25v-5q17 -6 35 -23q35 -35 35 -87q0 -64 -38 -102t-102 -38h-260zM140 55h195q38 0 61.5 23.5t23.5 61.5t-23.5 61.5t-61.5 23.5h-195v-170zM140 280h190q34 0 57 23.5t23 61.5q0 34 -23 57t-57 23
h-190v-165z" />
    <glyph glyph-name="uni0433" unicode="&#x433;" horiz-adv-x="410" 
d="M80 0v500h310v-60h-250v-440h-60z" />
    <glyph glyph-name="uni0434" unicode="&#x434;" horiz-adv-x="530" 
d="M0 -120v180h5q38 0 56 16t21 54l30 370h323v-440h75v-180h-60v120h-390v-120h-60zM110 60h265v380h-210l-25 -310q-4 -35 -17 -56q-5 -9 -13 -14z" />
    <glyph glyph-name="uni0435" unicode="&#x435;" horiz-adv-x="555" 
d="M105 280h345q-4 75 -51.5 122.5t-118.5 47.5q-72 0 -119.5 -45.5t-55.5 -124.5zM430 140h65q-22 -62 -74.5 -106t-140.5 -44q-104 0 -169.5 71t-65.5 189t65.5 189t169.5 71q99 0 164.5 -69.5t65.5 -180.5q0 -15 -2 -29q-1 -4 -1 -11h-402q8 -77 57 -123.5t118 -46.5
q55 0 93 27t57 63z" />
    <glyph glyph-name="uni0436" unicode="&#x436;" horiz-adv-x="630" 
d="M0 0l220 255l-205 245h74l196 -235v235h60v-235l196 235h74l-205 -245l220 -255h-74l-211 245v-245h-60v245l-211 -245h-74z" />
    <glyph glyph-name="uni0437" unicode="&#x437;" horiz-adv-x="460" 
d="M35 155h60q0 -47 34 -76t96 -29q64 0 97 24t33 61q0 41 -32.5 65.5t-97.5 24.5h-40v55h45q54 0 84.5 24.5t30.5 60.5t-31.5 60.5t-88.5 24.5q-55 0 -87.5 -28.5t-32.5 -71.5h-60q0 69 49.5 114.5t130.5 45.5q84 0 132 -41.5t48 -103.5q0 -53 -40 -87q-19 -16 -40 -23v-5
q10 -3 22.5 -9.5t29 -19.5t27.5 -35.5t11 -50.5q0 -63 -50 -104t-140 -41q-88 0 -139 46t-51 119z" />
    <glyph glyph-name="uni0438" unicode="&#x438;" horiz-adv-x="565" 
d="M80 0v500h60v-435h20l215 435h110v-500h-60v435h-20l-215 -435h-110z" />
    <glyph glyph-name="uni0439" unicode="&#x439;" horiz-adv-x="565" 
d="M80 0v500h60v-435h20l215 435h110v-500h-60v435h-20l-215 -435h-110zM150 710h55q4 -33 25 -51.5t55 -18.5t55 18.5t25 51.5h55q-4 -56 -40.5 -88t-94.5 -32t-94.5 32t-40.5 88z" />
    <glyph glyph-name="uni043A" unicode="&#x43a;" horiz-adv-x="475" 
d="M80 0v500h60v-230l243 230h82l-260 -245l270 -255h-82l-253 240v-240h-60z" />
    <glyph glyph-name="uni043B" unicode="&#x43b;" horiz-adv-x="535" 
d="M0 -5v60h25q35 0 53 18t22 62l30 365h325v-500h-60v440h-210l-25 -305q-6 -72 -38.5 -106t-96.5 -34h-25z" />
    <glyph glyph-name="uni043C" unicode="&#x43c;" horiz-adv-x="720" 
d="M80 0v500h117l153 -435h20l153 435h117v-500h-60v435h-20l-153 -435h-94l-153 435h-20v-435h-60z" />
    <glyph glyph-name="uni043D" unicode="&#x43d;" horiz-adv-x="565" 
d="M80 0v500h60v-220h285v220h60v-500h-60v220h-285v-220h-60z" />
    <glyph glyph-name="uni043E" unicode="&#x43e;" 
d="M280 -10q-99 0 -167 73t-68 187t68 187t167 73t167 -73t68 -187t-68 -187t-167 -73zM455 250q0 88 -51 144t-124 56t-124 -56t-51 -144t51 -144t124 -56t124 56t51 144z" />
    <glyph glyph-name="uni043F" unicode="&#x43f;" horiz-adv-x="565" 
d="M80 0v500h405v-500h-60v440h-285v-440h-60z" />
    <glyph glyph-name="uni0440" unicode="&#x440;" horiz-adv-x="585" 
d="M310 50q74 0 122 54t48 146t-48 146t-122 54t-122 -54t-48 -146t48 -146t122 -54zM80 -200v700h50l10 -80h5q20 32 64 61t106 29q96 0 160.5 -71.5t64.5 -188.5t-64.5 -188.5t-160.5 -71.5q-62 0 -106 29t-64 61h-5v-280h-60z" />
    <glyph glyph-name="uni0441" unicode="&#x441;" horiz-adv-x="540" 
d="M435 165h65q-19 -83 -77.5 -129t-142.5 -46q-104 0 -169.5 71t-65.5 189t65.5 189t169.5 71q83 0 142 -45.5t78 -124.5h-65q-11 40 -49.5 75t-105.5 35q-77 0 -126 -54t-49 -146t49 -146t126 -54q66 0 105 37t50 78z" />
    <glyph glyph-name="uni0442" unicode="&#x442;" horiz-adv-x="440" 
d="M190 0v440h-170v60h400v-60h-170v-440h-60z" />
    <glyph glyph-name="uni0443" unicode="&#x443;" horiz-adv-x="470" 
d="M60 -200v60h85q17 0 25.5 8t14.5 24l27 76l-202 532h60l160 -425h20l150 425h60l-225 -635q-24 -65 -90 -65h-85z" />
    <glyph glyph-name="uni0444" unicode="&#x444;" horiz-adv-x="700" 
d="M320 -200v200h-20q-116 0 -185.5 69t-69.5 181t69.5 181t185.5 69h20v200h60v-200h20q116 0 185.5 -69t69.5 -181t-69.5 -181t-185.5 -69h-20v-200h-60zM300 60h20v380h-20q-94 0 -144.5 -49.5t-50.5 -140.5t50.5 -140.5t144.5 -49.5zM380 60h20q94 0 144.5 49.5
t50.5 140.5t-50.5 140.5t-144.5 49.5h-20v-380z" />
    <glyph glyph-name="uni0445" unicode="&#x445;" horiz-adv-x="460" 
d="M10 0l168 255l-163 245h70l135 -205h20l135 205h70l-163 -245l168 -255h-70l-140 215h-20l-140 -215h-70z" />
    <glyph glyph-name="uni0446" unicode="&#x446;" horiz-adv-x="570" 
d="M80 0v500h60v-440h275v440h60v-440h75v-180h-60v120h-410z" />
    <glyph glyph-name="uni0447" unicode="&#x447;" horiz-adv-x="535" 
d="M395 0v203q-65 -43 -150 -43q-87 0 -133.5 47.5t-46.5 137.5v155h60v-155q0 -125 125 -125q85 0 145 45v235h60v-500h-60z" />
    <glyph glyph-name="uni0448" unicode="&#x448;" horiz-adv-x="780" 
d="M80 0v500h60v-440h220v440h60v-440h220v440h60v-500h-620z" />
    <glyph glyph-name="uni0449" unicode="&#x449;" horiz-adv-x="795" 
d="M80 0v500h60v-440h220v440h60v-440h220v440h60v-440h75v-180h-60v120h-635z" />
    <glyph glyph-name="uni044A" unicode="&#x44a;" 
d="M135 0v440h-125v60h185v-175h160q75 0 122.5 -46.5t47.5 -118.5q0 -68 -48 -114t-122 -46h-220zM195 60h165q48 0 76.5 27.5t28.5 72.5q0 49 -28 77t-77 28h-165v-205z" />
    <glyph glyph-name="uni044B" unicode="&#x44b;" horiz-adv-x="670" 
d="M530 0v500h60v-500h-60zM80 0v500h60v-175h140q75 0 122.5 -46.5t47.5 -118.5q0 -68 -48 -114t-122 -46h-200zM140 60h145q48 0 76.5 27.5t28.5 72.5q0 49 -28 77t-77 28h-145v-205z" />
    <glyph glyph-name="uni044C" unicode="&#x44c;" horiz-adv-x="505" 
d="M80 0v500h60v-175h160q75 0 122.5 -46.5t47.5 -118.5q0 -68 -48 -114t-122 -46h-220zM140 60h165q48 0 76.5 27.5t28.5 72.5q0 49 -28 77t-77 28h-165v-205z" />
    <glyph glyph-name="uni044D" unicode="&#x44d;" horiz-adv-x="535" 
d="M35 160h65q12 -39 50.5 -74.5t104.5 -35.5q70 0 117.5 45t55.5 125h-233v60h233q-8 80 -55.5 125t-117.5 45q-67 0 -105 -34t-50 -71h-65q19 75 78 120t142 45q104 0 169.5 -71t65.5 -189t-65.5 -189t-169.5 -71q-83 0 -142 45.5t-78 124.5z" />
    <glyph glyph-name="uni044E" unicode="&#x44e;" horiz-adv-x="720" 
d="M80 0v500h60v-220h86q8 104 71.5 167t152.5 63q96 0 160.5 -71.5t64.5 -188.5t-64.5 -188.5t-160.5 -71.5q-90 0 -153 62.5t-71 167.5h-86v-220h-60zM450 50q70 0 117.5 54.5t47.5 145.5t-47.5 145.5t-117.5 54.5t-117.5 -54.5t-47.5 -145.5t47.5 -145.5t117.5 -54.5z
" />
    <glyph glyph-name="uni044F" unicode="&#x44f;" horiz-adv-x="515" 
d="M35 0l185 185h-10q-75 0 -120 44t-45 116q0 69 45.5 112t119.5 43h225v-500h-60v185h-80l-185 -185h-75zM210 245h165v195h-165q-48 0 -76.5 -26t-28.5 -69q0 -45 28.5 -72.5t76.5 -27.5z" />
    <glyph glyph-name="uni0450" unicode="&#x450;" horiz-adv-x="555" 
d="M105 280h345q-4 75 -51.5 122.5t-118.5 47.5q-72 0 -119.5 -45.5t-55.5 -124.5zM430 140h65q-22 -62 -74.5 -106t-140.5 -44q-104 0 -169.5 71t-65.5 189t65.5 189t169.5 71q99 0 164.5 -69.5t65.5 -180.5q0 -15 -2 -29q-1 -4 -1 -11h-402q8 -77 57 -123.5t118 -46.5
q55 0 93 27t57 63zM250 585l-105 130h70l90 -130h-55z" />
    <glyph glyph-name="uni0451" unicode="&#x451;" horiz-adv-x="555" 
d="M105 280h345q-4 75 -51.5 122.5t-118.5 47.5q-72 0 -119.5 -45.5t-55.5 -124.5zM430 140h65q-22 -62 -74.5 -106t-140.5 -44q-104 0 -169.5 71t-65.5 189t65.5 189t169.5 71q99 0 164.5 -69.5t65.5 -180.5q0 -15 -2 -29q-1 -4 -1 -11h-402q8 -77 57 -123.5t118 -46.5
q55 0 93 27t57 63zM155 615v70h70v-70h-70zM325 615v70h70v-70h-70z" />
    <glyph glyph-name="uni0452" unicode="&#x452;" horiz-adv-x="575" 
d="M85 0v560h-85v55h85v85h60v-85h170v-55h-170v-185h5q15 22 36 37q50 38 119 38q87 0 143.5 -58.5t56.5 -151.5v-290q0 -69 -41.5 -109.5t-113.5 -40.5h-50v60h50q45 0 70 24t25 66v290q0 68 -40.5 109t-104.5 41q-68 0 -111.5 -43t-43.5 -107v-240h-60z" />
    <glyph glyph-name="uni0453" unicode="&#x453;" horiz-adv-x="410" 
d="M80 0v500h310v-60h-250v-440h-60zM205 585l90 130h70l-105 -130h-55z" />
    <glyph glyph-name="uni0454" unicode="&#x454;" horiz-adv-x="540" 
d="M107 280h233v-60h-233q8 -80 55.5 -125t117.5 -45q66 0 104.5 36t50.5 74h65q-19 -79 -78 -124.5t-142 -45.5q-104 0 -169.5 71t-65.5 189t65.5 189t169.5 71q83 0 142 -45t78 -120h-65q-12 37 -50.5 71t-104.5 34q-70 0 -117.5 -45t-55.5 -125z" />
    <glyph glyph-name="uni0455" unicode="&#x455;" horiz-adv-x="470" 
d="M40 145h57q0 -40 38 -67.5t100 -27.5q64 0 97 24t33 61q0 61 -85 78l-100 20q-65 13 -97.5 45.5t-32.5 91.5t48.5 99.5t131.5 40.5q87 0 138.5 -44.5t51.5 -110.5h-60q0 40 -34.5 67.5t-95.5 27.5q-57 0 -88.5 -24t-31.5 -56q0 -64 80 -80l100 -20q72 -14 103.5 -46
t31.5 -89q0 -63 -50 -104t-140 -41q-87 0 -141 46t-54 109z" />
    <glyph glyph-name="uni0456" unicode="&#x456;" horiz-adv-x="230" 
d="M85 0v500h60v-500h-60zM80 615v70h70v-70h-70z" />
    <glyph glyph-name="uni0457" unicode="&#x457;" horiz-adv-x="220" 
d="M80 0v500h60v-500h-60zM-10 615v70h70v-70h-70zM160 615v70h70v-70h-70z" />
    <glyph glyph-name="uni0458" unicode="&#x458;" horiz-adv-x="230" 
d="M-30 -200v60h80q35 0 35 35v605h60v-615q0 -39 -24 -62t-66 -23h-85zM80 615v70h70v-70h-70z" />
    <glyph glyph-name="uni0459" unicode="&#x459;" horiz-adv-x="775" 
d="M0 -5v60h25q35 0 53 18t22 62l30 365h315v-205h135q74 0 117 -40.5t43 -109.5q0 -65 -43 -105t-117 -40h-195v440h-200l-25 -305q-6 -72 -38.5 -106t-96.5 -34h-25zM445 60h140q44 0 69.5 23t25.5 62q0 42 -25 66t-70 24h-140v-175z" />
    <glyph glyph-name="uni045A" unicode="&#x45a;" horiz-adv-x="795" 
d="M80 0v500h60v-205h265v205h60v-205h135q74 0 117 -40.5t43 -109.5q0 -65 -43 -105t-117 -40h-195v235h-265v-235h-60zM465 60h140q44 0 69.5 23t25.5 62q0 42 -25 66t-70 24h-140v-175z" />
    <glyph glyph-name="uni045B" unicode="&#x45b;" horiz-adv-x="575" 
d="M85 0v560h-85v55h85v85h60v-85h170v-55h-170v-185h5q15 22 36 37q50 38 119 38q87 0 143.5 -58.5t56.5 -151.5v-240h-60v240q0 68 -40.5 109t-104.5 41q-68 0 -111.5 -43t-43.5 -107v-240h-60z" />
    <glyph glyph-name="uni045C" unicode="&#x45c;" horiz-adv-x="475" 
d="M80 0v500h60v-230l243 230h82l-260 -245l270 -255h-82l-253 240v-240h-60zM230 585l90 130h70l-105 -130h-55z" />
    <glyph glyph-name="uni045D" unicode="&#x45d;" horiz-adv-x="565" 
d="M80 0v500h60v-435h20l215 435h110v-500h-60v435h-20l-215 -435h-110zM255 585l-105 130h70l90 -130h-55z" />
    <glyph glyph-name="uni045E" unicode="&#x45e;" horiz-adv-x="470" 
d="M60 -200v60h85q17 0 25.5 8t14.5 24l27 76l-202 532h60l160 -425h20l150 425h60l-225 -635q-24 -65 -90 -65h-85zM105 710h55q4 -33 25 -51.5t55 -18.5t55 18.5t25 51.5h55q-4 -56 -40.5 -88t-94.5 -32t-94.5 32t-40.5 88z" />
    <glyph glyph-name="uni045F" unicode="&#x45f;" 
d="M80 0v500h60v-440h280v440h60v-500h-170v-120h-60v120h-170z" />
    <glyph glyph-name="uni0462" unicode="&#x462;" horiz-adv-x="670" 
d="M150 0v540h-150v60h150v100h60v-100h190v-60h-190v-135h210q87 0 143.5 -57.5t56.5 -147.5q0 -86 -57 -143t-143 -57h-270zM210 60h210q60 0 100 40t40 100q0 63 -40 104t-100 41h-210v-285z" />
    <glyph glyph-name="uni0463" unicode="&#x463;" horiz-adv-x="540" 
d="M120 0v440h-115v60h115v200h60v-200h145v-60h-145v-115h155q75 0 122.5 -46.5t47.5 -118.5q0 -68 -48 -114t-122 -46h-215zM180 60h160q48 0 76.5 27.5t28.5 72.5q0 49 -28 77t-77 28h-160v-205z" />
    <glyph glyph-name="uni046A" unicode="&#x46a;" horiz-adv-x="770" 
d="M45 0v60q0 144 73.5 232t197.5 106l-251 246v56h640v-56l-251 -246q124 -18 197.5 -106t73.5 -232v-60h-60v60q0 131 -70.5 205.5t-179.5 74.5v-340h-60v340q-109 0 -179.5 -74.5t-70.5 -205.5v-60h-60zM145 640l240 -235l240 235h-480z" />
    <glyph glyph-name="uni046B" unicode="&#x46b;" horiz-adv-x="610" 
d="M302 275h5l165 165h-335zM95 0h-60q0 115 55 185t150 85l-175 175v55h480v-55l-175 -175q95 -15 150 -85t55 -185h-60q0 101 -48 159t-132 61v-220h-60v220q-84 -3 -132 -61t-48 -159z" />
    <glyph glyph-name="uni0472" unicode="&#x472;" horiz-adv-x="770" 
d="M385 -10q-141 0 -235.5 100.5t-94.5 259.5t94.5 259.5t235.5 100.5t235.5 -100.5t94.5 -259.5t-94.5 -259.5t-235.5 -100.5zM653 320q-67 -25 -128 -25q-44 0 -136.5 25t-143.5 25q-62 0 -129 -25q10 -121 85.5 -195.5t183.5 -74.5q107 0 182.5 74.5t85.5 195.5zM116 380
q67 25 129 25q51 0 143.5 -25t136.5 -25q61 0 128 25q-10 121 -85.5 195.5t-182.5 74.5q-108 0 -183.5 -74.5t-85.5 -195.5z" />
    <glyph glyph-name="uni0473" unicode="&#x473;" 
d="M280 -10q-99 0 -167 73t-68 187t68 187t167 73t167 -73t68 -187t-68 -187t-167 -73zM107 216q10 -74 59 -120t114 -46q68 0 117 48.5t57 127.5q-36 -16 -89 -16q-35 0 -85 10t-85 10q-37 0 -88 -14zM106 274q44 16 89 16q35 0 85 -10t85 -10q50 0 87 14q-10 74 -58.5 120
t-113.5 46q-68 0 -117 -48.5t-57 -127.5z" />
    <glyph glyph-name="uni0474" unicode="&#x474;" horiz-adv-x="660" 
d="M265 0l-255 700h63l232 -640h20l181 500q28 77 56.5 108.5t67.5 31.5q21 0 34 -5l11 -5v-60l-8 5q-12 5 -27 5q-23 0 -38.5 -17.5t-32.5 -62.5l-204 -560h-100z" />
    <glyph glyph-name="uni0475" unicode="&#x475;" horiz-adv-x="505" 
d="M195 0l-185 500h60l160 -435h20l118 320q23 61 48.5 88t58.5 27q19 0 31 -5q6 -4 9 -5v-57l-8 3q-7 4 -22 4q-36 0 -57 -55l-143 -385h-90z" />
    <glyph glyph-name="uni048A" unicode="&#x48a;" horiz-adv-x="715" 
d="M225 905h55q4 -33 25 -51.5t55 -18.5t55 18.5t25 51.5h55q-4 -56 -40.5 -88t-94.5 -32t-94.5 32t-40.5 88zM90 0v700h60v-635h20l345 635h110v-640h90v-15l-60 -185h-45l30 140h-75v635h-20l-345 -635h-110z" />
    <glyph glyph-name="uni048B" unicode="&#x48b;" horiz-adv-x="575" 
d="M150 710h55q4 -33 25 -51.5t55 -18.5t55 18.5t25 51.5h55q-4 -56 -40.5 -88t-94.5 -32t-94.5 32t-40.5 88zM80 0v500h60v-435h20l215 435h110v-440h85v-10l-50 -170h-45l25 120h-75v435h-20l-215 -435h-110z" />
    <glyph glyph-name="uni048C" unicode="&#x48c;" horiz-adv-x="670" 
d="M150 0v540h-150v60h150v100h60v-100h190v-60h-190v-135h210q87 0 143.5 -57.5t56.5 -147.5q0 -86 -57 -143t-143 -57h-270zM210 60h210q60 0 100 40t40 100q0 63 -40 104t-100 41h-210v-285z" />
    <glyph glyph-name="uni048D" unicode="&#x48d;" horiz-adv-x="540" 
d="M120 0v440h-115v60h115v200h60v-200h145v-60h-145v-115h155q75 0 122.5 -46.5t47.5 -118.5q0 -68 -48 -114t-122 -46h-215zM180 60h160q48 0 76.5 27.5t28.5 72.5q0 49 -28 77t-77 28h-160v-205z" />
    <glyph glyph-name="uni048E" unicode="&#x48e;" horiz-adv-x="640" 
d="M90 0v700h290q87 0 146 -61t59 -154q0 -113 -81 -172l46 -63l-45 -30l-48 68q-33 -13 -77 -13h-230v-275h-60zM150 335h230q18 0 40 5l-50 70l45 30l54 -77q56 43 56 122q0 71 -40 113t-105 42h-230v-305z" />
    <glyph glyph-name="uni048F" unicode="&#x48f;" horiz-adv-x="585" 
d="M80 -200v700h50l10 -80h5q20 32 64 61t106 29q96 0 160.5 -71.5t64.5 -188.5q0 -122 -69 -194l49 -66l-45 -30l-46 62q-50 -32 -114 -32q-62 0 -106 29t-64 61h-5v-280h-60zM393 72l-53 73l45 30l49 -68q46 58 46 143q0 92 -48 146t-122 54t-122 -54t-48 -146t48 -146
t122 -54q46 0 83 22z" />
    <glyph glyph-name="uni0490" unicode="&#x490;" horiz-adv-x="540" 
d="M90 0v700h370v140h60v-200h-370v-640h-60z" />
    <glyph glyph-name="uni0491" unicode="&#x491;" horiz-adv-x="420" 
d="M80 0v500h260v120h60v-180h-260v-440h-60z" />
    <glyph glyph-name="uni0492" unicode="&#x492;" horiz-adv-x="550" 
d="M105 0v325h-85v60h85v315h420v-60h-360v-255h195v-60h-195v-325h-60z" />
    <glyph glyph-name="uni0493" unicode="&#x493;" horiz-adv-x="415" 
d="M85 0v220h-70v60h70v220h310v-60h-250v-160h180v-60h-180v-220h-60z" />
    <glyph glyph-name="uni0494" unicode="&#x494;" horiz-adv-x="610" 
d="M90 0v700h430v-60h-370v-294q17 10 45 22q58 22 120 22q112 0 178.5 -69.5t66.5 -185.5t-66 -183t-179 -67v60q82 0 133.5 52t51.5 138q0 90 -50 142.5t-135 52.5q-66 0 -122 -24q-24 -10 -43 -24v-282h-60z" />
    <glyph glyph-name="uni0495" unicode="&#x495;" horiz-adv-x="495" 
d="M265 -200v60q62 0 101 47.5t39 132.5q0 82 -40.5 128.5t-109.5 46.5q-40 0 -82 -18q-15 -6 -33 -17v-180h-60v500h310v-60h-250v-200q15 10 32 17q42 18 88 18q88 0 146.5 -64.5t58.5 -170.5q0 -110 -56 -175t-144 -65z" />
    <glyph glyph-name="uni0496" unicode="&#x496;" horiz-adv-x="815" 
d="M5 0l299 355l-279 345h75l270 -335v335h60v-335l270 335h75l-279 -345l248 -295h71v-200h-60v140h-35l-290 345v-345h-60v345l-290 -345h-75z" />
    <glyph glyph-name="uni0497" unicode="&#x497;" horiz-adv-x="645" 
d="M0 0l220 255l-205 245h74l196 -235v235h60v-235l196 235h74l-205 -245l168 -195h67v-180h-60v120h-29l-211 245v-245h-60v245l-211 -245h-74z" />
    <glyph glyph-name="uni0498" unicode="&#x498;" horiz-adv-x="605" 
d="M266 -140v131q-104 8 -162.5 63.5t-58.5 135.5h60q0 -59 50 -99.5t140 -40.5q86 0 138 42t52 98q0 54 -44 92t-116 38h-80v60h80q62 0 103.5 38.5t41.5 91.5q0 58 -48 99t-127 41t-127 -41t-48 -99h-60q0 84 65 142t170 58t170 -58t65 -142q0 -74 -55 -123
q-27 -22 -55 -32v-5q35 -12 62 -33q63 -49 63 -127q0 -80 -58.5 -135.5t-160.5 -63.5v-131h-60z" />
    <glyph glyph-name="uni0499" unicode="&#x499;" horiz-adv-x="460" 
d="M195 -120v112q-76 8 -118 52t-42 111h60q0 -47 34 -76t96 -29q64 0 97 24t33 61q0 41 -32.5 65.5t-97.5 24.5h-40v55h45q54 0 84.5 24.5t30.5 60.5t-31.5 60.5t-88.5 24.5q-55 0 -87.5 -28.5t-32.5 -71.5h-60q0 69 49.5 114.5t130.5 45.5q84 0 132 -41.5t48 -103.5
q0 -53 -40 -87q-19 -16 -40 -23v-5q10 -3 22.5 -9.5t29 -19.5t27.5 -35.5t11 -50.5q0 -58 -41.5 -97t-118.5 -46v-112h-60z" />
    <glyph glyph-name="uni049A" unicode="&#x49a;" horiz-adv-x="580" 
d="M90 0v700h60v-330l315 330h80l-330 -345l291 -295h74v-200h-60v140h-35l-335 340v-340h-60z" />
    <glyph glyph-name="uni049B" unicode="&#x49b;" horiz-adv-x="475" 
d="M80 0v500h60v-230l243 230h82l-260 -245l206 -195h64v-180h-60v120h-22l-253 240v-240h-60z" />
    <glyph glyph-name="uni049C" unicode="&#x49c;" horiz-adv-x="595" 
d="M80 0v700h60v-320h55v120h60v-120h40l213 320h67l-230 -345l250 -355h-75l-225 320h-40v-110h-60v110h-55v-320h-60z" />
    <glyph glyph-name="uni049D" unicode="&#x49d;" horiz-adv-x="495" 
d="M80 0v500h60v-215h40v85h55v-85h31l149 215h75l-170 -245l175 -255h-75l-154 225h-31v-85h-55v85h-40v-225h-60z" />
    <glyph glyph-name="uni049E" unicode="&#x49e;" horiz-adv-x="565" 
d="M90 0v550h-90v60h90v90h60v-90h80v-60h-80v-180l315 330h80l-330 -345l350 -355h-80l-335 340v-340h-60z" />
    <glyph glyph-name="uni049F" unicode="&#x49f;" horiz-adv-x="480" 
d="M85 0v555h-85v55h85v90h60v-90h115v-55h-115v-285l243 230h82l-260 -245l270 -255h-82l-253 240v-240h-60z" />
    <glyph glyph-name="uni04A0" unicode="&#x4a0;" horiz-adv-x="585" 
d="M110 0v640h-110v60h170v-330l315 330h80l-330 -345l350 -355h-80l-335 340v-340h-60z" />
    <glyph glyph-name="uni04A1" unicode="&#x4a1;" horiz-adv-x="495" 
d="M100 0v440h-100v60h160v-230l243 230h82l-260 -245l270 -255h-82l-253 240v-240h-60z" />
    <glyph glyph-name="uni04A2" unicode="&#x4a2;" horiz-adv-x="735" 
d="M90 0v700h60v-315h415v315h60v-640h80v-200h-60v140h-80v325h-415v-325h-60z" />
    <glyph glyph-name="uni04A3" unicode="&#x4a3;" horiz-adv-x="580" 
d="M80 0v500h60v-220h285v220h60v-440h75v-180h-60v120h-75v220h-285v-220h-60z" />
    <glyph glyph-name="uni04A4" unicode="&#x4a4;" horiz-adv-x="970" 
d="M90 0v700h60v-315h395v315h405v-60h-345v-640h-60v325h-395v-325h-60z" />
    <glyph glyph-name="uni04A5" unicode="&#x4a5;" horiz-adv-x="720" 
d="M80 0v500h60v-220h270v220h290v-60h-230v-440h-60v220h-270v-220h-60z" />
    <glyph glyph-name="uni04A6" unicode="&#x4a6;" horiz-adv-x="1035" 
d="M90 0v700h485v-352q17 10 42 21q52 21 118 21q112 0 181 -69.5t69 -185.5t-66 -183t-179 -67v60q82 0 133.5 52t51.5 138q0 90 -51.5 142.5t-138.5 52.5q-58 0 -116 -25q-19 -8 -44 -25v-280h-60v640h-365v-640h-60z" />
    <glyph glyph-name="uni04A7" unicode="&#x4a7;" horiz-adv-x="800" 
d="M80 0v500h365v-260q15 10 32 17q42 18 88 18q88 0 146.5 -64.5t58.5 -170.5q0 -110 -56 -175t-144 -65v60q59 0 99.5 48.5t40.5 131.5q0 80 -42.5 127.5t-107.5 47.5q-12 0 -23.5 -1.5t-21 -4t-19 -6t-16.5 -6.5t-13.5 -6.5t-10.5 -6t-8 -4.5l-3 -3v-177h-60v440h-245
v-440h-60z" />
    <glyph glyph-name="uni04A8" unicode="&#x4a8;" horiz-adv-x="785" 
d="M520 85q66 35 108 109.5t42 165.5q0 103 -45.5 161.5t-109.5 58.5t-109.5 -58.5t-45.5 -161.5q0 -91 44 -166t116 -109zM685 50v-60q-69 0 -122 15q-25 6 -43 15q-19 -9 -40 -15q-47 -15 -100 -15q-138 0 -231.5 100.5t-93.5 259.5q0 158 92 259t223 101v-60
q-104 0 -179.5 -84.5t-75.5 -215.5q0 -132 77 -216t188 -84q25 0 50 5q9 1 20 5q-150 102 -150 300q0 130 62 205t153 75t153 -75t62 -205q0 -198 -150 -300q17 -4 30 -5q32 -5 75 -5z" />
    <glyph glyph-name="uni04A9" unicode="&#x4a9;" 
d="M375 85q35 28 57.5 74t22.5 101q0 60 -23.5 92.5t-56.5 32.5t-56.5 -32.5t-23.5 -92.5q0 -120 80 -175zM495 50v-60q-63 0 -115 25q-52 -25 -100 -25q-99 0 -167 73t-68 187q0 115 65.5 187.5t164.5 72.5v-60q-70 0 -120 -55t-50 -145q0 -88 51 -144t124 -56q15 0 29 2
l11 3q-39 34 -62 88.5t-23 116.5q0 86 40.5 135.5t99.5 49.5t99.5 -49.5t40.5 -135.5q0 -62 -23 -116.5t-62 -88.5q14 -5 65 -5z" />
    <glyph glyph-name="uni04AA" unicode="&#x4aa;" horiz-adv-x="735" 
d="M355 -140v132q-130 10 -215 109t-85 249q0 159 94.5 259.5t235.5 100.5q120 0 199.5 -71.5t105.5 -163.5h-65q-8 20 -18 39.5t-31 45.5t-45.5 44.5t-63 32t-82.5 13.5q-115 0 -192.5 -83.5t-77.5 -216.5t77.5 -216.5t192.5 -83.5q56 0 102 20t73.5 51.5t42 57.5t22.5 51
h65q-25 -89 -97 -159t-178 -79v-132h-60z" />
    <glyph glyph-name="uni04AB" unicode="&#x4ab;" horiz-adv-x="540" 
d="M255 -120v111q-94 8 -152 78.5t-58 180.5q0 118 65.5 189t169.5 71q83 0 142 -45.5t78 -124.5h-65q-11 40 -49.5 75t-105.5 35q-77 0 -126 -54t-49 -146t49 -146t126 -54q66 0 105 37t50 78h65q-17 -74 -66 -118.5t-119 -53.5v-113h-60z" />
    <glyph glyph-name="uni04AC" unicode="&#x4ac;" horiz-adv-x="600" 
d="M350 -140v140h-80v640h-240v60h540v-60h-240v-580h80v-200h-60z" />
    <glyph glyph-name="uni04AD" unicode="&#x4ad;" horiz-adv-x="440" 
d="M265 -120v120h-75v440h-170v60h400v-60h-170v-380h75v-180h-60z" />
    <glyph glyph-name="uni04AE" unicode="&#x4ae;" horiz-adv-x="590" 
d="M265 0v263l-260 437h67l213 -360h20l213 360h67l-260 -437v-263h-60z" />
    <glyph glyph-name="uni04AF" unicode="&#x4af;" horiz-adv-x="480" 
d="M210 -200v200h-14l-186 500h60l160 -430h20l160 430h60l-186 -500h-14v-200h-60z" />
    <glyph glyph-name="uni04B0" unicode="&#x4b0;" horiz-adv-x="590" 
d="M265 0v260h-150v60h116l-226 380h67l213 -360h20l213 360h67l-226 -380h116v-60h-150v-260h-60z" />
    <glyph glyph-name="uni04B1" unicode="&#x4b1;" horiz-adv-x="480" 
d="M210 -200v200h-105v60h70l-165 440h60l160 -430h20l160 430h60l-165 -440h70v-60h-105v-200h-60z" />
    <glyph glyph-name="uni04B2" unicode="&#x4b2;" horiz-adv-x="615" 
d="M10 0l243 360l-228 340h70l195 -290h20l195 290h70l-228 -340l202 -300h66v-200h-60v140h-35l-210 310h-20l-210 -310h-70z" />
    <glyph glyph-name="uni04B3" unicode="&#x4b3;" horiz-adv-x="475" 
d="M10 0l168 255l-163 245h70l135 -205h20l135 205h70l-163 -245l128 -195h65v-180h-60v120h-35l-140 215h-20l-140 -215h-70z" />
    <glyph glyph-name="uni04B4" unicode="&#x4b4;" horiz-adv-x="855" 
d="M235 0v640h-220v60h500v-60h-220v-580h390v640h60v-640h80v-200h-60v140h-530z" />
    <glyph glyph-name="uni04B5" unicode="&#x4b5;" horiz-adv-x="655" 
d="M165 0v440h-155v60h355v-60h-140v-380h275v440h60v-440h75v-180h-60v120h-410z" />
    <glyph glyph-name="uni04B6" unicode="&#x4b6;" horiz-adv-x="695" 
d="M605 -140v140h-80v310q-32 -22 -61 -35q-72 -35 -154 -35q-235 0 -235 245v215h60v-215q0 -98 42 -141.5t133 -43.5q86 0 158 37q34 17 57 37v326h60v-640h80v-200h-60z" />
    <glyph glyph-name="uni04B7" unicode="&#x4b7;" horiz-adv-x="550" 
d="M470 -120v120h-75v203q-65 -43 -150 -43q-87 0 -133.5 47.5t-46.5 137.5v155h60v-155q0 -125 125 -125q85 0 145 45v235h60v-440h75v-180h-60z" />
    <glyph glyph-name="uni04B8" unicode="&#x4b8;" horiz-adv-x="675" 
d="M300 135v105q-225 5 -225 245v215h60v-215q0 -95 39.5 -139t125.5 -46v140h60v-137q66 10 122 42q22 12 43 29v326h60v-700h-60v310q-19 -14 -45 -27q-59 -30 -120 -40v-108h-60z" />
    <glyph glyph-name="uni04B9" unicode="&#x4b9;" horiz-adv-x="535" 
d="M235 95v65q-82 2 -126 50t-44 135v155h60v-155q0 -117 110 -125v96h55v-94q60 9 105 43v235h60v-500h-60v203q-42 -30 -105 -40v-68h-55z" />
    <glyph glyph-name="uni04BA" unicode="&#x4ba;" horiz-adv-x="670" 
d="M90 0v700h60v-310q24 17 61 35q80 35 154 35q235 0 235 -245v-215h-60v215q0 98 -42 141.5t-133 43.5q-84 0 -158 -38q-30 -15 -57 -37v-325h-60z" />
    <glyph glyph-name="uni04BB" unicode="&#x4bb;" horiz-adv-x="585" 
d="M85 0v700h60v-265h5q15 22 36 37q50 38 119 38q87 0 143.5 -58.5t56.5 -151.5v-300h-60v300q0 68 -40.5 109t-104.5 41q-68 0 -111.5 -43t-43.5 -107v-300h-60z" />
    <glyph glyph-name="uni04BC" unicode="&#x4bc;" horiz-adv-x="825" 
d="M180 380h530q-4 120 -79.5 195t-180.5 75q-107 0 -183.5 -74.5t-86.5 -195.5zM0 415v35h60v-20q0 -50 50 -50h10q10 147 103 238.5t227 91.5q136 0 228 -97t92 -243v-50h-590q10 -118 84.5 -194t185.5 -76q80 0 145.5 43t96.5 117h65q-36 -101 -119.5 -160.5
t-187.5 -59.5q-134 0 -227 91.5t-103 238.5h-20q-48 0 -74 25t-26 70z" />
    <glyph glyph-name="uni04BD" unicode="&#x4bd;" horiz-adv-x="610" 
d="M0 305v25h55v-10q0 -23 8 -31.5t27 -8.5h11q8 105 73 167.5t161 62.5q99 0 164.5 -69.5t65.5 -180.5q0 -15 -2 -29q-1 -4 -1 -11h-402q8 -77 57 -123.5t118 -46.5q55 0 93 27t57 63h65q-23 -60 -75 -105t-140 -45q-96 0 -161 62t-73 168h-16q-85 0 -85 85zM160 280h345
q-4 75 -51.5 122.5t-118.5 47.5q-72 0 -119.5 -45.5t-55.5 -124.5z" />
    <glyph glyph-name="uni04BE" unicode="&#x4be;" horiz-adv-x="825" 
d="M420 -140v132q-123 10 -207.5 99.5t-92.5 228.5h-20q-48 0 -74 25t-26 70v35h60v-20q0 -50 50 -50h10q10 147 103 238.5t227 91.5q136 0 228 -97t92 -243v-50h-590q10 -118 84.5 -194t185.5 -76q80 0 145.5 43t96.5 117h65q-35 -95 -107.5 -152.5t-169.5 -65.5v-132h-60z
M180 380h530q-4 120 -79.5 195t-180.5 75q-107 0 -183.5 -74.5t-86.5 -195.5z" />
    <glyph glyph-name="uni04BF" unicode="&#x4bf;" horiz-adv-x="610" 
d="M310 -120v111q-88 8 -144.5 69t-64.5 160h-16q-85 0 -85 85v25h55v-10q0 -23 8 -31.5t27 -8.5h11q8 105 73 167.5t161 62.5q99 0 164.5 -69.5t65.5 -180.5q0 -15 -2 -29q-1 -4 -1 -11h-402q8 -77 57 -123.5t118 -46.5q55 0 93 27t57 63h65q-54 -132 -180 -147v-113h-60z
M160 280h345q-4 75 -51.5 122.5t-118.5 47.5q-72 0 -119.5 -45.5t-55.5 -124.5z" />
    <glyph glyph-name="uni04C0" unicode="&#x4c0;" horiz-adv-x="240" 
d="M90 0v700h60v-700h-60z" />
    <glyph glyph-name="uni04C1" unicode="&#x4c1;" horiz-adv-x="800" 
d="M5 0l299 355l-279 345h75l270 -335v335h60v-335l270 335h75l-279 -345l299 -355h-75l-290 345v-345h-60v345l-290 -345h-75zM265 905h55q4 -33 25 -51.5t55 -18.5t55 18.5t25 51.5h55q-4 -56 -40.5 -88t-94.5 -32t-94.5 32t-40.5 88z" />
    <glyph glyph-name="uni04C2" unicode="&#x4c2;" horiz-adv-x="630" 
d="M0 0l220 255l-205 245h74l196 -235v235h60v-235l196 235h74l-205 -245l220 -255h-74l-211 245v-245h-60v245l-211 -245h-74zM180 710h55q4 -33 25 -51.5t55 -18.5t55 18.5t25 51.5h55q-4 -56 -40.5 -88t-94.5 -32t-94.5 32t-40.5 88z" />
    <glyph glyph-name="uni04C3" unicode="&#x4c3;" horiz-adv-x="610" 
d="M90 0v700h60v-330l315 330h80l-281 -294l14 2q16 2 32 2q118 0 184 -68t66 -192q0 -127 -65 -196t-180 -69v60q85 0 135 54t50 151q0 93 -51 146.5t-139 53.5q-62 0 -118 -25q-23 -9 -42 -25v-300h-60z" />
    <glyph glyph-name="uni04C4" unicode="&#x4c4;" horiz-adv-x="505" 
d="M245 -200v60q81 0 128 49.5t47 145.5q0 82 -44.5 128.5t-120.5 46.5q-44 0 -84 -18q-15 -6 -31 -17v-195h-60v500h60v-230l243 230h82l-224 -211h6q1 0 5.5 0.5t7.5 0.5q96 0 158 -63t62 -172q0 -119 -63 -187t-172 -68z" />
    <glyph glyph-name="uni04C5" unicode="&#x4c5;" horiz-adv-x="675" 
d="M0 -5v60h30q39 0 62.5 23t27.5 67l47 555h418v-640h90v-15l-60 -185h-45l30 140h-75v640h-303l-42 -495q-14 -150 -150 -150h-30z" />
    <glyph glyph-name="uni04C6" unicode="&#x4c6;" horiz-adv-x="540" 
d="M0 -5v60h25q35 0 53 18t22 62l30 365h325v-440h85v-10l-50 -170h-45l25 120h-75v440h-210l-25 -305q-6 -72 -38.5 -106t-96.5 -34h-25z" />
    <glyph glyph-name="uni04C7" unicode="&#x4c7;" horiz-adv-x="715" 
d="M90 0v700h60v-315h415v315h60v-760q0 -140 -140 -140h-15v60h15q80 0 80 80v385h-415v-325h-60z" />
    <glyph glyph-name="uni04C8" unicode="&#x4c8;" horiz-adv-x="565" 
d="M80 0v500h60v-220h285v220h60v-555q0 -75 -34 -110t-106 -35h-10v60h10q42 0 61 20t19 65v275h-285v-220h-60z" />
    <glyph glyph-name="uni04C9" unicode="&#x4c9;" horiz-adv-x="715" 
d="M90 0v700h60v-315h415v315h60v-640h90v-15l-60 -185h-45l30 140h-75v325h-415v-325h-60z" />
    <glyph glyph-name="uni04CA" unicode="&#x4ca;" horiz-adv-x="570" 
d="M80 0v500h60v-220h285v220h60v-440h85v-10l-50 -170h-45l25 120h-75v220h-285v-220h-60z" />
    <glyph glyph-name="uni04CB" unicode="&#x4cb;" horiz-adv-x="675" 
d="M445 -140v200h80v250q-32 -22 -61 -35q-72 -35 -154 -35q-235 0 -235 245v215h60v-215q0 -98 42 -141.5t133 -43.5q86 0 158 37q34 17 57 37v326h60v-700h-80v-140h-60z" />
    <glyph glyph-name="uni04CC" unicode="&#x4cc;" horiz-adv-x="535" 
d="M320 -120v180h75v143q-65 -43 -150 -43q-87 0 -133.5 47.5t-46.5 137.5v155h60v-155q0 -125 125 -125q85 0 145 45v235h60v-500h-75v-120h-60z" />
    <glyph glyph-name="uni04CD" unicode="&#x4cd;" horiz-adv-x="900" 
d="M90 0v700h115l235 -640h20l235 640h115v-640h90v-15l-60 -185h-45l30 140h-75v625h-20l-230 -625h-100l-230 625h-20v-625h-60z" />
    <glyph glyph-name="uni04CE" unicode="&#x4ce;" horiz-adv-x="725" 
d="M80 0v500h117l153 -435h20l153 435h117v-440h85v-10l-50 -170h-45l25 120h-75v435h-20l-153 -435h-94l-153 435h-20v-435h-60z" />
    <glyph glyph-name="uni04CF" unicode="&#x4cf;" horiz-adv-x="230" 
d="M85 0v700h60v-700h-60z" />
    <glyph glyph-name="uni04D0" unicode="&#x4d0;" horiz-adv-x="630" 
d="M5 0l265 700h90l265 -700h-60l-72 190h-356l-72 -190h-60zM160 250h310l-145 385h-20zM180 905h55q4 -33 25 -51.5t55 -18.5t55 18.5t25 51.5h55q-4 -56 -40.5 -88t-94.5 -32t-94.5 32t-40.5 88z" />
    <glyph glyph-name="uni04D1" unicode="&#x4d1;" horiz-adv-x="535" 
d="M405 0l-10 70h-5q-15 -21 -41 -40q-56 -40 -124 -40q-77 0 -123.5 43t-46.5 112q0 71 50 113t145 42h145v20q0 130 -130 130q-59 0 -94.5 -26t-40.5 -69h-60q9 67 59 111t136 44q91 0 140.5 -49.5t49.5 -140.5v-320h-50zM395 220v25h-145q-66 0 -100.5 -28t-34.5 -72
q0 -43 29 -69t81 -26q79 0 124.5 45.5t45.5 124.5zM130 710h55q4 -33 25 -51.5t55 -18.5t55 18.5t25 51.5h55q-4 -56 -40.5 -88t-94.5 -32t-94.5 32t-40.5 88z" />
    <glyph glyph-name="uni04D2" unicode="&#x4d2;" horiz-adv-x="630" 
d="M5 0l265 700h90l265 -700h-60l-72 190h-356l-72 -190h-60zM160 250h310l-145 385h-20zM195 810v70h70v-70h-70zM365 810v70h70v-70h-70z" />
    <glyph glyph-name="uni04D3" unicode="&#x4d3;" horiz-adv-x="535" 
d="M405 0l-10 70h-5q-15 -21 -41 -40q-56 -40 -124 -40q-77 0 -123.5 43t-46.5 112q0 71 50 113t145 42h145v20q0 130 -130 130q-59 0 -94.5 -26t-40.5 -69h-60q9 67 59 111t136 44q91 0 140.5 -49.5t49.5 -140.5v-320h-50zM395 220v25h-145q-66 0 -100.5 -28t-34.5 -72
q0 -43 29 -69t81 -26q79 0 124.5 45.5t45.5 124.5zM145 615v70h70v-70h-70zM315 615v70h70v-70h-70z" />
    <glyph glyph-name="uni04D6" unicode="&#x4d6;" horiz-adv-x="595" 
d="M90 0v700h440v-60h-380v-260h360v-60h-360v-260h380v-60h-440zM175 905h55q4 -33 25 -51.5t55 -18.5t55 18.5t25 51.5h55q-4 -56 -40.5 -88t-94.5 -32t-94.5 32t-40.5 88z" />
    <glyph glyph-name="uni04D7" unicode="&#x4d7;" horiz-adv-x="555" 
d="M105 280h345q-4 75 -51.5 122.5t-118.5 47.5q-72 0 -119.5 -45.5t-55.5 -124.5zM430 140h65q-22 -62 -74.5 -106t-140.5 -44q-104 0 -169.5 71t-65.5 189t65.5 189t169.5 71q99 0 164.5 -69.5t65.5 -180.5q0 -15 -2 -29q-1 -4 -1 -11h-402q8 -77 57 -123.5t118 -46.5
q55 0 93 27t57 63zM145 710h55q4 -33 25 -51.5t55 -18.5t55 18.5t25 51.5h55q-4 -56 -40.5 -88t-94.5 -32t-94.5 32t-40.5 88z" />
    <glyph glyph-name="uni04D8" unicode="&#x4d8;" horiz-adv-x="760" 
d="M645 320h-530q4 -120 79.5 -195t180.5 -75q107 0 183.5 74.5t86.5 195.5zM55 330v50h590q-10 118 -84.5 194t-185.5 76q-79 0 -144.5 -43t-97.5 -117h-65q36 101 119 160.5t188 59.5q141 0 235.5 -100.5t94.5 -259.5t-94.5 -259.5t-235.5 -100.5q-136 0 -228 97t-92 243z
" />
    <glyph glyph-name="uni04D9" unicode="&#x4d9;" horiz-adv-x="555" 
d="M48 280h402q-8 77 -57 123.5t-118 46.5q-54 0 -93.5 -27.5t-56.5 -62.5h-65q22 62 74.5 106t140.5 44q104 0 169.5 -71t65.5 -189t-65.5 -189t-169.5 -71q-99 0 -164.5 69.5t-65.5 180.5q0 22 1 29zM450 220h-345q4 -75 51.5 -122.5t118.5 -47.5q72 0 119.5 45.5
t55.5 124.5z" />
    <glyph glyph-name="uni04DA" unicode="&#x4da;" horiz-adv-x="760" 
d="M645 320h-530q4 -120 79.5 -195t180.5 -75q107 0 183.5 74.5t86.5 195.5zM55 330v50h590q-10 118 -84.5 194t-185.5 76q-79 0 -144.5 -43t-97.5 -117h-65q36 101 119 160.5t188 59.5q141 0 235.5 -100.5t94.5 -259.5t-94.5 -259.5t-235.5 -100.5q-136 0 -228 97t-92 243z
M260 810v70h70v-70h-70zM430 810v70h70v-70h-70z" />
    <glyph glyph-name="uni04DB" unicode="&#x4db;" horiz-adv-x="555" 
d="M48 280h402q-8 77 -57 123.5t-118 46.5q-54 0 -93.5 -27.5t-56.5 -62.5h-65q22 62 74.5 106t140.5 44q104 0 169.5 -71t65.5 -189t-65.5 -189t-169.5 -71q-99 0 -164.5 69.5t-65.5 180.5q0 22 1 29zM450 220h-345q4 -75 51.5 -122.5t118.5 -47.5q72 0 119.5 45.5
t55.5 124.5zM160 615v70h70v-70h-70zM330 615v70h70v-70h-70z" />
    <glyph glyph-name="uni04DC" unicode="&#x4dc;" horiz-adv-x="800" 
d="M5 0l299 355l-279 345h75l270 -335v335h60v-335l270 335h75l-279 -345l299 -355h-75l-290 345v-345h-60v345l-290 -345h-75zM280 810v70h70v-70h-70zM450 810v70h70v-70h-70z" />
    <glyph glyph-name="uni04DD" unicode="&#x4dd;" horiz-adv-x="630" 
d="M0 0l220 255l-205 245h74l196 -235v235h60v-235l196 235h74l-205 -245l220 -255h-74l-211 245v-245h-60v245l-211 -245h-74zM195 615v70h70v-70h-70zM365 615v70h70v-70h-70z" />
    <glyph glyph-name="uni04DE" unicode="&#x4de;" horiz-adv-x="605" 
d="M45 190h60q0 -59 50 -99.5t140 -40.5q86 0 138 42t52 98q0 54 -44 92t-116 38h-80v60h80q62 0 103.5 38.5t41.5 91.5q0 58 -48 99t-127 41t-127 -41t-48 -99h-60q0 84 65 142t170 58t170 -58t65 -142q0 -74 -55 -123q-27 -22 -55 -32v-5q35 -12 62 -33q63 -49 63 -127
q0 -85 -67 -142.5t-183 -57.5t-183 57.5t-67 142.5zM180 810v70h70v-70h-70zM350 810v70h70v-70h-70z" />
    <glyph glyph-name="uni04DF" unicode="&#x4df;" horiz-adv-x="460" 
d="M35 155h60q0 -47 34 -76t96 -29q64 0 97 24t33 61q0 41 -32.5 65.5t-97.5 24.5h-40v55h45q54 0 84.5 24.5t30.5 60.5t-31.5 60.5t-88.5 24.5q-55 0 -87.5 -28.5t-32.5 -71.5h-60q0 69 49.5 114.5t130.5 45.5q84 0 132 -41.5t48 -103.5q0 -53 -40 -87q-19 -16 -40 -23v-5
q10 -3 22.5 -9.5t29 -19.5t27.5 -35.5t11 -50.5q0 -63 -50 -104t-140 -41q-88 0 -139 46t-51 119zM110 615v70h70v-70h-70zM280 615v70h70v-70h-70z" />
    <glyph glyph-name="uni04E0" unicode="&#x4e0;" horiz-adv-x="585" 
d="M40 180h60q0 -55 48 -92.5t137 -37.5q91 0 138 40t47 110q0 74 -46.5 114.5t-138.5 40.5h-120v60l265 225h-370v60h455v-60l-260 -220v-5h30q118 0 181.5 -58t63.5 -157q0 -96 -64 -153t-181 -57q-120 0 -182.5 52t-62.5 138z" />
    <glyph glyph-name="uni04E1" unicode="&#x4e1;" horiz-adv-x="485" 
d="M25 -15h60q0 -59 43 -97t107 -38q73 0 114 39.5t41 110.5q0 73 -44 114t-126 41h-90v60l225 225h-305v60h380v-60l-220 -220v-5q115 0 177.5 -57.5t62.5 -157.5q0 -94 -59 -152t-156 -58q-93 0 -151.5 55.5t-58.5 139.5z" />
    <glyph glyph-name="uni04E2" unicode="&#x4e2;" horiz-adv-x="715" 
d="M90 0v700h60v-635h20l345 635h110v-700h-60v635h-20l-345 -635h-110zM220 815v50h280v-50h-280z" />
    <glyph glyph-name="uni04E3" unicode="&#x4e3;" horiz-adv-x="565" 
d="M80 0v500h60v-435h20l215 435h110v-500h-60v435h-20l-215 -435h-110zM145 625v50h280v-50h-280z" />
    <glyph glyph-name="uni04E4" unicode="&#x4e4;" horiz-adv-x="715" 
d="M90 0v700h60v-635h20l345 635h110v-700h-60v635h-20l-345 -635h-110zM240 810v70h70v-70h-70zM410 810v70h70v-70h-70z" />
    <glyph glyph-name="uni04E5" unicode="&#x4e5;" horiz-adv-x="565" 
d="M80 0v500h60v-435h20l215 435h110v-500h-60v435h-20l-215 -435h-110zM165 615v70h70v-70h-70zM335 615v70h70v-70h-70z" />
    <glyph glyph-name="uni04E6" unicode="&#x4e6;" horiz-adv-x="770" 
d="M385 710q141 0 235.5 -100.5t94.5 -259.5t-94.5 -259.5t-235.5 -100.5t-235.5 100.5t-94.5 259.5t94.5 259.5t235.5 100.5zM385 50q115 0 192.5 83.5t77.5 216.5t-77.5 216.5t-192.5 83.5t-192.5 -83.5t-77.5 -216.5t77.5 -216.5t192.5 -83.5zM265 810v70h70v-70h-70z
M435 810v70h70v-70h-70z" />
    <glyph glyph-name="uni04E7" unicode="&#x4e7;" 
d="M280 -10q-99 0 -167 73t-68 187t68 187t167 73t167 -73t68 -187t-68 -187t-167 -73zM455 250q0 88 -51 144t-124 56t-124 -56t-51 -144t51 -144t124 -56t124 56t51 144zM160 615v70h70v-70h-70zM330 615v70h70v-70h-70z" />
    <glyph glyph-name="uni04E8" unicode="&#x4e8;" horiz-adv-x="770" 
d="M385 -10q-141 0 -235.5 100.5t-94.5 259.5t94.5 259.5t235.5 100.5t235.5 -100.5t94.5 -259.5t-94.5 -259.5t-235.5 -100.5zM116 380h537q-10 121 -85.5 195.5t-182.5 74.5q-108 0 -183.5 -74.5t-85.5 -195.5zM653 320h-537q10 -121 85.5 -195.5t183.5 -74.5
q107 0 182.5 74.5t85.5 195.5z" />
    <glyph glyph-name="uni04E9" unicode="&#x4e9;" 
d="M280 -10q-99 0 -167 73t-68 187t68 187t167 73t167 -73t68 -187t-68 -187t-167 -73zM107 280h346q-10 76 -58 123t-115 47q-66 0 -115.5 -47t-57.5 -123zM453 220h-346q8 -76 57.5 -123t115.5 -47q67 0 115 46.5t58 123.5z" />
    <glyph glyph-name="uni04EA" unicode="&#x4ea;" horiz-adv-x="770" 
d="M385 -10q-141 0 -235.5 100.5t-94.5 259.5t94.5 259.5t235.5 100.5t235.5 -100.5t94.5 -259.5t-94.5 -259.5t-235.5 -100.5zM116 380h537q-10 121 -85.5 195.5t-182.5 74.5q-108 0 -183.5 -74.5t-85.5 -195.5zM653 320h-537q10 -121 85.5 -195.5t183.5 -74.5
q107 0 182.5 74.5t85.5 195.5zM265 810v70h70v-70h-70zM435 810v70h70v-70h-70z" />
    <glyph glyph-name="uni04EB" unicode="&#x4eb;" 
d="M280 -10q-99 0 -167 73t-68 187t68 187t167 73t167 -73t68 -187t-68 -187t-167 -73zM107 280h346q-10 76 -58 123t-115 47q-66 0 -115.5 -47t-57.5 -123zM453 220h-346q8 -76 57.5 -123t115.5 -47q67 0 115 46.5t58 123.5zM160 615v70h70v-70h-70zM330 615v70h70v-70h-70
z" />
    <glyph glyph-name="uni04EC" unicode="&#x4ec;" horiz-adv-x="740" 
d="M45 225h65q8 -22 23.5 -47t44 -56.5t75 -51.5t102.5 -20q108 0 183.5 75t85.5 195h-359v60h359q-10 120 -85.5 195t-183.5 75q-56 0 -102.5 -19.5t-75 -49.5t-44 -54.5t-23.5 -46.5h-65q6 26 20.5 55t41 60.5t60.5 56.5t83 41.5t105 16.5q141 0 235.5 -100.5t94.5 -259.5
t-94.5 -259.5t-235.5 -100.5q-57 0 -106.5 17t-83 42.5t-60 58.5t-40.5 62t-20 55zM245 810v70h70v-70h-70zM415 810v70h70v-70h-70z" />
    <glyph glyph-name="uni04ED" unicode="&#x4ed;" horiz-adv-x="535" 
d="M35 160h65q12 -39 50.5 -74.5t104.5 -35.5q70 0 117.5 45t55.5 125h-233v60h233q-8 80 -55.5 125t-117.5 45q-67 0 -105 -34t-50 -71h-65q19 75 78 120t142 45q104 0 169.5 -71t65.5 -189t-65.5 -189t-169.5 -71q-83 0 -142 45.5t-78 124.5zM145 615v70h70v-70h-70z
M315 615v70h70v-70h-70z" />
    <glyph glyph-name="uni04EE" unicode="&#x4ee;" horiz-adv-x="600" 
d="M100 0v60h90q39 0 55 34l29 64l-259 542h65l215 -450h21l204 450h65l-290 -640q-15 -31 -38.5 -45.5t-66.5 -14.5h-90zM165 815v50h280v-50h-280z" />
    <glyph glyph-name="uni04EF" unicode="&#x4ef;" horiz-adv-x="470" 
d="M60 -200v60h85q17 0 25.5 8t14.5 24l27 76l-202 532h60l160 -425h20l150 425h60l-225 -635q-24 -65 -90 -65h-85zM100 625v50h280v-50h-280z" />
    <glyph glyph-name="uni04F0" unicode="&#x4f0;" horiz-adv-x="600" 
d="M100 0v60h90q39 0 55 34l29 64l-259 542h65l215 -450h21l204 450h65l-290 -640q-15 -31 -38.5 -45.5t-66.5 -14.5h-90zM185 810v70h70v-70h-70zM355 810v70h70v-70h-70z" />
    <glyph glyph-name="uni04F1" unicode="&#x4f1;" horiz-adv-x="470" 
d="M60 -200v60h85q17 0 25.5 8t14.5 24l27 76l-202 532h60l160 -425h20l150 425h60l-225 -635q-24 -65 -90 -65h-85zM120 615v70h70v-70h-70zM290 615v70h70v-70h-70z" />
    <glyph glyph-name="uni04F2" unicode="&#x4f2;" horiz-adv-x="600" 
d="M100 0v60h90q39 0 55 34l29 64l-259 542h65l215 -450h21l204 450h65l-290 -640q-15 -31 -38.5 -45.5t-66.5 -14.5h-90zM200 775l90 130h70l-105 -130h-55zM345 775l90 130h70l-105 -130h-55z" />
    <glyph glyph-name="uni04F3" unicode="&#x4f3;" horiz-adv-x="470" 
d="M60 -200v60h85q17 0 25.5 8t14.5 24l27 76l-202 532h60l160 -425h20l150 425h60l-225 -635q-24 -65 -90 -65h-85zM135 585l90 130h70l-105 -130h-55zM280 585l90 130h70l-105 -130h-55z" />
    <glyph glyph-name="uni04F4" unicode="&#x4f4;" horiz-adv-x="675" 
d="M525 0v310q-32 -22 -61 -35q-72 -35 -154 -35q-235 0 -235 245v215h60v-215q0 -98 42 -141.5t133 -43.5q86 0 158 37q34 17 57 37v326h60v-700h-60zM210 810v70h70v-70h-70zM380 810v70h70v-70h-70z" />
    <glyph glyph-name="uni04F5" unicode="&#x4f5;" horiz-adv-x="535" 
d="M395 0v203q-65 -43 -150 -43q-87 0 -133.5 47.5t-46.5 137.5v155h60v-155q0 -125 125 -125q85 0 145 45v235h60v-500h-60zM140 615v70h70v-70h-70zM310 615v70h70v-70h-70z" />
    <glyph glyph-name="uni04F6" unicode="&#x4f6;" horiz-adv-x="540" 
d="M170 -140v140h-80v700h430v-60h-370v-580h80v-200h-60z" />
    <glyph glyph-name="uni04F7" unicode="&#x4f7;" horiz-adv-x="410" 
d="M155 -120v120h-75v500h310v-60h-250v-380h75v-180h-60z" />
    <glyph glyph-name="uni04F8" unicode="&#x4f8;" horiz-adv-x="795" 
d="M645 0v700h60v-700h-60zM90 0v700h60v-265h200q88 0 146.5 -61.5t58.5 -158.5q0 -93 -59 -154t-146 -61h-260zM150 60h200q65 0 105 42t40 113q0 74 -40 117t-105 43h-200v-315zM280 810v70h70v-70h-70zM450 810v70h70v-70h-70z" />
    <glyph glyph-name="uni04F9" unicode="&#x4f9;" horiz-adv-x="670" 
d="M530 0v500h60v-500h-60zM80 0v500h60v-175h140q75 0 122.5 -46.5t47.5 -118.5q0 -68 -48 -114t-122 -46h-200zM140 60h145q48 0 76.5 27.5t28.5 72.5q0 49 -28 77t-77 28h-145v-205zM215 615v70h70v-70h-70zM385 615v70h70v-70h-70z" />
    <glyph glyph-name="uni04FA" unicode="&#x4fa;" horiz-adv-x="550" 
d="M125 -195v60h15q24 0 34.5 13.5t10.5 46.5v75h-80v325h-85v60h85v315h420v-60h-360v-255h195v-60h-195v-265h80v-135q0 -67 -23.5 -93.5t-81.5 -26.5h-15z" />
    <glyph glyph-name="uni04FB" unicode="&#x4fb;" horiz-adv-x="415" 
d="M100 -175v60h15q24 0 34.5 13.5t10.5 46.5v55h-75v220h-70v60h70v220h310v-60h-250v-160h180v-60h-180v-160h75v-115q0 -63 -25.5 -91.5t-79.5 -28.5h-15z" />
    <glyph glyph-name="uni04FC" unicode="&#x4fc;" horiz-adv-x="605" 
d="M10 0l243 360l-228 340h70l195 -290h20l195 290h70l-228 -340l183 -270q70 -102 70 -175q0 -54 -36 -84.5t-99 -30.5h-20v60h20q70 0 70 60q0 63 -75 170l-150 220h-20l-210 -310h-70z" />
    <glyph glyph-name="uni04FD" unicode="&#x4fd;" horiz-adv-x="465" 
d="M10 0l168 255l-163 245h70l135 -205h20l135 205h70l-163 -245l126 -190q52 -77 52 -140q0 -59 -34 -92t-101 -33h-20v60h20q75 0 75 65q0 31 -13 59t-49 81l-98 150h-20l-140 -215h-70z" />
    <glyph glyph-name="uni04FE" unicode="&#x4fe;" horiz-adv-x="600" 
d="M10 0l222 330h-122v60h123l-208 310h70l195 -290h20l195 290h70l-208 -310h123v-60h-122l222 -330h-70l-210 310h-20l-210 -310h-70z" />
    <glyph glyph-name="uni04FF" unicode="&#x4ff;" horiz-adv-x="460" 
d="M10 0l148 225h-78v55h81l-146 220h70l135 -205h20l135 205h70l-147 -220h82v-55h-78l148 -225h-70l-140 215h-20l-140 -215h-70z" />
    <glyph glyph-name="uni0510" unicode="&#x510;" horiz-adv-x="605" 
d="M185 350v5q-30 10 -55 32q-55 47 -55 123q0 84 65 142t170 58q110 0 175 -53t65 -137h-60q-2 59 -47.5 94.5t-132.5 35.5q-79 0 -127 -41t-48 -99q0 -53 41.5 -91.5t103.5 -38.5h80v-60h-80q-72 0 -116 -38t-44 -92q0 -56 52 -98t138 -42q93 0 143 38t52 92h60
q0 -78 -69.5 -134t-185.5 -56t-183 57.5t-67 142.5q0 79 62 127q27 21 63 33z" />
    <glyph glyph-name="uni0511" unicode="&#x511;" horiz-adv-x="465" 
d="M135 250v5q-21 7 -40 23q-40 34 -40 87q0 62 48 103.5t132 41.5t134.5 -43.5t50.5 -106.5h-60q0 39 -34.5 64.5t-90.5 25.5q-57 0 -88.5 -24.5t-31.5 -60.5t30.5 -60.5t84.5 -24.5h45v-55h-40q-65 0 -97.5 -24.5t-32.5 -65.5q0 -37 33 -61t97 -24q63 0 99 26t36 69h60
q0 -69 -53 -112t-142 -43q-90 0 -140 41t-50 104q0 52 31 80t59 35z" />
    <glyph glyph-name="uni0512" unicode="&#x512;" horiz-adv-x="675" 
d="M0 -5v60h30q39 0 62.5 23t27.5 67l47 555h418v-760q0 -140 -140 -140h-15v60h15q80 0 80 80v700h-303l-42 -495q-14 -150 -150 -150h-30z" />
    <glyph glyph-name="uni0513" unicode="&#x513;" horiz-adv-x="535" 
d="M0 -5v60h25q35 0 53 18t22 62l30 365h325v-555q0 -75 -34 -110t-106 -35h-10v60h10q42 0 61 20t19 65v495h-210l-25 -305q-6 -72 -38.5 -106t-96.5 -34h-25z" />
    <glyph glyph-name="Wgrave" unicode="&#x1e80;" horiz-adv-x="950" 
d="M195 0l-175 700h63l159 -640h21l162 640h100l162 -640h21l159 640h63l-175 -700h-115l-155 615h-20l-155 -615h-115zM445 775l-105 130h70l90 -130h-55z" />
    <glyph glyph-name="wgrave" unicode="&#x1e81;" horiz-adv-x="760" 
d="M155 0l-135 500h60l115 -435h20l115 435h100l115 -435h20l115 435h60l-135 -500h-100l-115 425h-20l-116 -425h-99zM350 585l-105 130h70l90 -130h-55z" />
    <glyph glyph-name="Wacute" unicode="&#x1e82;" horiz-adv-x="950" 
d="M195 0l-175 700h63l159 -640h21l162 640h100l162 -640h21l159 640h63l-175 -700h-115l-155 615h-20l-155 -615h-115zM450 775l90 130h70l-105 -130h-55z" />
    <glyph glyph-name="wacute" unicode="&#x1e83;" horiz-adv-x="760" 
d="M155 0l-135 500h60l115 -435h20l115 435h100l115 -435h20l115 435h60l-135 -500h-100l-115 425h-20l-116 -425h-99zM355 585l90 130h70l-105 -130h-55z" />
    <glyph glyph-name="Wdieresis" unicode="&#x1e84;" horiz-adv-x="950" 
d="M195 0l-175 700h63l159 -640h21l162 640h100l162 -640h21l159 640h63l-175 -700h-115l-155 615h-20l-155 -615h-115zM355 810v70h70v-70h-70zM525 810v70h70v-70h-70z" />
    <glyph glyph-name="wdieresis" unicode="&#x1e85;" horiz-adv-x="760" 
d="M155 0l-135 500h60l115 -435h20l115 435h100l115 -435h20l115 435h60l-135 -500h-100l-115 425h-20l-116 -425h-99zM260 615v70h70v-70h-70zM430 615v70h70v-70h-70z" />
    <glyph glyph-name="uni1E9E" unicode="&#x1e9e;" horiz-adv-x="675" 
d="M85 0v505q0 91 52 143t143 52h315v-55l-215 -235v-5q114 0 177 -55.5t63 -144.5q0 -92 -61.5 -148.5t-168.5 -56.5h-90v60h90q81 0 125.5 39.5t44.5 105.5q0 62 -44.5 101t-125.5 39h-85v65l210 230h-235q-64 0 -99.5 -35.5t-35.5 -99.5v-505h-60z" />
    <glyph glyph-name="Ygrave" unicode="&#x1ef2;" horiz-adv-x="590" 
d="M265 0v263l-260 437h67l213 -360h20l213 360h67l-260 -437v-263h-60zM265 775l-105 130h70l90 -130h-55z" />
    <glyph glyph-name="ygrave" unicode="&#x1ef3;" horiz-adv-x="470" 
d="M60 -200v60h85q17 0 25.5 8t14.5 24l27 76l-202 532h60l160 -425h20l150 425h60l-225 -635q-24 -65 -90 -65h-85zM210 585l-105 130h70l90 -130h-55z" />
    <glyph glyph-name="endash" unicode="&#x2013;" horiz-adv-x="550" 
d="M40 260v55h470v-55h-470z" />
    <glyph glyph-name="emdash" unicode="&#x2014;" horiz-adv-x="730" 
d="M40 260v55h650v-55h-650z" />
    <glyph glyph-name="quoteleft" unicode="&#x2018;" horiz-adv-x="200" 
d="M50 545l40 155h50l-20 -155h-70z" />
    <glyph glyph-name="quoteright" unicode="&#x2019;" horiz-adv-x="200" 
d="M60 545l20 155h70l-40 -155h-50z" />
    <glyph glyph-name="quotesinglbase" unicode="&#x201a;" horiz-adv-x="210" 
d="M50 -80l25 155h65l-40 -155h-50z" />
    <glyph glyph-name="quotedblleft" unicode="&#x201c;" horiz-adv-x="320" 
d="M170 545l40 155h50l-20 -155h-70zM50 545l40 155h50l-20 -155h-70z" />
    <glyph glyph-name="quotedblright" unicode="&#x201d;" horiz-adv-x="320" 
d="M180 545l20 155h70l-40 -155h-50zM60 545l20 155h70l-40 -155h-50z" />
    <glyph glyph-name="quotedblbase" unicode="&#x201e;" horiz-adv-x="330" 
d="M170 -80l25 155h65l-40 -155h-50zM50 -80l25 155h65l-40 -155h-50z" />
    <glyph glyph-name="dagger" unicode="&#x2020;" horiz-adv-x="460" 
d="M200 0v475h-150v55h150v170h60v-170h150v-55h-150v-475h-60z" />
    <glyph glyph-name="daggerdbl" unicode="&#x2021;" horiz-adv-x="460" 
d="M200 0v205h-150v55h150v215h-150v55h150v170h60v-170h150v-55h-150v-215h150v-55h-150v-205h-60z" />
    <glyph glyph-name="bullet" unicode="&#x2022;" horiz-adv-x="400" 
d="M200 190q-34 0 -57 23t-23 57t23 57t57 23t57 -23t23 -57t-23 -57t-57 -23z" />
    <glyph glyph-name="ellipsis" unicode="&#x2026;" horiz-adv-x="630" 
d="M280 0v70h70v-70h-70zM490 0v70h70v-70h-70zM70 0v70h70v-70h-70z" />
    <glyph glyph-name="perthousand" unicode="&#x2030;" horiz-adv-x="1130" 
d="M130 0l435 700h60l-435 -700h-60zM195 400q-64 0 -107 43.5t-43 111.5t43 111.5t107 43.5t107 -43.5t43 -111.5t-43 -111.5t-107 -43.5zM195 455q42 0 68.5 27.5t26.5 72.5t-26.5 72.5t-68.5 27.5t-68.5 -27.5t-26.5 -72.5t26.5 -72.5t68.5 -27.5zM565 -10
q-64 0 -107 43.5t-43 111.5t43 111.5t107 43.5t107 -43.5t43 -111.5t-43 -111.5t-107 -43.5zM565 45q42 0 68.5 27.5t26.5 72.5t-26.5 72.5t-68.5 27.5t-68.5 -27.5t-26.5 -72.5t26.5 -72.5t68.5 -27.5zM935 -10q-64 0 -107 43.5t-43 111.5t43 111.5t107 43.5t107 -43.5
t43 -111.5t-43 -111.5t-107 -43.5zM935 45q42 0 68.5 27.5t26.5 72.5t-26.5 72.5t-68.5 27.5t-68.5 -27.5t-26.5 -72.5t26.5 -72.5t68.5 -27.5z" />
    <glyph glyph-name="guilsinglleft" unicode="&#x2039;" horiz-adv-x="315" 
d="M193 60l-138 190l138 190h67l-140 -190l140 -190h-67z" />
    <glyph glyph-name="guilsinglright" unicode="&#x203a;" horiz-adv-x="315" 
d="M55 60l140 190l-140 190h67l138 -190l-138 -190h-67z" />
    <glyph glyph-name="uni203D" unicode="&#x203d;" horiz-adv-x="510" 
d="M215 160v487q-56 -10 -88 -46t-32 -86h-60q0 83 59.5 139t155.5 56q92 0 153.5 -58.5t61.5 -141.5q0 -126 -110 -185q-47 -26 -63.5 -48t-16.5 -57v-60h-60zM275 648v-304l14 9q16 10 26 15q47 25 68.5 57.5t21.5 84.5q0 55 -35.5 93t-94.5 45zM210 0v70h70v-70h-70z" />
    <glyph glyph-name="fraction" unicode="&#x2044;" horiz-adv-x="125" 
d="M-185 0l435 700h60l-435 -700h-60z" />
    <glyph glyph-name="uni2070" unicode="&#x2070;" horiz-adv-x="350" 
d="M175 485q37 0 61 34t24 101t-24 101t-61 34t-61 -34t-24 -101t24 -101t61 -34zM175 435q-62 0 -101 48.5t-39 136.5t39 136.5t101 48.5t101 -48.5t39 -136.5t-39 -136.5t-101 -48.5z" />
    <glyph glyph-name="uni2074" unicode="&#x2074;" horiz-adv-x="310" 
d="M5 520v40l140 240h85v-230h50v-50h-50v-80h-55v80h-170zM70 570h105v170h-10l-95 -165v-5z" />
    <glyph glyph-name="uni2075" unicode="&#x2075;" horiz-adv-x="335" 
d="M35 540h55q16 -55 75 -55q34 0 54.5 20.5t20.5 54.5q0 33 -20 54t-50 21q-47 0 -75 -35h-55l20 200h215v-50h-165l-10 -90h5q33 25 70 25q50 0 85 -35t35 -90q0 -53 -37 -89t-93 -36q-111 0 -130 105z" />
    <glyph glyph-name="uni2076" unicode="&#x2076;" horiz-adv-x="340" 
d="M65 640l100 160h55q-22 -36 -80 -127h5l10 3q9 4 25 4q49 0 84.5 -36.5t35.5 -88.5q0 -49 -37.5 -84.5t-92.5 -35.5t-92.5 35.5t-37.5 84.5q0 43 25 85zM95 555q0 -30 21 -50t54 -20t54 20t21 50q0 34 -20.5 54.5t-54.5 20.5t-54.5 -20.5t-20.5 -54.5z" />
    <glyph glyph-name="uni2077" unicode="&#x2077;" horiz-adv-x="300" 
d="M90 440l132 310h-172v50h230v-45l-134 -315h-56z" />
    <glyph glyph-name="uni2078" unicode="&#x2078;" horiz-adv-x="350" 
d="M105 625v5q-14 4 -25 16q-25 23 -25 59q0 41 34.5 70.5t85.5 29.5t85.5 -29.5t34.5 -70.5q0 -34 -25 -59q-12 -12 -25 -16v-5q15 -7 27 -18q28 -24 28 -67t-35 -74t-90 -31t-90 31t-35 74q0 44 27 67q13 11 28 18zM110 702q0 -23 19 -37.5t46 -14.5t46 14.5t19 37.5
q0 24 -19 38.5t-46 14.5t-46 -14.5t-19 -38.5zM105 545q0 -27 18 -43.5t52 -16.5q33 0 51.5 16.5t18.5 43.5q0 24 -19 41t-51 17t-51 -17t-19 -41z" />
    <glyph glyph-name="uni2079" unicode="&#x2079;" horiz-adv-x="340" 
d="M175 440h-55q22 36 80 127h-5l-10 -4q-9 -3 -25 -3q-49 0 -84.5 36.5t-35.5 88.5q0 49 37.5 84.5t92.5 35.5t92.5 -35.5t37.5 -84.5q0 -43 -25 -85zM170 610q34 0 54.5 20.5t20.5 54.5q0 30 -21 50t-54 20t-54 -20t-21 -50q0 -34 20.5 -54.5t54.5 -20.5z" />
    <glyph glyph-name="uni2080" unicode="&#x2080;" horiz-adv-x="350" 
d="M175 -55q37 0 61 34t24 101t-24 101t-61 34t-61 -34t-24 -101t24 -101t61 -34zM175 -105q-62 0 -101 48.5t-39 136.5t39 136.5t101 48.5t101 -48.5t39 -136.5t-39 -136.5t-101 -48.5z" />
    <glyph glyph-name="uni2081" unicode="&#x2081;" horiz-adv-x="255" 
d="M125 -100v260h-90v50h60q30 0 30 30v20h55v-360h-55z" />
    <glyph glyph-name="uni2082" unicode="&#x2082;" horiz-adv-x="335" 
d="M55 -100v45l140 145q35 35 35 65q0 26 -17 43t-43 17q-30 0 -47.5 -17.5t-17.5 -47.5h-55q0 49 33.5 82t86.5 33t84 -30.5t31 -79.5q0 -47 -48 -95l-102 -105v-5h155v-50h-235z" />
    <glyph glyph-name="uni2083" unicode="&#x2083;" horiz-adv-x="335" 
d="M45 0h55q0 -24 18 -39.5t47 -15.5t47 15.5t18 39.5q0 60 -70 60h-30v50h30q29 0 47 15.5t18 39.5q0 20 -16 35t-44 15t-44 -15t-16 -35h-55q0 43 31.5 71.5t83.5 28.5t83.5 -28.5t31.5 -71.5q0 -23 -16 -45t-39 -30v-5q60 -21 60 -85q0 -45 -34 -75t-86 -30
q-56 0 -88 29.5t-32 75.5z" />
    <glyph glyph-name="uni2084" unicode="&#x2084;" horiz-adv-x="310" 
d="M5 -20v40l140 240h85v-230h50v-50h-50v-80h-55v80h-170zM70 30h105v170h-10l-95 -165v-5z" />
    <glyph glyph-name="uni2085" unicode="&#x2085;" horiz-adv-x="335" 
d="M35 0h55q16 -55 75 -55q34 0 54.5 20.5t20.5 54.5q0 33 -20 54t-50 21q-47 0 -75 -35h-55l20 200h215v-50h-165l-10 -90h5q33 25 70 25q50 0 85 -35t35 -90q0 -53 -37 -89t-93 -36q-111 0 -130 105z" />
    <glyph glyph-name="uni2086" unicode="&#x2086;" horiz-adv-x="340" 
d="M65 100l100 160h55q-22 -36 -80 -127h5l10 3q9 4 25 4q49 0 84.5 -36.5t35.5 -88.5q0 -49 -37.5 -84.5t-92.5 -35.5t-92.5 35.5t-37.5 84.5q0 43 25 85zM95 15q0 -30 21 -50t54 -20t54 20t21 50q0 34 -20.5 54.5t-54.5 20.5t-54.5 -20.5t-20.5 -54.5z" />
    <glyph glyph-name="uni2087" unicode="&#x2087;" horiz-adv-x="300" 
d="M90 -100l132 310h-172v50h230v-45l-134 -315h-56z" />
    <glyph glyph-name="uni2088" unicode="&#x2088;" horiz-adv-x="350" 
d="M105 85v5q-14 4 -25 16q-25 23 -25 59q0 41 34.5 70.5t85.5 29.5t85.5 -29.5t34.5 -70.5q0 -34 -25 -59q-12 -12 -25 -16v-5q15 -7 27 -18q28 -24 28 -67t-35 -74t-90 -31t-90 31t-35 74q0 44 27 67q13 11 28 18zM110 162q0 -23 19 -37.5t46 -14.5t46 14.5t19 37.5
q0 24 -19 38.5t-46 14.5t-46 -14.5t-19 -38.5zM105 5q0 -27 18 -43.5t52 -16.5q33 0 51.5 16.5t18.5 43.5q0 24 -19 41t-51 17t-51 -17t-19 -41z" />
    <glyph glyph-name="uni2089" unicode="&#x2089;" horiz-adv-x="340" 
d="M175 -100h-55q22 36 80 127h-5l-10 -4q-9 -3 -25 -3q-49 0 -84.5 36.5t-35.5 88.5q0 49 37.5 84.5t92.5 35.5t92.5 -35.5t37.5 -84.5q0 -43 -25 -85zM170 70q34 0 54.5 20.5t20.5 54.5q0 30 -21 50t-54 20t-54 -20t-21 -50q0 -34 20.5 -54.5t54.5 -20.5z" />
    <glyph glyph-name="uni20A9" unicode="&#x20a9;" horiz-adv-x="940" 
d="M213 0l-51 230h-127v60h114l-26 120h-88v60h75l-50 230h63l50 -230h198l51 230h96l52 -230h197l50 230h63l-50 -230h75v-60h-88l-26 -120h114v-60h-127l-50 -230h-108l-52 230h-196l-51 -230h-108zM212 290h118l27 120h-171zM610 290h118l26 120h-171zM385 290h170
l-27 120h-116zM260 70h21l36 160h-92zM660 70h21l34 160h-91zM425 470h89l-34 155h-20z" />
    <glyph glyph-name="Euro" unicode="&#x20ac;" horiz-adv-x="710" 
d="M25 245v60h87q-1 3 -1 11q-1 7 -1 34q0 26 1 34q0 8 1 11h-87v60h97q30 114 115.5 184.5t212.5 70.5q46 0 84 -7.5t60.5 -16t60.5 -26.5v-60q-38 18 -60.5 26.5t-60.5 16t-84 7.5q-103 0 -170.5 -54t-95.5 -141h331v-60h-343q-1 -3 -1 -11q-1 -8 -1 -34q0 -27 1 -34
q0 -8 1 -11h343v-60h-331q28 -88 95.5 -141.5t170.5 -53.5q46 0 84 7.5t60.5 16t60.5 26.5v-60q-38 -18 -60.5 -26.5t-60.5 -16t-84 -7.5q-127 0 -212.5 70.5t-115.5 184.5h-97z" />
    <glyph glyph-name="uni20B4" unicode="&#x20b4;" horiz-adv-x="650" 
d="M60 395v60h385q10 10 17 21q18 30 18 59q0 47 -43 81t-112 34q-75 0 -115.5 -31.5t-49.5 -83.5h-60q9 79 66.5 127t158.5 48q95 0 155 -50t60 -120q0 -31 -15 -63l-15 -22h80v-60h-530zM60 245v60h530v-60h-385q-11 -9 -18 -21q-17 -28 -17 -59q0 -47 43 -81t112 -34
q75 0 115.5 31.5t49.5 83.5h60q-9 -79 -66.5 -127t-158.5 -48q-95 0 -155 50t-60 120q0 35 15 63q5 11 15 22h-80z" />
    <glyph glyph-name="uni20B8" unicode="&#x20b8;" horiz-adv-x="600" 
d="M30 640v60h540v-60h-540zM270 0v495h-240v60h540v-60h-240v-495h-60z" />
    <glyph glyph-name="uni20B9" unicode="&#x20b9;" horiz-adv-x="565" 
d="M55 275v60h215q59 0 95.5 33.5t44.5 91.5h-355v60h355q-25 120 -140 120h-215v60h470v-60h-109q13 -13 23 -30q25 -42 31 -90h55v-60h-55q-9 -81 -62 -133t-138 -52h-70l290 -275h-80l-290 275h-65z" />
    <glyph glyph-name="uni20BA" unicode="&#x20ba;" horiz-adv-x="565" 
d="M125 0v296l-85 -31v60l85 31v85l-85 -31v60l85 31v199h60v-178l170 63v-60l-170 -63v-86l170 64v-60l-170 -62v-258q159 0 219.5 44t60.5 141h60q0 -125 -77.5 -185t-262.5 -60h-60z" />
    <glyph glyph-name="uni20BD" unicode="&#x20bd;" horiz-adv-x="650" 
d="M180 355h225q61 0 98 39t37 106q0 63 -37.5 101.5t-97.5 38.5h-225v-285zM120 0v145h-90v60h90v90h-90v60h90v345h285q87 0 141 -55t54 -145q0 -93 -54 -149t-141 -56h-225v-90h230v-60h-230v-145h-60z" />
    <glyph glyph-name="uni20BF" unicode="&#x20bf;" horiz-adv-x="635" 
d="M90 0v700h110v110h60v-110h90v110h60v-114q65 -8 110 -60.5t45 -125.5q0 -72 -43 -121q-17 -20 -42 -34v-5q26 -12 47 -33q48 -48 48 -127q0 -77 -47.5 -129.5t-117.5 -60.5v-110h-60v110h-90v-110h-60v110h-110zM150 380h225q57 0 93.5 36.5t36.5 93.5t-36.5 93.5
t-93.5 36.5h-225v-260zM150 60h235q57 0 93.5 36.5t36.5 93.5q0 60 -35 95t-95 35h-235v-260z" />
    <glyph glyph-name="uni2113" unicode="&#x2113;" horiz-adv-x="370" 
d="M105 130v116l-26 -6q-27 -5 -59 -5v55q34 0 60 7l25 8v260q0 145 110 145q51 0 83 -39.5t32 -115.5q0 -198 -165 -289v-136q0 -85 70 -85q20 0 39 7l16 8v-55q-4 -2 -17 -8q-18 -7 -43 -7q-125 0 -125 140zM165 560v-225q105 66 105 220q0 100 -55 100q-21 0 -35.5 -23
t-14.5 -72z" />
    <glyph glyph-name="uni2116" unicode="&#x2116;" horiz-adv-x="1060" 
d="M700 0v60h300v-60h-300zM850 190q42 0 71 30t29 75t-29 75t-71 30t-71 -30t-29 -75t29 -75t71 -30zM90 0v700h115l330 -640h20v640h60v-700h-115l-330 640h-20v-640h-60zM850 140q-63 0 -109 46t-46 109t46 109t109 46t109 -46t46 -109t-46 -109t-109 -46z" />
    <glyph glyph-name="uni2117" unicode="&#x2117;" horiz-adv-x="850" 
d="M370 350h95q75 0 75 65q0 70 -75 70h-95v-135zM315 165v375h150q60 0 95 -34t35 -91q0 -54 -35.5 -87t-94.5 -33h-95v-130h-55zM425 710q158 0 259 -101t101 -259t-101 -259t-259 -101t-259 101t-101 259t101 259t259 101zM425 45q135 0 220 85t85 220t-85 220t-220 85
t-220 -85t-85 -220t85 -220t220 -85z" />
    <glyph glyph-name="trademark" unicode="&#x2122;" horiz-adv-x="725" 
d="M115 400v255h-95v45h235v-45h-95v-255h-45zM310 400v300h85l85 -240h10l84 240h86v-300h-45v250h-10l-89 -250h-62l-89 250h-10v-250h-45z" />
    <glyph glyph-name="uni2126" unicode="&#x2126;" horiz-adv-x="810" 
d="M90 0v60h142l-6 3q-5 3 -15 10t-23 16.5t-27 23.5t-28.5 31t-27.5 39.5t-23 47.5t-16 57t-6 67q0 157 97 256t248 99t248 -99t97 -256q0 -35 -6 -67t-16 -57t-23 -47.5t-27.5 -39.5t-28.5 -31t-27 -23.5t-23 -16.5t-15 -10l-6 -3h142v-60h-245v60q59 23 107 63
q108 92 108 232q0 130 -80.5 212.5t-204.5 82.5t-204.5 -82.5t-80.5 -212.5q0 -141 107 -232q48 -41 108 -63v-60h-245z" />
    <glyph glyph-name="estimated" unicode="&#x212e;" horiz-adv-x="850" 
d="M220 380h420v220q-88 80 -210 80t-210 -80v-220zM220 345v-245q23 -21 57 -40q74 -40 163 -40q119 0 209 75q42 34 71 75l30 -20q-32 -46 -78 -80q-104 -80 -232 -80q-157 0 -263.5 104.5t-106.5 255.5q0 150 105 255t255 105t255 -105t105 -255v-5h-570z" />
    <glyph glyph-name="uni2150" unicode="&#x2150;" horiz-adv-x="670" 
d="M60 0l435 700h60l-435 -700h-60zM130 340v260h-90v50h60q30 0 30 30v20h55v-360h-55zM440 0l132 310h-172v50h230v-45l-134 -315h-56z" />
    <glyph glyph-name="uni2151" unicode="&#x2151;" horiz-adv-x="680" 
d="M60 0l435 700h60l-435 -700h-60zM130 340v260h-90v50h60q30 0 30 30v20h55v-360h-55zM515 0h-55q22 36 80 127h-5l-10 -4q-9 -3 -25 -3q-49 0 -84.5 36.5t-35.5 88.5q0 49 37.5 84.5t92.5 35.5t92.5 -35.5t37.5 -84.5q0 -43 -25 -85zM510 170q34 0 54.5 20.5t20.5 54.5
q0 30 -21 50t-54 20t-54 -20t-21 -50q0 -34 20.5 -54.5t54.5 -20.5z" />
    <glyph glyph-name="uni2152" unicode="&#x2152;" horiz-adv-x="930" 
d="M60 0l435 700h60l-435 -700h-60zM130 340v260h-90v50h60q30 0 30 30v20h55v-360h-55zM485 0v260h-90v50h60q30 0 30 30v20h55v-360h-55zM750 45q37 0 61 34t24 101t-24 101t-61 34t-61 -34t-24 -101t24 -101t61 -34zM750 -5q-62 0 -101 48.5t-39 136.5t39 136.5t101 48.5
t101 -48.5t39 -136.5t-39 -136.5t-101 -48.5z" />
    <glyph glyph-name="onethird" unicode="&#x2153;" horiz-adv-x="680" 
d="M60 0l435 700h60l-435 -700h-60zM130 340v260h-90v50h60q30 0 30 30v20h55v-360h-55zM390 100h55q0 -24 18 -39.5t47 -15.5t47 15.5t18 39.5q0 60 -70 60h-30v50h30q29 0 47 15.5t18 39.5q0 20 -16 35t-44 15t-44 -15t-16 -35h-55q0 43 31.5 71.5t83.5 28.5t83.5 -28.5
t31.5 -71.5q0 -23 -16 -45t-39 -30v-5q60 -21 60 -85q0 -45 -34 -75t-86 -30q-56 0 -88 29.5t-32 75.5z" />
    <glyph glyph-name="twothirds" unicode="&#x2154;" horiz-adv-x="755" 
d="M135 0l435 700h60l-435 -700h-60zM45 340v45l140 145q35 35 35 65q0 26 -17 43t-43 17q-30 0 -47.5 -17.5t-17.5 -47.5h-55q0 49 33.5 82t86.5 33t84 -30.5t31 -79.5q0 -47 -48 -95l-102 -105v-5h155v-50h-235zM465 100h55q0 -24 18 -39.5t47 -15.5t47 15.5t18 39.5
q0 60 -70 60h-30v50h30q29 0 47 15.5t18 39.5q0 20 -16 35t-44 15t-44 -15t-16 -35h-55q0 43 31.5 71.5t83.5 28.5t83.5 -28.5t31.5 -71.5q0 -23 -16 -45t-39 -30v-5q60 -21 60 -85q0 -45 -34 -75t-86 -30q-56 0 -88 29.5t-32 75.5z" />
    <glyph glyph-name="uni2155" unicode="&#x2155;" horiz-adv-x="690" 
d="M60 0l435 700h60l-435 -700h-60zM130 340v260h-90v50h60q30 0 30 30v20h55v-360h-55zM390 100h55q16 -55 75 -55q34 0 54.5 20.5t20.5 54.5q0 33 -20 54t-50 21q-47 0 -75 -35h-55l20 200h215v-50h-165l-10 -90h5q33 25 70 25q50 0 85 -35t35 -90q0 -53 -37 -89t-93 -36
q-111 0 -130 105z" />
    <glyph glyph-name="uni2156" unicode="&#x2156;" horiz-adv-x="765" 
d="M135 0l435 700h60l-435 -700h-60zM45 340v45l140 145q35 35 35 65q0 26 -17 43t-43 17q-30 0 -47.5 -17.5t-17.5 -47.5h-55q0 49 33.5 82t86.5 33t84 -30.5t31 -79.5q0 -47 -48 -95l-102 -105v-5h155v-50h-235zM465 100h55q16 -55 75 -55q34 0 54.5 20.5t20.5 54.5
q0 33 -20 54t-50 21q-47 0 -75 -35h-55l20 200h215v-50h-165l-10 -90h5q33 25 70 25q50 0 85 -35t35 -90q0 -53 -37 -89t-93 -36q-111 0 -130 105z" />
    <glyph glyph-name="uni2157" unicode="&#x2157;" horiz-adv-x="755" 
d="M125 0l435 700h60l-435 -700h-60zM40 440h55q0 -24 18 -39.5t47 -15.5t47 15.5t18 39.5q0 60 -70 60h-30v50h30q29 0 47 15.5t18 39.5q0 20 -16 35t-44 15t-44 -15t-16 -35h-55q0 43 31.5 71.5t83.5 28.5t83.5 -28.5t31.5 -71.5q0 -23 -16 -45t-39 -30v-5q60 -21 60 -85
q0 -45 -34 -75t-86 -30q-56 0 -88 29.5t-32 75.5zM455 100h55q16 -55 75 -55q34 0 54.5 20.5t20.5 54.5q0 33 -20 54t-50 21q-47 0 -75 -35h-55l20 200h215v-50h-165l-10 -90h5q33 25 70 25q50 0 85 -35t35 -90q0 -53 -37 -89t-93 -36q-111 0 -130 105z" />
    <glyph glyph-name="uni2158" unicode="&#x2158;" horiz-adv-x="750" 
d="M120 0l435 700h60l-435 -700h-60zM20 420v40l140 240h85v-230h50v-50h-50v-80h-55v80h-170zM85 470h105v170h-10l-95 -165v-5zM450 100h55q16 -55 75 -55q34 0 54.5 20.5t20.5 54.5q0 33 -20 54t-50 21q-47 0 -75 -35h-55l20 200h215v-50h-165l-10 -90h5q33 25 70 25
q50 0 85 -35t35 -90q0 -53 -37 -89t-93 -36q-111 0 -130 105z" />
    <glyph glyph-name="uni2159" unicode="&#x2159;" horiz-adv-x="655" 
d="M60 0l435 700h60l-435 -700h-60zM130 340v260h-90v50h60q30 0 30 30v20h55v-360h-55zM380 200l100 160h55q-22 -36 -80 -127h5l10 3q9 4 25 4q49 0 84.5 -36.5t35.5 -88.5q0 -49 -37.5 -84.5t-92.5 -35.5t-92.5 35.5t-37.5 84.5q0 43 25 85zM410 115q0 -30 21 -50t54 -20
t54 20t21 50q0 34 -20.5 54.5t-54.5 20.5t-54.5 -20.5t-20.5 -54.5z" />
    <glyph glyph-name="uni215A" unicode="&#x215a;" horiz-adv-x="731" 
d="M135 0l435 700h60l-435 -700h-60zM40 440h55q16 -55 75 -55q34 0 54.5 20.5t20.5 54.5q0 33 -20 54t-50 21q-47 0 -75 -35h-55l20 200h215v-50h-165l-10 -90h5q33 25 70 25q50 0 85 -35t35 -90q0 -53 -37 -89t-93 -36q-111 0 -130 105zM455 200l100 160h55
q-22 -36 -80 -127h5l10 3q9 4 25 4q49 0 84.5 -36.5t35.5 -88.5q0 -49 -37.5 -84.5t-92.5 -35.5t-92.5 35.5t-37.5 84.5q0 43 25 85zM485 115q0 -30 21 -50t54 -20t54 20t21 50q0 34 -20.5 54.5t-54.5 20.5t-54.5 -20.5t-20.5 -54.5z" />
    <glyph glyph-name="oneeighth" unicode="&#x215b;" horiz-adv-x="685" 
d="M60 0l435 700h60l-435 -700h-60zM130 340v260h-90v50h60q30 0 30 30v20h55v-360h-55zM440 185v5q-14 4 -25 16q-25 23 -25 59q0 41 34.5 70.5t85.5 29.5t85.5 -29.5t34.5 -70.5q0 -34 -25 -59q-11 -12 -25 -16v-5q15 -7 27 -18q28 -24 28 -67t-35 -74t-90 -31t-90 31
t-35 74q0 44 27 67q13 11 28 18zM445 262q0 -23 19 -37.5t46 -14.5t46 14.5t19 37.5q0 24 -19 38.5t-46 14.5t-46 -14.5t-19 -38.5zM440 105q0 -27 18 -43.5t52 -16.5q33 0 51.5 16.5t18.5 43.5q0 24 -19 41t-51 17t-51 -17t-19 -41z" />
    <glyph glyph-name="threeeighths" unicode="&#x215c;" horiz-adv-x="750" 
d="M125 0l435 700h60l-435 -700h-60zM40 440h55q0 -24 18 -39.5t47 -15.5t47 15.5t18 39.5q0 60 -70 60h-30v50h30q29 0 47 15.5t18 39.5q0 20 -16 35t-44 15t-44 -15t-16 -35h-55q0 43 31.5 71.5t83.5 28.5t83.5 -28.5t31.5 -71.5q0 -23 -16 -45t-39 -30v-5q60 -21 60 -85
q0 -45 -34 -75t-86 -30q-56 0 -88 29.5t-32 75.5zM505 185v5q-13 4 -25 16q-25 23 -25 59q0 41 34.5 70.5t85.5 29.5t85.5 -29.5t34.5 -70.5q0 -34 -25 -59q-12 -12 -25 -16v-5q15 -7 27 -18q28 -24 28 -67t-35 -74t-90 -31t-90 31t-35 74q0 44 27 67q13 11 28 18zM510 262
q0 -23 19 -37.5t46 -14.5t46 14.5t19 37.5q0 24 -19 38.5t-46 14.5t-46 -14.5t-19 -38.5zM505 105q0 -27 18 -43.5t52 -16.5q33 0 51.5 16.5t18.5 43.5q0 24 -19 41t-51 17t-51 -17t-19 -41z" />
    <glyph glyph-name="fiveeighths" unicode="&#x215d;" horiz-adv-x="760" 
d="M135 0l435 700h60l-435 -700h-60zM40 440h55q16 -55 75 -55q34 0 54.5 20.5t20.5 54.5q0 33 -20 54t-50 21q-47 0 -75 -35h-55l20 200h215v-50h-165l-10 -90h5q33 25 70 25q50 0 85 -35t35 -90q0 -53 -37 -89t-93 -36q-111 0 -130 105zM515 185v5q-13 4 -25 16
q-25 23 -25 59q0 41 34.5 70.5t85.5 29.5t85.5 -29.5t34.5 -70.5q0 -34 -25 -59q-12 -12 -25 -16v-5q15 -7 27 -18q28 -24 28 -67t-35 -74t-90 -31t-90 31t-35 74q0 44 27 67q13 11 28 18zM520 262q0 -23 19 -37.5t46 -14.5t46 14.5t19 37.5q0 24 -19 38.5t-46 14.5
t-46 -14.5t-19 -38.5zM515 105q0 -27 18 -43.5t52 -16.5q33 0 51.5 16.5t18.5 43.5q0 24 -19 41t-51 17t-51 -17t-19 -41z" />
    <glyph glyph-name="seveneighths" unicode="&#x215e;" horiz-adv-x="695" 
d="M70 0l435 700h60l-435 -700h-60zM90 340l132 310h-172v50h230v-45l-134 -315h-56zM450 185v5q-14 4 -25 16q-25 23 -25 59q0 41 34.5 70.5t85.5 29.5t85.5 -29.5t34.5 -70.5q0 -34 -25 -59q-11 -12 -25 -16v-5q15 -7 27 -18q28 -24 28 -67t-35 -74t-90 -31t-90 31t-35 74
q0 44 27 67q13 11 28 18zM455 262q0 -23 19 -37.5t46 -14.5t46 14.5t19 37.5q0 24 -19 38.5t-46 14.5t-46 -14.5t-19 -38.5zM450 105q0 -27 18 -43.5t52 -16.5q33 0 51.5 16.5t18.5 43.5q0 24 -19 41t-51 17t-51 -17t-19 -41z" />
    <glyph glyph-name="uni215F" unicode="&#x215f;" horiz-adv-x="370" 
d="M60 0l435 700h60l-435 -700h-60zM130 340v260h-90v50h60q30 0 30 30v20h55v-360h-55z" />
    <glyph glyph-name="arrowleft" unicode="&#x2190;" horiz-adv-x="1000" 
d="M152 340v20l180 180h65v-10l-150 -150v-5h600v-50h-600v-5l150 -150v-10h-65z" />
    <glyph glyph-name="arrowup" unicode="&#x2191;" horiz-adv-x="1000" 
d="M472 0v600h-5l-150 -150h-10v65l185 185h15l185 -185v-65h-10l-150 150h-5v-600h-55z" />
    <glyph glyph-name="arrowright" unicode="&#x2192;" horiz-adv-x="1000" 
d="M152 325v50h600v5l-150 150v10h65l180 -180v-20l-180 -180h-65v10l150 150v5h-600z" />
    <glyph glyph-name="arrowdown" unicode="&#x2193;" horiz-adv-x="1000" 
d="M307 185v65h10l150 -150h5v600h55v-600h5l150 150h10v-65l-185 -185h-15z" />
    <glyph glyph-name="uni2196" unicode="&#x2196;" horiz-adv-x="1000" 
d="M240 340v260l10 10h260l45 -45l-5 -5h-210l-5 -5l425 -425l-40 -40l-425 425l-5 -5v-210l-5 -5z" />
    <glyph glyph-name="uni2197" unicode="&#x2197;" horiz-adv-x="1000" 
d="M240 130l425 425l-5 5h-210l-5 5l45 45h260l10 -10v-260l-45 -45l-5 5v210l-5 5l-425 -425z" />
    <glyph glyph-name="uni2198" unicode="&#x2198;" horiz-adv-x="1000" 
d="M445 135l5 5h210l5 5l-425 425l40 40l425 -425l5 5v210l5 5l45 -45v-260l-10 -10h-260z" />
    <glyph glyph-name="uni2199" unicode="&#x2199;" horiz-adv-x="1000" 
d="M250 90l-10 10v260l45 45l5 -5v-210l5 -5l425 425l40 -40l-425 -425l5 -5h210l5 -5l-45 -45h-260z" />
    <glyph glyph-name="partialdiff" unicode="&#x2202;" horiz-adv-x="555" 
d="M150 590h-60q13 51 59 85.5t112 34.5q104 0 169 -91t65 -279q0 -179 -62.5 -264.5t-167.5 -85.5q-88 0 -149 64t-61 161t62 161t153 64q68 0 124 -38q23 -16 41 -37h5q0 147 -50.5 218.5t-134.5 71.5q-37 0 -65 -18.5t-40 -46.5zM265 45q74 0 120 58t50 182
q-15 25 -41 50q-56 50 -124 50q-64 0 -109.5 -48t-45.5 -122q0 -73 44.5 -121.5t105.5 -48.5z" />
    <glyph glyph-name="emptyset" unicode="&#x2205;" horiz-adv-x="840" 
d="M80 -5l86 101q-96 102 -96 254q0 157 99.5 258.5t250.5 101.5q118 0 211 -68l54 63h75l-86 -101q96 -102 96 -254q0 -157 -99.5 -258.5t-250.5 -101.5q-120 0 -212 67l-53 -62h-75zM205 142l387 454q-74 54 -172 54q-124 0 -207 -85t-83 -215q0 -123 75 -208zM634 557
l-386 -453q73 -54 172 -54q124 0 207 85t83 215q0 125 -76 207z" />
    <glyph glyph-name="uni2206" unicode="&#x2206;" horiz-adv-x="660" 
d="M121 60h418l-209 574zM35 0l255 700h80l255 -700h-590z" />
    <glyph glyph-name="product" unicode="&#x220f;" horiz-adv-x="730" 
d="M110 -110v810h510v-810h-60v750h-390v-750h-60z" />
    <glyph glyph-name="summation" unicode="&#x2211;" horiz-adv-x="600" 
d="M70 -110v55l240 375l-240 335v55h480v-60h-402l237 -330l-237 -370h402v-60h-480z" />
    <glyph glyph-name="minus" unicode="&#x2212;" horiz-adv-x="540" 
d="M55 265v55h430v-55h-430z" />
    <glyph glyph-name="radical" unicode="&#x221a;" horiz-adv-x="615" 
d="M230 -110l-77 265h-128v60h170l75 -255h17l248 850h60l-268 -920h-97z" />
    <glyph glyph-name="infinity" unicode="&#x221e;" horiz-adv-x="790" 
d="M430 350q65 -95 135 -95q45 0 72.5 26.5t27.5 68.5t-27.5 68.5t-72.5 26.5q-70 0 -135 -95zM360 350q-65 95 -135 95q-45 0 -72.5 -26.5t-27.5 -68.5t27.5 -68.5t72.5 -26.5q70 0 135 95zM395 310q-43 -55 -82 -82.5t-88 -27.5q-68 0 -111.5 43t-43.5 107t43.5 107
t111.5 43q49 0 88 -27.5t82 -82.5q43 55 82 82.5t88 27.5q68 0 111.5 -43t43.5 -107t-43.5 -107t-111.5 -43q-49 0 -88 27.5t-82 82.5z" />
    <glyph glyph-name="integral" unicode="&#x222b;" horiz-adv-x="395" 
d="M55 -110v55h35q42 0 61 21t19 69v630q0 78 31.5 111.5t103.5 33.5h35v-55h-35q-42 0 -61 -21t-19 -69v-630q0 -78 -31.5 -111.5t-103.5 -33.5h-35z" />
    <glyph glyph-name="approxequal" unicode="&#x2248;" horiz-adv-x="555" 
d="M105 295h-60q4 68 39 104t96 36q38 0 73 -20t65.5 -40t56.5 -20q68 0 75 80h60q-4 -68 -39 -104t-96 -36q-38 0 -73 20t-65.5 40t-56.5 20q-68 0 -75 -80zM105 115h-60q4 68 39 104t96 36q38 0 73 -20t65.5 -40t56.5 -20q68 0 75 80h60q-4 -68 -39 -104t-96 -36
q-38 0 -73 20t-65.5 40t-56.5 20q-68 0 -75 -80z" />
    <glyph glyph-name="notequal" unicode="&#x2260;" horiz-adv-x="530" 
d="M154 70l43 115h-117v55h137l38 100h-175v55h195l44 115h60l-44 -115h115v-55h-135l-38 -100h173v-55h-193l-43 -115h-60z" />
    <glyph glyph-name="lessequal" unicode="&#x2264;" horiz-adv-x="540" 
d="M55 0v60h420v-60h-420zM55 288v54l420 163v-60l-340 -130l340 -130v-60z" />
    <glyph glyph-name="greaterequal" unicode="&#x2265;" horiz-adv-x="540" 
d="M65 0v60h420v-60h-420zM65 125v60l340 130l-340 130v60l420 -163v-54z" />
    <glyph glyph-name="uni2318" unicode="&#x2318;" horiz-adv-x="800" 
d="M325 270h150v160h-150v-160zM200 270h70v160h-70q-71 0 -110.5 37.5t-39.5 102.5q0 57 37.5 93.5t97.5 36.5q65 0 102.5 -39.5t37.5 -110.5v-70h150v70q0 71 37.5 110.5t102.5 39.5q60 0 97.5 -36.5t37.5 -93.5q0 -65 -39.5 -102.5t-110.5 -37.5h-70v-160h70
q71 0 110.5 -37.5t39.5 -102.5q0 -57 -37.5 -93.5t-97.5 -36.5q-65 0 -102.5 39.5t-37.5 110.5v70h-150v-70q0 -71 -37.5 -110.5t-102.5 -39.5q-60 0 -97.5 36.5t-37.5 93.5q0 65 39.5 102.5t110.5 37.5zM530 480h70q45 0 70 24t25 66q0 34 -23 57t-57 23q-39 0 -62 -26
t-23 -74v-70zM200 480h70v70q0 48 -23 74t-62 26q-34 0 -57 -23t-23 -57q0 -42 25 -66t70 -24zM530 220v-70q0 -48 23 -74t62 -26q34 0 57 23t23 57q0 42 -25 66t-70 24h-70zM270 150v70h-70q-45 0 -70 -24t-25 -66q0 -34 23 -57t57 -23q39 0 62 26t23 74z" />
    <glyph glyph-name="uni2460" unicode="&#x2460;" horiz-adv-x="1000" 
d="M80 350q0 176 122 298t298 122t298 -122t122 -298t-122 -298t-298 -122t-298 122t-122 298zM500 -20q158 0 264 106t106 264t-106 264t-264 106t-264 -106t-106 -264t106 -264t264 -106zM485 170v260h-90v50h60q30 0 30 30v20h55v-360h-55z" />
    <glyph glyph-name="uni2461" unicode="&#x2461;" horiz-adv-x="1000" 
d="M80 350q0 176 122 298t298 122t298 -122t122 -298t-122 -298t-298 -122t-298 122t-122 298zM500 -20q158 0 264 106t106 264t-106 264t-264 106t-264 -106t-106 -264t106 -264t264 -106zM385 170v45l140 145q35 35 35 65q0 26 -17 43t-43 17q-30 0 -47.5 -17.5
t-17.5 -47.5h-55q0 49 33.5 82t86.5 33t84 -30.5t31 -79.5q0 -47 -48 -95l-102 -105v-5h155v-50h-235z" />
    <glyph glyph-name="uni2462" unicode="&#x2462;" horiz-adv-x="1000" 
d="M80 350q0 176 122 298t298 122t298 -122t122 -298t-122 -298t-298 -122t-298 122t-122 298zM500 -20q158 0 264 106t106 264t-106 264t-264 106t-264 -106t-106 -264t106 -264t264 -106zM380 270h55q0 -24 18 -39.5t47 -15.5t47 15.5t18 39.5q0 60 -70 60h-25v50h25
q29 0 47 15.5t18 39.5q0 20 -16 35t-44 15t-44 -15t-16 -35h-55q0 43 31.5 71.5t83.5 28.5t83.5 -28.5t31.5 -71.5q0 -23 -16 -45t-39 -30v-5q60 -21 60 -85q0 -45 -34 -75t-86 -30q-56 0 -88 29.5t-32 75.5z" />
    <glyph glyph-name="uni2463" unicode="&#x2463;" horiz-adv-x="1000" 
d="M80 350q0 176 122 298t298 122t298 -122t122 -298t-122 -298t-298 -122t-298 122t-122 298zM500 -20q158 0 264 106t106 264t-106 264t-264 106t-264 -106t-106 -264t106 -264t264 -106zM345 250v40l140 240h85v-230h50v-50h-50v-80h-55v80h-170zM410 300h105v165h-10
l-95 -160v-5z" />
    <glyph glyph-name="uni2464" unicode="&#x2464;" horiz-adv-x="1000" 
d="M80 350q0 176 122 298t298 122t298 -122t122 -298t-122 -298t-298 -122t-298 122t-122 298zM500 -20q158 0 264 106t106 264t-106 264t-264 106t-264 -106t-106 -264t106 -264t264 -106zM370 270h55q16 -55 75 -55q34 0 54.5 20.5t20.5 54.5q0 33 -20 54t-50 21
q-47 0 -75 -35h-55l20 200h215v-50h-165l-10 -90h5q33 25 70 25q50 0 85 -35t35 -90q0 -53 -37 -89t-93 -36q-111 0 -130 105z" />
    <glyph glyph-name="uni2465" unicode="&#x2465;" horiz-adv-x="1000" 
d="M80 350q0 176 122 298t298 122t298 -122t122 -298t-122 -298t-298 -122t-298 122t-122 298zM500 -20q158 0 264 106t106 264t-106 264t-264 106t-264 -106t-106 -264t106 -264t264 -106zM395 370l100 160h55q-22 -36 -80 -127h5l10 3q9 4 25 4q49 0 84.5 -36.5
t35.5 -88.5q0 -49 -37.5 -84.5t-92.5 -35.5t-92.5 35.5t-37.5 84.5q0 43 25 85zM425 285q0 -30 21 -50t54 -20t54 20t21 50q0 34 -20.5 54.5t-54.5 20.5t-54.5 -20.5t-20.5 -54.5z" />
    <glyph glyph-name="uni2466" unicode="&#x2466;" horiz-adv-x="1000" 
d="M80 350q0 176 122 298t298 122t298 -122t122 -298t-122 -298t-298 -122t-298 122t-122 298zM500 -20q158 0 264 106t106 264t-106 264t-264 106t-264 -106t-106 -264t106 -264t264 -106zM425 170l132 310h-172v50h230v-45l-134 -315h-56z" />
    <glyph glyph-name="uni2467" unicode="&#x2467;" horiz-adv-x="1000" 
d="M80 350q0 176 122 298t298 122t298 -122t122 -298t-122 -298t-298 -122t-298 122t-122 298zM500 -20q158 0 264 106t106 264t-106 264t-264 106t-264 -106t-106 -264t106 -264t264 -106zM430 355v5q-14 4 -25 16q-25 23 -25 59q0 41 34.5 70.5t85.5 29.5t85.5 -29.5
t34.5 -70.5q0 -34 -25 -59q-12 -12 -25 -16v-5q15 -7 27 -18q28 -24 28 -67t-35 -74t-90 -31t-90 31t-35 74q0 44 27 67q13 11 28 18zM435 432q0 -23 19 -37.5t46 -14.5t46 14.5t19 37.5q0 24 -19 38.5t-46 14.5t-46 -14.5t-19 -38.5zM430 275q0 -27 18 -43.5t52 -16.5
q33 0 51.5 16.5t18.5 43.5q0 24 -19 41t-51 17t-51 -17t-19 -41z" />
    <glyph glyph-name="uni2468" unicode="&#x2468;" horiz-adv-x="1000" 
d="M80 350q0 176 122 298t298 122t298 -122t122 -298t-122 -298t-298 -122t-298 122t-122 298zM500 -20q158 0 264 106t106 264t-106 264t-264 106t-264 -106t-106 -264t106 -264t264 -106zM505 170h-55q22 36 80 127h-5l-10 -4q-9 -3 -25 -3q-49 0 -84.5 36.5t-35.5 88.5
q0 49 37.5 84.5t92.5 35.5t92.5 -35.5t37.5 -84.5q0 -43 -25 -85zM500 340q34 0 54.5 20.5t20.5 54.5q0 30 -21 50t-54 20t-54 -20t-21 -50q0 -34 20.5 -54.5t54.5 -20.5z" />
    <glyph glyph-name="uni2469" unicode="&#x2469;" horiz-adv-x="1000" 
d="M80 350q0 176 122 298t298 122t298 -122t122 -298t-122 -298t-298 -122t-298 122t-122 298zM500 -20q158 0 264 106t106 264t-106 264t-264 106t-264 -106t-106 -264t106 -264t264 -106zM600 165q-62 0 -101 48.5t-39 136.5t39 136.5t101 48.5t101 -48.5t39 -136.5
t-39 -136.5t-101 -48.5zM600 215q37 0 61 34t24 101t-24 101t-61 34t-61 -34t-24 -101t24 -101t61 -34zM340 170v260h-90v50h60q30 0 30 30v20h55v-360h-55z" />
    <glyph glyph-name="uni246A" unicode="&#x246a;" horiz-adv-x="1000" 
d="M80 350q0 176 122 298t298 122t298 -122t122 -298t-122 -298t-298 -122t-298 122t-122 298zM500 -20q158 0 264 106t106 264t-106 264t-264 106t-264 -106t-106 -264t106 -264t264 -106zM380 170v260h-90v50h60q30 0 30 30v20h55v-360h-55zM595 170v260h-90v50h60
q30 0 30 30v20h55v-360h-55z" />
    <glyph glyph-name="uni246B" unicode="&#x246b;" horiz-adv-x="1000" 
d="M80 350q0 176 122 298t298 122t298 -122t122 -298t-122 -298t-298 -122t-298 122t-122 298zM500 -20q158 0 264 106t106 264t-106 264t-264 106t-264 -106t-106 -264t106 -264t264 -106zM350 170v260h-90v50h60q30 0 30 30v20h55v-360h-55zM475 170v45l140 145
q35 35 35 65q0 26 -17 43t-43 17q-30 0 -47.5 -17.5t-17.5 -47.5h-55q0 49 33.5 82t86.5 33t84 -30.5t31 -79.5q0 -47 -48 -95l-102 -105v-5h155v-50h-235z" />
    <glyph glyph-name="uni246C" unicode="&#x246c;" horiz-adv-x="1000" 
d="M80 350q0 176 122 298t298 122t298 -122t122 -298t-122 -298t-298 -122t-298 122t-122 298zM500 -20q158 0 264 106t106 264t-106 264t-264 106t-264 -106t-106 -264t106 -264t264 -106zM350 170v260h-90v50h60q30 0 30 30v20h55v-360h-55zM470 270h55q0 -24 18 -39.5
t47 -15.5t47 15.5t18 39.5q0 60 -70 60h-25v50h25q29 0 47 15.5t18 39.5q0 20 -16 35t-44 15t-44 -15t-16 -35h-55q0 43 31.5 71.5t83.5 28.5t83.5 -28.5t31.5 -71.5q0 -23 -16 -45t-39 -30v-5q60 -21 60 -85q0 -45 -34 -75t-86 -30q-56 0 -88 29.5t-32 75.5z" />
    <glyph glyph-name="uni246D" unicode="&#x246d;" horiz-adv-x="1000" 
d="M80 350q0 176 122 298t298 122t298 -122t122 -298t-122 -298t-298 -122t-298 122t-122 298zM500 -20q158 0 264 106t106 264t-106 264t-264 106t-264 -106t-106 -264t106 -264t264 -106zM345 170v260h-90v50h60q30 0 30 30v20h55v-360h-55zM460 250v40l140 240h85v-230
h50v-50h-50v-80h-55v80h-170zM525 300h105v165h-10l-95 -160v-5z" />
    <glyph glyph-name="uni246E" unicode="&#x246e;" horiz-adv-x="1000" 
d="M80 350q0 176 122 298t298 122t298 -122t122 -298t-122 -298t-298 -122t-298 122t-122 298zM500 -20q158 0 264 106t106 264t-106 264t-264 106t-264 -106t-106 -264t106 -264t264 -106zM345 170v260h-90v50h60q30 0 30 30v20h55v-360h-55zM465 270h55q16 -55 75 -55
q34 0 54.5 20.5t20.5 54.5q0 33 -20 54t-50 21q-47 0 -75 -35h-55l20 200h215v-50h-165l-10 -90h5q33 25 70 25q50 0 85 -35t35 -90q0 -53 -37 -89t-93 -36q-111 0 -130 105z" />
    <glyph glyph-name="uni246F" unicode="&#x246f;" horiz-adv-x="1000" 
d="M80 350q0 176 122 298t298 122t298 -122t122 -298t-122 -298t-298 -122t-298 122t-122 298zM500 -20q158 0 264 106t106 264t-106 264t-264 106t-264 -106t-106 -264t106 -264t264 -106zM350 170v260h-90v50h60q30 0 30 30v20h55v-360h-55zM495 370l100 160h55
q-22 -36 -80 -127h5l10 3q9 4 25 4q49 0 84.5 -36.5t35.5 -88.5q0 -49 -37.5 -84.5t-92.5 -35.5t-92.5 35.5t-37.5 84.5q0 43 25 85zM525 285q0 -30 21 -50t54 -20t54 20t21 50q0 34 -20.5 54.5t-54.5 20.5t-54.5 -20.5t-20.5 -54.5z" />
    <glyph glyph-name="uni2470" unicode="&#x2470;" horiz-adv-x="1000" 
d="M80 350q0 176 122 298t298 122t298 -122t122 -298t-122 -298t-298 -122t-298 122t-122 298zM500 -20q158 0 264 106t106 264t-106 264t-264 106t-264 -106t-106 -264t106 -264t264 -106zM365 170v260h-90v50h60q30 0 30 30v20h55v-360h-55zM520 170l132 310h-172v50h230
v-45l-134 -315h-56z" />
    <glyph glyph-name="uni2471" unicode="&#x2471;" horiz-adv-x="1000" 
d="M80 350q0 176 122 298t298 122t298 -122t122 -298t-122 -298t-298 -122t-298 122t-122 298zM500 -20q158 0 264 106t106 264t-106 264t-264 106t-264 -106t-106 -264t106 -264t264 -106zM350 170v260h-90v50h60q30 0 30 30v20h55v-360h-55zM525 355v5q-14 4 -25 16
q-25 23 -25 59q0 41 34.5 70.5t85.5 29.5t85.5 -29.5t34.5 -70.5q0 -34 -25 -59q-12 -12 -25 -16v-5q15 -7 27 -18q28 -24 28 -67t-35 -74t-90 -31t-90 31t-35 74q0 44 27 67q13 11 28 18zM530 432q0 -23 19 -37.5t46 -14.5t46 14.5t19 37.5q0 24 -19 38.5t-46 14.5
t-46 -14.5t-19 -38.5zM525 275q0 -27 18 -43.5t52 -16.5q33 0 51.5 16.5t18.5 43.5q0 24 -19 41t-51 17t-51 -17t-19 -41z" />
    <glyph glyph-name="uni2472" unicode="&#x2472;" horiz-adv-x="1000" 
d="M80 350q0 176 122 298t298 122t298 -122t122 -298t-122 -298t-298 -122t-298 122t-122 298zM500 -20q158 0 264 106t106 264t-106 264t-264 106t-264 -106t-106 -264t106 -264t264 -106zM355 170v260h-90v50h60q30 0 30 30v20h55v-360h-55zM610 170h-55q22 36 80 127h-5
l-10 -4q-9 -3 -25 -3q-49 0 -84.5 36.5t-35.5 88.5q0 49 37.5 84.5t92.5 35.5t92.5 -35.5t37.5 -84.5q0 -43 -25 -85zM605 340q34 0 54.5 20.5t20.5 54.5q0 30 -21 50t-54 20t-54 -20t-21 -50q0 -34 20.5 -54.5t54.5 -20.5z" />
    <glyph glyph-name="uni2473" unicode="&#x2473;" horiz-adv-x="1000" 
d="M80 350q0 176 122 298t298 122t298 -122t122 -298t-122 -298t-298 -122t-298 122t-122 298zM500 -20q158 0 264 106t106 264t-106 264t-264 106t-264 -106t-106 -264t106 -264t264 -106zM650 165q-62 0 -101 48.5t-39 136.5t39 136.5t101 48.5t101 -48.5t39 -136.5
t-39 -136.5t-101 -48.5zM650 215q37 0 61 34t24 101t-24 101t-61 34t-61 -34t-24 -101t24 -101t61 -34zM230 170v45l140 145q35 35 35 65q0 26 -17 43t-43 17q-30 0 -47.5 -17.5t-17.5 -47.5h-55q0 49 33.5 82t86.5 33t84 -30.5t31 -79.5q0 -47 -48 -95l-102 -105v-5h155
v-50h-235z" />
    <glyph glyph-name="uni24EA" unicode="&#x24ea;" horiz-adv-x="1000" 
d="M80 350q0 176 122 298t298 122t298 -122t122 -298t-122 -298t-298 -122t-298 122t-122 298zM500 -20q158 0 264 106t106 264t-106 264t-264 106t-264 -106t-106 -264t106 -264t264 -106zM500 165q-62 0 -101 48.5t-39 136.5t39 136.5t101 48.5t101 -48.5t39 -136.5
t-39 -136.5t-101 -48.5zM500 215q37 0 61 34t24 101t-24 101t-61 34t-61 -34t-24 -101t24 -101t61 -34z" />
    <glyph glyph-name="uni24EB" unicode="&#x24eb;" horiz-adv-x="1000" 
d="M80 350q0 176 122 298t298 122t298 -122t122 -298t-122 -298t-298 -122t-298 122t-122 298zM380 170h55v360h-55v-20q0 -30 -30 -30h-60v-50h90v-260zM590 170h55v360h-55v-20q0 -30 -30 -30h-60v-50h90v-260z" />
    <glyph glyph-name="uni24EC" unicode="&#x24ec;" horiz-adv-x="1000" 
d="M80 350q0 176 122 298t298 122t298 -122t122 -298t-122 -298t-298 -122t-298 122t-122 298zM350 170h55v360h-55v-20q0 -30 -30 -30h-60v-50h90v-260zM475 170h235v50h-155v5l102 105q48 48 48 95q0 49 -31 79.5t-84 30.5t-86.5 -33t-33.5 -82h55q0 30 17.5 47.5
t47.5 17.5q26 0 43 -17t17 -43q0 -30 -35 -65l-140 -145v-45z" />
    <glyph glyph-name="uni24ED" unicode="&#x24ed;" horiz-adv-x="1000" 
d="M80 350q0 176 122 298t298 122t298 -122t122 -298t-122 -298t-298 -122t-298 122t-122 298zM350 170h55v360h-55v-20q0 -30 -30 -30h-60v-50h90v-260zM525 270h-55q0 -46 32 -75.5t88 -29.5q52 0 86 30t34 75q0 64 -60 85v5q23 8 39 30t16 45q0 43 -31.5 71.5t-83.5 28.5
t-83.5 -28.5t-31.5 -71.5h55q0 20 16 35t44 15t44 -15t16 -35q0 -24 -18 -39.5t-47 -15.5h-25v-50h25q70 0 70 -60q0 -24 -18 -39.5t-47 -15.5t-47 15.5t-18 39.5z" />
    <glyph glyph-name="uni24EE" unicode="&#x24ee;" horiz-adv-x="1000" 
d="M80 350q0 176 122 298t298 122t298 -122t122 -298t-122 -298t-298 -122t-298 122t-122 298zM345 170h55v360h-55v-20q0 -30 -30 -30h-60v-50h90v-260zM460 250h170v-80h55v80h50v50h-50v230h-85l-140 -240v-40zM525 300v5l95 160h10v-165h-105z" />
    <glyph glyph-name="uni24EF" unicode="&#x24ef;" horiz-adv-x="1000" 
d="M80 350q0 176 122 298t298 122t298 -122t122 -298t-122 -298t-298 -122t-298 122t-122 298zM345 170h55v360h-55v-20q0 -30 -30 -30h-60v-50h90v-260zM520 270h-55q19 -105 130 -105q56 0 93 36t37 89q0 55 -35 90t-85 35q-37 0 -70 -25h-5l10 90h165v50h-215l-20 -200
h55q28 35 75 35q30 0 50 -21t20 -54q0 -34 -20.5 -54.5t-54.5 -20.5q-59 0 -75 55z" />
    <glyph glyph-name="uni24F0" unicode="&#x24f0;" horiz-adv-x="1000" 
d="M80 350q0 176 122 298t298 122t298 -122t122 -298t-122 -298t-298 -122t-298 122t-122 298zM350 170h55v360h-55v-20q0 -30 -30 -30h-60v-50h90v-260zM575 403h-5q58 91 80 127h-55l-100 -160q-25 -42 -25 -85q0 -49 37.5 -84.5t92.5 -35.5t92.5 35.5t37.5 84.5
q0 52 -35.5 88.5t-84.5 36.5q-16 0 -25 -4zM525 285q0 34 20.5 54.5t54.5 20.5t54.5 -20.5t20.5 -54.5q0 -30 -21 -50t-54 -20t-54 20t-21 50z" />
    <glyph glyph-name="uni24F1" unicode="&#x24f1;" horiz-adv-x="1000" 
d="M80 350q0 176 122 298t298 122t298 -122t122 -298t-122 -298t-298 -122t-298 122t-122 298zM365 170h55v360h-55v-20q0 -30 -30 -30h-60v-50h90v-260zM520 170h56l134 315v45h-230v-50h172z" />
    <glyph glyph-name="uni24F2" unicode="&#x24f2;" horiz-adv-x="1000" 
d="M80 350q0 176 122 298t298 122t298 -122t122 -298t-122 -298t-298 -122t-298 122t-122 298zM350 170h55v360h-55v-20q0 -30 -30 -30h-60v-50h90v-260zM525 360v-5q-15 -7 -28 -18q-27 -23 -27 -67q0 -43 35 -74t90 -31t90 31t35 74t-28 67q-12 11 -27 18v5q13 4 25 16
q25 25 25 59q0 41 -34.5 70.5t-85.5 29.5t-85.5 -29.5t-34.5 -70.5q0 -36 25 -59q11 -12 25 -16zM530 432q0 24 19 38.5t46 14.5t46 -14.5t19 -38.5q0 -23 -19 -37.5t-46 -14.5t-46 14.5t-19 37.5zM525 275q0 24 19 41t51 17t51 -17t19 -41q0 -27 -18.5 -43.5t-51.5 -16.5
q-34 0 -52 16.5t-18 43.5z" />
    <glyph glyph-name="uni24F3" unicode="&#x24f3;" horiz-adv-x="1000" 
d="M80 350q0 176 122 298t298 122t298 -122t122 -298t-122 -298t-298 -122t-298 122t-122 298zM355 170h55v360h-55v-20q0 -30 -30 -30h-60v-50h90v-260zM555 170h55l100 160q25 42 25 85q0 49 -37.5 84.5t-92.5 35.5t-92.5 -35.5t-37.5 -84.5q0 -52 35.5 -88.5t84.5 -36.5
q16 0 25 3l10 4h5q-58 -91 -80 -127zM530 415q0 30 21 50t54 20t54 -20t21 -50q0 -34 -20.5 -54.5t-54.5 -20.5t-54.5 20.5t-20.5 54.5z" />
    <glyph glyph-name="uni24F4" unicode="&#x24f4;" horiz-adv-x="1000" 
d="M80 350q0 176 122 298t298 122t298 -122t122 -298t-122 -298t-298 -122t-298 122t-122 298zM650 165q62 0 101 48.5t39 136.5t-39 136.5t-101 48.5t-101 -48.5t-39 -136.5t39 -136.5t101 -48.5zM650 215q-37 0 -61 34t-24 101t24 101t61 34t61 -34t24 -101t-24 -101
t-61 -34zM230 170h235v50h-155v5l102 105q48 48 48 95q0 49 -31 79.5t-84 30.5t-86.5 -33t-33.5 -82h55q0 30 17.5 47.5t47.5 17.5q26 0 43 -17t17 -43q0 -30 -35 -65l-140 -145v-45z" />
    <glyph glyph-name="uni24FF" unicode="&#x24ff;" horiz-adv-x="1000" 
d="M80 350q0 176 122 298t298 122t298 -122t122 -298t-122 -298t-298 -122t-298 122t-122 298zM500 165q62 0 101 48.5t39 136.5t-39 136.5t-101 48.5t-101 -48.5t-39 -136.5t39 -136.5t101 -48.5zM500 215q-37 0 -61 34t-24 101t24 101t61 34t61 -34t24 -101t-24 -101
t-61 -34z" />
    <glyph glyph-name="lozenge" unicode="&#x25ca;" horiz-adv-x="595" 
d="M275 0l-225 350l225 350h45l225 -350l-225 -350h-45zM298 60l184 290l-184 290l-185 -290z" />
    <glyph glyph-name="uni2776" unicode="&#x2776;" horiz-adv-x="1000" 
d="M80 350q0 176 122 298t298 122t298 -122t122 -298t-122 -298t-298 -122t-298 122t-122 298zM485 170h55v360h-55v-20q0 -30 -30 -30h-60v-50h90v-260z" />
    <glyph glyph-name="uni2777" unicode="&#x2777;" horiz-adv-x="1000" 
d="M80 350q0 176 122 298t298 122t298 -122t122 -298t-122 -298t-298 -122t-298 122t-122 298zM385 170h235v50h-155v5l102 105q48 48 48 95q0 49 -31 79.5t-84 30.5t-86.5 -33t-33.5 -82h55q0 30 17.5 47.5t47.5 17.5q26 0 43 -17t17 -43q0 -30 -35 -65l-140 -145v-45z" />
    <glyph glyph-name="uni2778" unicode="&#x2778;" horiz-adv-x="1000" 
d="M80 350q0 176 122 298t298 122t298 -122t122 -298t-122 -298t-298 -122t-298 122t-122 298zM435 270h-55q0 -46 32 -75.5t88 -29.5q52 0 86 30t34 75q0 64 -60 85v5q23 8 39 30t16 45q0 43 -31.5 71.5t-83.5 28.5t-83.5 -28.5t-31.5 -71.5h55q0 20 16 35t44 15t44 -15
t16 -35q0 -24 -18 -39.5t-47 -15.5h-25v-50h25q70 0 70 -60q0 -24 -18 -39.5t-47 -15.5t-47 15.5t-18 39.5z" />
    <glyph glyph-name="uni2779" unicode="&#x2779;" horiz-adv-x="1000" 
d="M80 350q0 176 122 298t298 122t298 -122t122 -298t-122 -298t-298 -122t-298 122t-122 298zM345 250h170v-80h55v80h50v50h-50v230h-85l-140 -240v-40zM410 300v5l95 160h10v-165h-105z" />
    <glyph glyph-name="uni277A" unicode="&#x277a;" horiz-adv-x="1000" 
d="M80 350q0 176 122 298t298 122t298 -122t122 -298t-122 -298t-298 -122t-298 122t-122 298zM425 270h-55q19 -105 130 -105q56 0 93 36t37 89q0 55 -35 90t-85 35q-37 0 -70 -25h-5l10 90h165v50h-215l-20 -200h55q28 35 75 35q30 0 50 -21t20 -54q0 -34 -20.5 -54.5
t-54.5 -20.5q-59 0 -75 55z" />
    <glyph glyph-name="uni277B" unicode="&#x277b;" horiz-adv-x="1000" 
d="M80 350q0 176 122 298t298 122t298 -122t122 -298t-122 -298t-298 -122t-298 122t-122 298zM475 403h-5q58 91 80 127h-55l-100 -160q-25 -42 -25 -85q0 -49 37.5 -84.5t92.5 -35.5t92.5 35.5t37.5 84.5q0 52 -35.5 88.5t-84.5 36.5q-16 0 -25 -4zM425 285
q0 34 20.5 54.5t54.5 20.5t54.5 -20.5t20.5 -54.5q0 -30 -21 -50t-54 -20t-54 20t-21 50z" />
    <glyph glyph-name="uni277C" unicode="&#x277c;" horiz-adv-x="1000" 
d="M80 350q0 176 122 298t298 122t298 -122t122 -298t-122 -298t-298 -122t-298 122t-122 298zM425 170h56l134 315v45h-230v-50h172z" />
    <glyph glyph-name="uni277D" unicode="&#x277d;" horiz-adv-x="1000" 
d="M80 350q0 176 122 298t298 122t298 -122t122 -298t-122 -298t-298 -122t-298 122t-122 298zM430 360v-5q-15 -7 -28 -18q-27 -23 -27 -67q0 -43 35 -74t90 -31t90 31t35 74t-28 67q-12 11 -27 18v5q13 4 25 16q25 25 25 59q0 41 -34.5 70.5t-85.5 29.5t-85.5 -29.5
t-34.5 -70.5q0 -36 25 -59q11 -12 25 -16zM435 432q0 24 19 38.5t46 14.5t46 -14.5t19 -38.5q0 -23 -19 -37.5t-46 -14.5t-46 14.5t-19 37.5zM430 275q0 24 19 41t51 17t51 -17t19 -41q0 -27 -18.5 -43.5t-51.5 -16.5q-34 0 -52 16.5t-18 43.5z" />
    <glyph glyph-name="uni277E" unicode="&#x277e;" horiz-adv-x="1000" 
d="M80 350q0 176 122 298t298 122t298 -122t122 -298t-122 -298t-298 -122t-298 122t-122 298zM450 170h55l100 160q25 42 25 85q0 49 -37.5 84.5t-92.5 35.5t-92.5 -35.5t-37.5 -84.5q0 -52 35.5 -88.5t84.5 -36.5q16 0 25 3l10 4h5q-58 -91 -80 -127zM425 415q0 30 21 50
t54 20t54 -20t21 -50q0 -34 -20.5 -54.5t-54.5 -20.5t-54.5 20.5t-20.5 54.5z" />
    <glyph glyph-name="uni277F" unicode="&#x277f;" horiz-adv-x="1000" 
d="M80 350q0 176 122 298t298 122t298 -122t122 -298t-122 -298t-298 -122t-298 122t-122 298zM600 165q62 0 101 48.5t39 136.5t-39 136.5t-101 48.5t-101 -48.5t-39 -136.5t39 -136.5t101 -48.5zM600 215q-37 0 -61 34t-24 101t24 101t61 34t61 -34t24 -101t-24 -101
t-61 -34zM340 170h55v360h-55v-20q0 -30 -30 -30h-60v-50h90v-260z" />
    <glyph glyph-name="uni2E18" unicode="&#x2e18;" horiz-adv-x="510" 
d="M415 -15h60q0 -84 -59.5 -139.5t-155.5 -55.5q-92 0 -153.5 58.5t-61.5 141.5q0 126 110 185q47 26 63.5 48t16.5 57v60h60v-487q56 10 88 46t32 86zM235 -148v304l-14 -9q-16 -10 -26 -15q-47 -25 -68.5 -57.5t-21.5 -84.5q0 -55 35.5 -93t94.5 -45zM230 430v70h70v-70
h-70z" />
    <glyph glyph-name="uniF49A" unicode="&#xf49a;" horiz-adv-x="770" 
d="M385 -10q-141 0 -235.5 100.5t-94.5 259.5t94.5 259.5t235.5 100.5t235.5 -100.5t94.5 -259.5t-94.5 -259.5t-235.5 -100.5zM116 380h537q-10 121 -85.5 195.5t-182.5 74.5q-108 0 -183.5 -74.5t-85.5 -195.5zM653 320h-537q10 -121 85.5 -195.5t183.5 -74.5
q107 0 182.5 74.5t85.5 195.5zM245 815v50h280v-50h-280z" />
    <glyph glyph-name="uniF49B" unicode="&#xf49b;" 
d="M280 -10q-99 0 -167 73t-68 187t68 187t167 73t167 -73t68 -187t-68 -187t-167 -73zM107 280h346q-10 76 -58 123t-115 47q-66 0 -115.5 -47t-57.5 -123zM453 220h-346q8 -76 57.5 -123t115.5 -47q67 0 115 46.5t58 123.5zM140 625v50h280v-50h-280z" />
    <glyph glyph-name="uniF4CC" unicode="&#xf4cc;" horiz-adv-x="600" 
d="M100 0v60h90q39 0 55 34l29 64l-259 542h65l215 -450h21l204 450h65l-290 -640q-15 -31 -38.5 -45.5t-66.5 -14.5h-90zM274 775l90 130h70l-105 -130h-55z" />
    <glyph glyph-name="uniF4CD" unicode="&#xf4cd;" horiz-adv-x="470" 
d="M60 -200v60h85q17 0 25.5 8t14.5 24l27 76l-202 532h60l160 -425h20l150 425h60l-225 -635q-24 -65 -90 -65h-85zM210 585l90 130h70l-105 -130h-55z" />
    <glyph glyph-name="uniF4D4" unicode="&#xf4d4;" horiz-adv-x="640" 
d="M90 0v700h290q87 0 146 -61t59 -154t-57.5 -151.5t-147.5 -58.5h-230v-275h-60zM150 335h230q64 0 104.5 41t40.5 109q0 71 -40 113t-105 42h-230v-305zM293 775l-113 130h65l80 -93l80 93h65l-113 -130h-64z" />
    <glyph glyph-name="uniF4D5" unicode="&#xf4d5;" horiz-adv-x="585" 
d="M310 50q74 0 122 54t48 146t-48 146t-122 54t-122 -54t-48 -146t48 -146t122 -54zM80 -200v700h50l10 -80h5q20 32 64 61t106 29q96 0 160.5 -71.5t64.5 -188.5t-64.5 -188.5t-160.5 -71.5q-62 0 -106 29t-64 61h-5v-280h-60zM278 585l-113 130h65l80 -93l80 93h65
l-113 -130h-64z" />
    <glyph glyph-name="uniF50E" unicode="&#xf50e;" horiz-adv-x="630" 
d="M5 0l265 700h90l265 -700h-60l-72 190h-356l-72 -190h-60zM160 250h310l-145 385h-20zM175 815v50h280v-50h-280z" />
    <glyph glyph-name="uniF50F" unicode="&#xf50f;" horiz-adv-x="535" 
d="M405 0l-10 70h-5q-15 -21 -41 -40q-56 -40 -124 -40q-77 0 -123.5 43t-46.5 112q0 71 50 113t145 42h145v20q0 130 -130 130q-59 0 -94.5 -26t-40.5 -69h-60q9 67 59 111t136 44q91 0 140.5 -49.5t49.5 -140.5v-320h-50zM395 220v25h-145q-66 0 -100.5 -28t-34.5 -72
q0 -43 29 -69t81 -26q79 0 124.5 45.5t45.5 124.5zM125 625v50h280v-50h-280z" />
    <glyph glyph-name="uniF510" unicode="&#xf510;" horiz-adv-x="595" 
d="M90 0v700h440v-60h-380v-260h360v-60h-360v-260h380v-60h-440zM170 815v50h280v-50h-280z" />
    <glyph glyph-name="uniF511" unicode="&#xf511;" horiz-adv-x="555" 
d="M105 280h345q-4 75 -51.5 122.5t-118.5 47.5q-72 0 -119.5 -45.5t-55.5 -124.5zM430 140h65q-22 -62 -74.5 -106t-140.5 -44q-104 0 -169.5 71t-65.5 189t65.5 189t169.5 71q99 0 164.5 -69.5t65.5 -180.5q0 -15 -2 -29q-1 -4 -1 -11h-402q8 -77 57 -123.5t118 -46.5
q55 0 93 27t57 63zM140 625v50h280v-50h-280z" />
    <glyph glyph-name="uniF516" unicode="&#xf516;" horiz-adv-x="605" 
d="M45 190h60q0 -59 50 -99.5t140 -40.5q86 0 138 42t52 98q0 54 -44 92t-116 38h-80v60h80q62 0 103.5 38.5t41.5 91.5q0 58 -48 99t-127 41t-127 -41t-48 -99h-60q0 84 65 142t170 58t170 -58t65 -142q0 -74 -55 -123q-27 -22 -55 -32v-5q35 -12 62 -33q63 -49 63 -127
q0 -85 -67 -142.5t-183 -57.5t-183 57.5t-67 142.5zM268 775l-113 130h65l80 -93l80 93h65l-113 -130h-64z" />
    <glyph glyph-name="uniF517" unicode="&#xf517;" horiz-adv-x="460" 
d="M35 155h60q0 -47 34 -76t96 -29q64 0 97 24t33 61q0 41 -32.5 65.5t-97.5 24.5h-40v55h45q54 0 84.5 24.5t30.5 60.5t-31.5 60.5t-88.5 24.5q-55 0 -87.5 -28.5t-32.5 -71.5h-60q0 69 49.5 114.5t130.5 45.5q84 0 132 -41.5t48 -103.5q0 -53 -40 -87q-19 -16 -40 -23v-5
q10 -3 22.5 -9.5t29 -19.5t27.5 -35.5t11 -50.5q0 -63 -50 -104t-140 -41q-88 0 -139 46t-51 119zM198 585l-113 130h65l80 -93l80 93h65l-113 -130h-64z" />
    <glyph glyph-name="uniF518" unicode="&#xf518;" horiz-adv-x="770" 
d="M385 710q141 0 235.5 -100.5t94.5 -259.5t-94.5 -259.5t-235.5 -100.5t-235.5 100.5t-94.5 259.5t94.5 259.5t235.5 100.5zM385 50q115 0 192.5 83.5t77.5 216.5t-77.5 216.5t-192.5 83.5t-192.5 -83.5t-77.5 -216.5t77.5 -216.5t192.5 -83.5zM245 815v50h280v-50h-280z
" />
    <glyph glyph-name="uniF519" unicode="&#xf519;" 
d="M280 -10q-99 0 -167 73t-68 187t68 187t167 73t167 -73t68 -187t-68 -187t-167 -73zM455 250q0 88 -51 144t-124 56t-124 -56t-51 -144t51 -144t124 -56t124 56t51 144zM140 625v50h280v-50h-280z" />
    <glyph glyph-name="uniF51A" unicode="&#xf51a;" horiz-adv-x="770" 
d="M385 710q141 0 235.5 -100.5t94.5 -259.5t-94.5 -259.5t-235.5 -100.5t-235.5 100.5t-94.5 259.5t94.5 259.5t235.5 100.5zM385 50q115 0 192.5 83.5t77.5 216.5t-77.5 216.5t-192.5 83.5t-192.5 -83.5t-77.5 -216.5t77.5 -216.5t192.5 -83.5zM250 905h55q4 -33 25 -51.5
t55 -18.5t55 18.5t25 51.5h55q-4 -56 -40.5 -88t-94.5 -32t-94.5 32t-40.5 88z" />
    <glyph glyph-name="uniF51B" unicode="&#xf51b;" 
d="M280 -10q-99 0 -167 73t-68 187t68 187t167 73t167 -73t68 -187t-68 -187t-167 -73zM455 250q0 88 -51 144t-124 56t-124 -56t-51 -144t51 -144t124 -56t124 56t51 144zM145 710h55q4 -33 25 -51.5t55 -18.5t55 18.5t25 51.5h55q-4 -56 -40.5 -88t-94.5 -32t-94.5 32
t-40.5 88z" />
    <glyph glyph-name="uniF51C" unicode="&#xf51c;" horiz-adv-x="770" 
d="M385 -10q-141 0 -235.5 100.5t-94.5 259.5t94.5 259.5t235.5 100.5t235.5 -100.5t94.5 -259.5t-94.5 -259.5t-235.5 -100.5zM116 380h537q-10 121 -85.5 195.5t-182.5 74.5q-108 0 -183.5 -74.5t-85.5 -195.5zM653 320h-537q10 -121 85.5 -195.5t183.5 -74.5
q107 0 182.5 74.5t85.5 195.5zM250 905h55q4 -33 25 -51.5t55 -18.5t55 18.5t25 51.5h55q-4 -56 -40.5 -88t-94.5 -32t-94.5 32t-40.5 88z" />
    <glyph glyph-name="uniF51D" unicode="&#xf51d;" 
d="M280 -10q-99 0 -167 73t-68 187t68 187t167 73t167 -73t68 -187t-68 -187t-167 -73zM107 280h346q-10 76 -58 123t-115 47q-66 0 -115.5 -47t-57.5 -123zM453 220h-346q8 -76 57.5 -123t115.5 -47q67 0 115 46.5t58 123.5zM145 710h55q4 -33 25 -51.5t55 -18.5t55 18.5
t25 51.5h55q-4 -56 -40.5 -88t-94.5 -32t-94.5 32t-40.5 88z" />
    <glyph glyph-name="uniF520" unicode="&#xf520;" horiz-adv-x="795" 
d="M645 0v700h60v-700h-60zM90 0v700h60v-265h200q88 0 146.5 -61.5t58.5 -158.5q0 -93 -59 -154t-146 -61h-260zM150 60h200q65 0 105 42t40 113q0 74 -40 117t-105 43h-200v-315zM260 815v50h280v-50h-280z" />
    <glyph glyph-name="uniF521" unicode="&#xf521;" horiz-adv-x="670" 
d="M530 0v500h60v-500h-60zM80 0v500h60v-175h140q75 0 122.5 -46.5t47.5 -118.5q0 -68 -48 -114t-122 -46h-200zM140 60h145q48 0 76.5 27.5t28.5 72.5q0 49 -28 77t-77 28h-145v-205zM195 625v50h280v-50h-280z" />
    <glyph glyph-name="uniF522" unicode="&#xf522;" horiz-adv-x="740" 
d="M45 225h65q8 -22 23.5 -47t44 -56.5t75 -51.5t102.5 -20q108 0 183.5 75t85.5 195h-359v60h359q-10 120 -85.5 195t-183.5 75q-56 0 -102.5 -19.5t-75 -49.5t-44 -54.5t-23.5 -46.5h-65q6 26 20.5 55t41 60.5t60.5 56.5t83 41.5t105 16.5q141 0 235.5 -100.5t94.5 -259.5
t-94.5 -259.5t-235.5 -100.5q-57 0 -106.5 17t-83 42.5t-60 58.5t-40.5 62t-20 55zM225 816v50h280v-50h-280z" />
    <glyph glyph-name="uniF523" unicode="&#xf523;" horiz-adv-x="535" 
d="M35 160h65q12 -39 50.5 -74.5t104.5 -35.5q70 0 117.5 45t55.5 125h-233v60h233q-8 80 -55.5 125t-117.5 45q-67 0 -105 -34t-50 -71h-65q19 75 78 120t142 45q104 0 169.5 -71t65.5 -189t-65.5 -189t-169.5 -71q-83 0 -142 45.5t-78 124.5zM125 625v50h280v-50h-280z
" />
    <glyph glyph-name="uniF526" unicode="&#xf526;" horiz-adv-x="740" 
d="M116 380h359v-60h-359q10 -120 85.5 -195t183.5 -75q56 0 102.5 20t75 51.5t44 56.5t23.5 47h65q-7 -27 -20.5 -55.5t-40 -61.5t-59.5 -58.5t-83 -42.5t-107 -17q-141 0 -235.5 100.5t-94.5 259.5t94.5 259.5t235.5 100.5q69 0 127 -24t94.5 -61.5t58 -74t30.5 -70.5h-65
q-8 22 -23.5 46.5t-44 54.5t-75 49.5t-102.5 19.5q-108 0 -183.5 -75t-85.5 -195zM260 810v70h70v-70h-70zM430 810v70h70v-70h-70z" />
    <glyph glyph-name="uniF527" unicode="&#xf527;" horiz-adv-x="540" 
d="M107 280h233v-60h-233q8 -80 55.5 -125t117.5 -45q66 0 104.5 36t50.5 74h65q-19 -79 -78 -124.5t-142 -45.5q-104 0 -169.5 71t-65.5 189t65.5 189t169.5 71q83 0 142 -45t78 -120h-65q-12 37 -50.5 71t-104.5 34q-70 0 -117.5 -45t-55.5 -125zM160 615v70h70v-70h-70z
M330 615v70h70v-70h-70z" />
    <glyph glyph-name="uniF528" unicode="&#xf528;" horiz-adv-x="645" 
d="M45 0l275 275h-55q-87 0 -146 61t-59 154t57.5 151.5t147.5 58.5h290v-700h-60v275h-95l-275 -275h-80zM265 335h230v305h-230q-64 0 -104.5 -41t-40.5 -109q0 -71 40 -113t105 -42zM195 815v50h280v-50h-280z" />
    <glyph glyph-name="uniF529" unicode="&#xf529;" horiz-adv-x="515" 
d="M35 0l185 185h-10q-75 0 -120 44t-45 116q0 69 45.5 112t119.5 43h225v-500h-60v185h-80l-185 -185h-75zM210 245h165v195h-165q-48 0 -76.5 -26t-28.5 -69q0 -45 28.5 -72.5t76.5 -27.5zM120 625v50h280v-50h-280z" />
    <glyph glyph-name="uniF52A" unicode="&#xf52a;" horiz-adv-x="645" 
d="M45 0l275 275h-55q-87 0 -146 61t-59 154t57.5 151.5t147.5 58.5h290v-700h-60v275h-95l-275 -275h-80zM265 335h230v305h-230q-64 0 -104.5 -41t-40.5 -109q0 -71 40 -113t105 -42zM200 905h55q4 -33 25 -51.5t55 -18.5t55 18.5t25 51.5h55q-4 -56 -40.5 -88t-94.5 -32
t-94.5 32t-40.5 88z" />
    <glyph glyph-name="uniF52B" unicode="&#xf52b;" horiz-adv-x="515" 
d="M35 0l185 185h-10q-75 0 -120 44t-45 116q0 69 45.5 112t119.5 43h225v-500h-60v185h-80l-185 -185h-75zM210 245h165v195h-165q-48 0 -76.5 -26t-28.5 -69q0 -45 28.5 -72.5t76.5 -27.5zM125 710h55q4 -33 25 -51.5t55 -18.5t55 18.5t25 51.5h55q-4 -56 -40.5 -88
t-94.5 -32t-94.5 32t-40.5 88z" />
    <glyph glyph-name="uniF52C" unicode="&#xf52c;" horiz-adv-x="945" 
d="M90 0v700h60v-320h121q8 152 94.5 241t214.5 89q135 0 222.5 -97.5t87.5 -262.5t-87.5 -262.5t-222.5 -97.5q-128 0 -214.5 89t-94.5 241h-121v-320h-60zM580 50q108 0 179 80.5t71 219.5t-71 219.5t-179 80.5t-179 -80.5t-71 -219.5t71 -219.5t179 -80.5zM330 815v50
h280v-50h-280z" />
    <glyph glyph-name="uniF52D" unicode="&#xf52d;" horiz-adv-x="720" 
d="M80 0v500h60v-220h86q8 104 71.5 167t152.5 63q96 0 160.5 -71.5t64.5 -188.5t-64.5 -188.5t-160.5 -71.5q-90 0 -153 62.5t-71 167.5h-86v-220h-60zM450 50q70 0 117.5 54.5t47.5 145.5t-47.5 145.5t-117.5 54.5t-117.5 -54.5t-47.5 -145.5t47.5 -145.5t117.5 -54.5z
M225 625v50h280v-50h-280z" />
    <glyph glyph-name="uniF52E" unicode="&#xf52e;" horiz-adv-x="945" 
d="M90 0v700h60v-320h121q8 152 94.5 241t214.5 89q135 0 222.5 -97.5t87.5 -262.5t-87.5 -262.5t-222.5 -97.5q-128 0 -214.5 89t-94.5 241h-121v-320h-60zM580 50q108 0 179 80.5t71 219.5t-71 219.5t-179 80.5t-179 -80.5t-71 -219.5t71 -219.5t179 -80.5zM335 905h55
q4 -33 25 -51.5t55 -18.5t55 18.5t25 51.5h55q-4 -56 -40.5 -88t-94.5 -32t-94.5 32t-40.5 88z" />
    <glyph glyph-name="uniF52F" unicode="&#xf52f;" horiz-adv-x="720" 
d="M80 0v500h60v-220h86q8 104 71.5 167t152.5 63q96 0 160.5 -71.5t64.5 -188.5t-64.5 -188.5t-160.5 -71.5q-90 0 -153 62.5t-71 167.5h-86v-220h-60zM450 50q70 0 117.5 54.5t47.5 145.5t-47.5 145.5t-117.5 54.5t-117.5 -54.5t-47.5 -145.5t47.5 -145.5t117.5 -54.5z
M230 710h55q4 -33 25 -51.5t55 -18.5t55 18.5t25 51.5h55q-4 -56 -40.5 -88t-94.5 -32t-94.5 32t-40.5 88z" />
    </font>
</defs>
</svg>
